%TF.GenerationSoftware,KiCad,Pcbnew,9.0.0*%
%TF.CreationDate,2025-05-14T14:17:17+02:00*%
%TF.ProjectId,Fluke_8050a_TM1637_Display_PCB,466c756b-655f-4383-9035-30615f544d31,rev?*%
%TF.SameCoordinates,Original*%
%TF.FileFunction,Soldermask,Top*%
%TF.FilePolarity,Negative*%
%FSLAX46Y46*%
G04 Gerber Fmt 4.6, Leading zero omitted, Abs format (unit mm)*
G04 Created by KiCad (PCBNEW 9.0.0) date 2025-05-14 14:17:17*
%MOMM*%
%LPD*%
G01*
G04 APERTURE LIST*
G04 Aperture macros list*
%AMRoundRect*
0 Rectangle with rounded corners*
0 $1 Rounding radius*
0 $2 $3 $4 $5 $6 $7 $8 $9 X,Y pos of 4 corners*
0 Add a 4 corners polygon primitive as box body*
4,1,4,$2,$3,$4,$5,$6,$7,$8,$9,$2,$3,0*
0 Add four circle primitives for the rounded corners*
1,1,$1+$1,$2,$3*
1,1,$1+$1,$4,$5*
1,1,$1+$1,$6,$7*
1,1,$1+$1,$8,$9*
0 Add four rect primitives between the rounded corners*
20,1,$1+$1,$2,$3,$4,$5,0*
20,1,$1+$1,$4,$5,$6,$7,0*
20,1,$1+$1,$6,$7,$8,$9,0*
20,1,$1+$1,$8,$9,$2,$3,0*%
G04 Aperture macros list end*
%ADD10RoundRect,0.250000X-0.262500X-0.450000X0.262500X-0.450000X0.262500X0.450000X-0.262500X0.450000X0*%
%ADD11C,2.100000*%
%ADD12R,1.600000X1.600000*%
%ADD13C,1.600000*%
%ADD14R,1.500000X1.500000*%
%ADD15C,1.500000*%
%ADD16R,1.700000X1.700000*%
%ADD17O,1.700000X1.700000*%
G04 APERTURE END LIST*
D10*
%TO.C,R1*%
X158787500Y-59200000D03*
X160612500Y-59200000D03*
%TD*%
D11*
%TO.C,REF\u002A\u002A*%
X197900000Y-63600000D03*
%TD*%
D12*
%TO.C,D2*%
X154400000Y-56060000D03*
D13*
X156940000Y-56060000D03*
X159480000Y-56060000D03*
X162020000Y-56060000D03*
X164560000Y-56060000D03*
X167100000Y-56060000D03*
X167100000Y-45900000D03*
X164560000Y-45900000D03*
X162020000Y-45900000D03*
X159480000Y-45900000D03*
X156940000Y-45900000D03*
X154400000Y-45900000D03*
%TD*%
D14*
%TO.C,D8*%
X165140000Y-61200000D03*
D15*
X167640000Y-61200000D03*
%TD*%
D14*
%TO.C,D10*%
X190840000Y-61200000D03*
D15*
X193340000Y-61200000D03*
%TD*%
D12*
%TO.C,D1*%
X177500000Y-56060000D03*
D13*
X180040000Y-56060000D03*
X182580000Y-56060000D03*
X185120000Y-56060000D03*
X187660000Y-56060000D03*
X190200000Y-56060000D03*
X190200000Y-45900000D03*
X187660000Y-45900000D03*
X185120000Y-45900000D03*
X182580000Y-45900000D03*
X180040000Y-45900000D03*
X177500000Y-45900000D03*
%TD*%
D14*
%TO.C,D7*%
X151740000Y-61200000D03*
D15*
X154240000Y-61200000D03*
%TD*%
D10*
%TO.C,R4*%
X184887500Y-61400000D03*
X186712500Y-61400000D03*
%TD*%
D14*
%TO.C,D3*%
X151740000Y-59100000D03*
D15*
X154240000Y-59100000D03*
%TD*%
D10*
%TO.C,R3*%
X184887500Y-59200000D03*
X186712500Y-59200000D03*
%TD*%
%TO.C,R2*%
X158787500Y-61500000D03*
X160612500Y-61500000D03*
%TD*%
D14*
%TO.C,D9*%
X178040000Y-61200000D03*
D15*
X180540000Y-61200000D03*
%TD*%
D11*
%TO.C,REF\u002A\u002A*%
X147400000Y-42400000D03*
%TD*%
%TO.C,REF\u002A\u002A*%
X197900000Y-42400000D03*
%TD*%
D14*
%TO.C,D6*%
X190840000Y-59100000D03*
D15*
X193340000Y-59100000D03*
%TD*%
D14*
%TO.C,D4*%
X165140000Y-59100000D03*
D15*
X167640000Y-59100000D03*
%TD*%
D14*
%TO.C,D5*%
X178040000Y-59100000D03*
D15*
X180540000Y-59100000D03*
%TD*%
D11*
%TO.C,REF\u002A\u002A*%
X147400000Y-63600000D03*
%TD*%
D16*
%TO.C,J1*%
X171325000Y-64325000D03*
D17*
X173865000Y-64325000D03*
X171325000Y-61785000D03*
X173865000Y-61785000D03*
X171325000Y-59245000D03*
X173865000Y-59245000D03*
%TD*%
D16*
%TO.C,J4*%
X148000000Y-59200000D03*
D17*
X145460000Y-59200000D03*
%TD*%
D16*
%TO.C,J2*%
X181700000Y-42500000D03*
D17*
X179160000Y-42500000D03*
X176620000Y-42500000D03*
X174080000Y-42500000D03*
X171540000Y-42500000D03*
X169000000Y-42500000D03*
X166460000Y-42500000D03*
X163920000Y-42500000D03*
X161380000Y-42500000D03*
X158840000Y-42500000D03*
X156300000Y-42500000D03*
X153760000Y-42500000D03*
X151220000Y-42500000D03*
%TD*%
D16*
%TO.C,J3*%
X190500000Y-42500000D03*
D17*
X187960000Y-42500000D03*
%TD*%
M02*
