%TF.GenerationSoftware,KiCad,Pcbnew,9.0.0*%
%TF.CreationDate,2025-05-14T14:17:17+02:00*%
%TF.ProjectId,Fluke_8050a_TM1637_Display_PCB,466c756b-655f-4383-9035-30615f544d31,rev?*%
%TF.SameCoordinates,Original*%
%TF.FileFunction,Legend,Top*%
%TF.FilePolarity,Positive*%
%FSLAX46Y46*%
G04 Gerber Fmt 4.6, Leading zero omitted, Abs format (unit mm)*
G04 Created by KiCad (PCBNEW 9.0.0) date 2025-05-14 14:17:17*
%MOMM*%
%LPD*%
G01*
G04 APERTURE LIST*
%ADD10C,0.150000*%
%ADD11C,0.100000*%
%ADD12C,0.120000*%
G04 APERTURE END LIST*
D10*
X156733333Y-59754819D02*
X156400000Y-59278628D01*
X156161905Y-59754819D02*
X156161905Y-58754819D01*
X156161905Y-58754819D02*
X156542857Y-58754819D01*
X156542857Y-58754819D02*
X156638095Y-58802438D01*
X156638095Y-58802438D02*
X156685714Y-58850057D01*
X156685714Y-58850057D02*
X156733333Y-58945295D01*
X156733333Y-58945295D02*
X156733333Y-59088152D01*
X156733333Y-59088152D02*
X156685714Y-59183390D01*
X156685714Y-59183390D02*
X156638095Y-59231009D01*
X156638095Y-59231009D02*
X156542857Y-59278628D01*
X156542857Y-59278628D02*
X156161905Y-59278628D01*
X157685714Y-59754819D02*
X157114286Y-59754819D01*
X157400000Y-59754819D02*
X157400000Y-58754819D01*
X157400000Y-58754819D02*
X157304762Y-58897676D01*
X157304762Y-58897676D02*
X157209524Y-58992914D01*
X157209524Y-58992914D02*
X157114286Y-59040533D01*
X196566666Y-69154819D02*
X196233333Y-68678628D01*
X195995238Y-69154819D02*
X195995238Y-68154819D01*
X195995238Y-68154819D02*
X196376190Y-68154819D01*
X196376190Y-68154819D02*
X196471428Y-68202438D01*
X196471428Y-68202438D02*
X196519047Y-68250057D01*
X196519047Y-68250057D02*
X196566666Y-68345295D01*
X196566666Y-68345295D02*
X196566666Y-68488152D01*
X196566666Y-68488152D02*
X196519047Y-68583390D01*
X196519047Y-68583390D02*
X196471428Y-68631009D01*
X196471428Y-68631009D02*
X196376190Y-68678628D01*
X196376190Y-68678628D02*
X195995238Y-68678628D01*
X196995238Y-68631009D02*
X197328571Y-68631009D01*
X197471428Y-69154819D02*
X196995238Y-69154819D01*
X196995238Y-69154819D02*
X196995238Y-68154819D01*
X196995238Y-68154819D02*
X197471428Y-68154819D01*
X198233333Y-68631009D02*
X197900000Y-68631009D01*
X197900000Y-69154819D02*
X197900000Y-68154819D01*
X197900000Y-68154819D02*
X198376190Y-68154819D01*
X198900000Y-68154819D02*
X198900000Y-68392914D01*
X198661905Y-68297676D02*
X198900000Y-68392914D01*
X198900000Y-68392914D02*
X199138095Y-68297676D01*
X198757143Y-68583390D02*
X198900000Y-68392914D01*
X198900000Y-68392914D02*
X199042857Y-68583390D01*
X199661905Y-68154819D02*
X199661905Y-68392914D01*
X199423810Y-68297676D02*
X199661905Y-68392914D01*
X199661905Y-68392914D02*
X199900000Y-68297676D01*
X199519048Y-68583390D02*
X199661905Y-68392914D01*
X199661905Y-68392914D02*
X199804762Y-68583390D01*
D11*
X147561905Y-46057419D02*
X147561905Y-45057419D01*
X147561905Y-45057419D02*
X147800000Y-45057419D01*
X147800000Y-45057419D02*
X147942857Y-45105038D01*
X147942857Y-45105038D02*
X148038095Y-45200276D01*
X148038095Y-45200276D02*
X148085714Y-45295514D01*
X148085714Y-45295514D02*
X148133333Y-45485990D01*
X148133333Y-45485990D02*
X148133333Y-45628847D01*
X148133333Y-45628847D02*
X148085714Y-45819323D01*
X148085714Y-45819323D02*
X148038095Y-45914561D01*
X148038095Y-45914561D02*
X147942857Y-46009800D01*
X147942857Y-46009800D02*
X147800000Y-46057419D01*
X147800000Y-46057419D02*
X147561905Y-46057419D01*
X148514286Y-45152657D02*
X148561905Y-45105038D01*
X148561905Y-45105038D02*
X148657143Y-45057419D01*
X148657143Y-45057419D02*
X148895238Y-45057419D01*
X148895238Y-45057419D02*
X148990476Y-45105038D01*
X148990476Y-45105038D02*
X149038095Y-45152657D01*
X149038095Y-45152657D02*
X149085714Y-45247895D01*
X149085714Y-45247895D02*
X149085714Y-45343133D01*
X149085714Y-45343133D02*
X149038095Y-45485990D01*
X149038095Y-45485990D02*
X148466667Y-46057419D01*
X148466667Y-46057419D02*
X149085714Y-46057419D01*
X162061905Y-61757419D02*
X162061905Y-60757419D01*
X162061905Y-60757419D02*
X162300000Y-60757419D01*
X162300000Y-60757419D02*
X162442857Y-60805038D01*
X162442857Y-60805038D02*
X162538095Y-60900276D01*
X162538095Y-60900276D02*
X162585714Y-60995514D01*
X162585714Y-60995514D02*
X162633333Y-61185990D01*
X162633333Y-61185990D02*
X162633333Y-61328847D01*
X162633333Y-61328847D02*
X162585714Y-61519323D01*
X162585714Y-61519323D02*
X162538095Y-61614561D01*
X162538095Y-61614561D02*
X162442857Y-61709800D01*
X162442857Y-61709800D02*
X162300000Y-61757419D01*
X162300000Y-61757419D02*
X162061905Y-61757419D01*
X163204762Y-61185990D02*
X163109524Y-61138371D01*
X163109524Y-61138371D02*
X163061905Y-61090752D01*
X163061905Y-61090752D02*
X163014286Y-60995514D01*
X163014286Y-60995514D02*
X163014286Y-60947895D01*
X163014286Y-60947895D02*
X163061905Y-60852657D01*
X163061905Y-60852657D02*
X163109524Y-60805038D01*
X163109524Y-60805038D02*
X163204762Y-60757419D01*
X163204762Y-60757419D02*
X163395238Y-60757419D01*
X163395238Y-60757419D02*
X163490476Y-60805038D01*
X163490476Y-60805038D02*
X163538095Y-60852657D01*
X163538095Y-60852657D02*
X163585714Y-60947895D01*
X163585714Y-60947895D02*
X163585714Y-60995514D01*
X163585714Y-60995514D02*
X163538095Y-61090752D01*
X163538095Y-61090752D02*
X163490476Y-61138371D01*
X163490476Y-61138371D02*
X163395238Y-61185990D01*
X163395238Y-61185990D02*
X163204762Y-61185990D01*
X163204762Y-61185990D02*
X163109524Y-61233609D01*
X163109524Y-61233609D02*
X163061905Y-61281228D01*
X163061905Y-61281228D02*
X163014286Y-61376466D01*
X163014286Y-61376466D02*
X163014286Y-61566942D01*
X163014286Y-61566942D02*
X163061905Y-61662180D01*
X163061905Y-61662180D02*
X163109524Y-61709800D01*
X163109524Y-61709800D02*
X163204762Y-61757419D01*
X163204762Y-61757419D02*
X163395238Y-61757419D01*
X163395238Y-61757419D02*
X163490476Y-61709800D01*
X163490476Y-61709800D02*
X163538095Y-61662180D01*
X163538095Y-61662180D02*
X163585714Y-61566942D01*
X163585714Y-61566942D02*
X163585714Y-61376466D01*
X163585714Y-61376466D02*
X163538095Y-61281228D01*
X163538095Y-61281228D02*
X163490476Y-61233609D01*
X163490476Y-61233609D02*
X163395238Y-61185990D01*
X194885714Y-61357419D02*
X194885714Y-60357419D01*
X194885714Y-60357419D02*
X195123809Y-60357419D01*
X195123809Y-60357419D02*
X195266666Y-60405038D01*
X195266666Y-60405038D02*
X195361904Y-60500276D01*
X195361904Y-60500276D02*
X195409523Y-60595514D01*
X195409523Y-60595514D02*
X195457142Y-60785990D01*
X195457142Y-60785990D02*
X195457142Y-60928847D01*
X195457142Y-60928847D02*
X195409523Y-61119323D01*
X195409523Y-61119323D02*
X195361904Y-61214561D01*
X195361904Y-61214561D02*
X195266666Y-61309800D01*
X195266666Y-61309800D02*
X195123809Y-61357419D01*
X195123809Y-61357419D02*
X194885714Y-61357419D01*
X196409523Y-61357419D02*
X195838095Y-61357419D01*
X196123809Y-61357419D02*
X196123809Y-60357419D01*
X196123809Y-60357419D02*
X196028571Y-60500276D01*
X196028571Y-60500276D02*
X195933333Y-60595514D01*
X195933333Y-60595514D02*
X195838095Y-60643133D01*
X197028571Y-60357419D02*
X197123809Y-60357419D01*
X197123809Y-60357419D02*
X197219047Y-60405038D01*
X197219047Y-60405038D02*
X197266666Y-60452657D01*
X197266666Y-60452657D02*
X197314285Y-60547895D01*
X197314285Y-60547895D02*
X197361904Y-60738371D01*
X197361904Y-60738371D02*
X197361904Y-60976466D01*
X197361904Y-60976466D02*
X197314285Y-61166942D01*
X197314285Y-61166942D02*
X197266666Y-61262180D01*
X197266666Y-61262180D02*
X197219047Y-61309800D01*
X197219047Y-61309800D02*
X197123809Y-61357419D01*
X197123809Y-61357419D02*
X197028571Y-61357419D01*
X197028571Y-61357419D02*
X196933333Y-61309800D01*
X196933333Y-61309800D02*
X196885714Y-61262180D01*
X196885714Y-61262180D02*
X196838095Y-61166942D01*
X196838095Y-61166942D02*
X196790476Y-60976466D01*
X196790476Y-60976466D02*
X196790476Y-60738371D01*
X196790476Y-60738371D02*
X196838095Y-60547895D01*
X196838095Y-60547895D02*
X196885714Y-60452657D01*
X196885714Y-60452657D02*
X196933333Y-60405038D01*
X196933333Y-60405038D02*
X197028571Y-60357419D01*
X196161905Y-46157419D02*
X196161905Y-45157419D01*
X196161905Y-45157419D02*
X196400000Y-45157419D01*
X196400000Y-45157419D02*
X196542857Y-45205038D01*
X196542857Y-45205038D02*
X196638095Y-45300276D01*
X196638095Y-45300276D02*
X196685714Y-45395514D01*
X196685714Y-45395514D02*
X196733333Y-45585990D01*
X196733333Y-45585990D02*
X196733333Y-45728847D01*
X196733333Y-45728847D02*
X196685714Y-45919323D01*
X196685714Y-45919323D02*
X196638095Y-46014561D01*
X196638095Y-46014561D02*
X196542857Y-46109800D01*
X196542857Y-46109800D02*
X196400000Y-46157419D01*
X196400000Y-46157419D02*
X196161905Y-46157419D01*
X197685714Y-46157419D02*
X197114286Y-46157419D01*
X197400000Y-46157419D02*
X197400000Y-45157419D01*
X197400000Y-45157419D02*
X197304762Y-45300276D01*
X197304762Y-45300276D02*
X197209524Y-45395514D01*
X197209524Y-45395514D02*
X197114286Y-45443133D01*
X148861905Y-61657419D02*
X148861905Y-60657419D01*
X148861905Y-60657419D02*
X149100000Y-60657419D01*
X149100000Y-60657419D02*
X149242857Y-60705038D01*
X149242857Y-60705038D02*
X149338095Y-60800276D01*
X149338095Y-60800276D02*
X149385714Y-60895514D01*
X149385714Y-60895514D02*
X149433333Y-61085990D01*
X149433333Y-61085990D02*
X149433333Y-61228847D01*
X149433333Y-61228847D02*
X149385714Y-61419323D01*
X149385714Y-61419323D02*
X149338095Y-61514561D01*
X149338095Y-61514561D02*
X149242857Y-61609800D01*
X149242857Y-61609800D02*
X149100000Y-61657419D01*
X149100000Y-61657419D02*
X148861905Y-61657419D01*
X149766667Y-60657419D02*
X150433333Y-60657419D01*
X150433333Y-60657419D02*
X150004762Y-61657419D01*
D10*
X188333333Y-61754819D02*
X188000000Y-61278628D01*
X187761905Y-61754819D02*
X187761905Y-60754819D01*
X187761905Y-60754819D02*
X188142857Y-60754819D01*
X188142857Y-60754819D02*
X188238095Y-60802438D01*
X188238095Y-60802438D02*
X188285714Y-60850057D01*
X188285714Y-60850057D02*
X188333333Y-60945295D01*
X188333333Y-60945295D02*
X188333333Y-61088152D01*
X188333333Y-61088152D02*
X188285714Y-61183390D01*
X188285714Y-61183390D02*
X188238095Y-61231009D01*
X188238095Y-61231009D02*
X188142857Y-61278628D01*
X188142857Y-61278628D02*
X187761905Y-61278628D01*
X189190476Y-61088152D02*
X189190476Y-61754819D01*
X188952381Y-60707200D02*
X188714286Y-61421485D01*
X188714286Y-61421485D02*
X189333333Y-61421485D01*
D11*
X148861905Y-59657419D02*
X148861905Y-58657419D01*
X148861905Y-58657419D02*
X149100000Y-58657419D01*
X149100000Y-58657419D02*
X149242857Y-58705038D01*
X149242857Y-58705038D02*
X149338095Y-58800276D01*
X149338095Y-58800276D02*
X149385714Y-58895514D01*
X149385714Y-58895514D02*
X149433333Y-59085990D01*
X149433333Y-59085990D02*
X149433333Y-59228847D01*
X149433333Y-59228847D02*
X149385714Y-59419323D01*
X149385714Y-59419323D02*
X149338095Y-59514561D01*
X149338095Y-59514561D02*
X149242857Y-59609800D01*
X149242857Y-59609800D02*
X149100000Y-59657419D01*
X149100000Y-59657419D02*
X148861905Y-59657419D01*
X149766667Y-58657419D02*
X150385714Y-58657419D01*
X150385714Y-58657419D02*
X150052381Y-59038371D01*
X150052381Y-59038371D02*
X150195238Y-59038371D01*
X150195238Y-59038371D02*
X150290476Y-59085990D01*
X150290476Y-59085990D02*
X150338095Y-59133609D01*
X150338095Y-59133609D02*
X150385714Y-59228847D01*
X150385714Y-59228847D02*
X150385714Y-59466942D01*
X150385714Y-59466942D02*
X150338095Y-59562180D01*
X150338095Y-59562180D02*
X150290476Y-59609800D01*
X150290476Y-59609800D02*
X150195238Y-59657419D01*
X150195238Y-59657419D02*
X149909524Y-59657419D01*
X149909524Y-59657419D02*
X149814286Y-59609800D01*
X149814286Y-59609800D02*
X149766667Y-59562180D01*
D10*
X188333333Y-59654819D02*
X188000000Y-59178628D01*
X187761905Y-59654819D02*
X187761905Y-58654819D01*
X187761905Y-58654819D02*
X188142857Y-58654819D01*
X188142857Y-58654819D02*
X188238095Y-58702438D01*
X188238095Y-58702438D02*
X188285714Y-58750057D01*
X188285714Y-58750057D02*
X188333333Y-58845295D01*
X188333333Y-58845295D02*
X188333333Y-58988152D01*
X188333333Y-58988152D02*
X188285714Y-59083390D01*
X188285714Y-59083390D02*
X188238095Y-59131009D01*
X188238095Y-59131009D02*
X188142857Y-59178628D01*
X188142857Y-59178628D02*
X187761905Y-59178628D01*
X188666667Y-58654819D02*
X189285714Y-58654819D01*
X189285714Y-58654819D02*
X188952381Y-59035771D01*
X188952381Y-59035771D02*
X189095238Y-59035771D01*
X189095238Y-59035771D02*
X189190476Y-59083390D01*
X189190476Y-59083390D02*
X189238095Y-59131009D01*
X189238095Y-59131009D02*
X189285714Y-59226247D01*
X189285714Y-59226247D02*
X189285714Y-59464342D01*
X189285714Y-59464342D02*
X189238095Y-59559580D01*
X189238095Y-59559580D02*
X189190476Y-59607200D01*
X189190476Y-59607200D02*
X189095238Y-59654819D01*
X189095238Y-59654819D02*
X188809524Y-59654819D01*
X188809524Y-59654819D02*
X188714286Y-59607200D01*
X188714286Y-59607200D02*
X188666667Y-59559580D01*
X156733333Y-61854819D02*
X156400000Y-61378628D01*
X156161905Y-61854819D02*
X156161905Y-60854819D01*
X156161905Y-60854819D02*
X156542857Y-60854819D01*
X156542857Y-60854819D02*
X156638095Y-60902438D01*
X156638095Y-60902438D02*
X156685714Y-60950057D01*
X156685714Y-60950057D02*
X156733333Y-61045295D01*
X156733333Y-61045295D02*
X156733333Y-61188152D01*
X156733333Y-61188152D02*
X156685714Y-61283390D01*
X156685714Y-61283390D02*
X156638095Y-61331009D01*
X156638095Y-61331009D02*
X156542857Y-61378628D01*
X156542857Y-61378628D02*
X156161905Y-61378628D01*
X157114286Y-60950057D02*
X157161905Y-60902438D01*
X157161905Y-60902438D02*
X157257143Y-60854819D01*
X157257143Y-60854819D02*
X157495238Y-60854819D01*
X157495238Y-60854819D02*
X157590476Y-60902438D01*
X157590476Y-60902438D02*
X157638095Y-60950057D01*
X157638095Y-60950057D02*
X157685714Y-61045295D01*
X157685714Y-61045295D02*
X157685714Y-61140533D01*
X157685714Y-61140533D02*
X157638095Y-61283390D01*
X157638095Y-61283390D02*
X157066667Y-61854819D01*
X157066667Y-61854819D02*
X157685714Y-61854819D01*
D11*
X182061905Y-61657419D02*
X182061905Y-60657419D01*
X182061905Y-60657419D02*
X182300000Y-60657419D01*
X182300000Y-60657419D02*
X182442857Y-60705038D01*
X182442857Y-60705038D02*
X182538095Y-60800276D01*
X182538095Y-60800276D02*
X182585714Y-60895514D01*
X182585714Y-60895514D02*
X182633333Y-61085990D01*
X182633333Y-61085990D02*
X182633333Y-61228847D01*
X182633333Y-61228847D02*
X182585714Y-61419323D01*
X182585714Y-61419323D02*
X182538095Y-61514561D01*
X182538095Y-61514561D02*
X182442857Y-61609800D01*
X182442857Y-61609800D02*
X182300000Y-61657419D01*
X182300000Y-61657419D02*
X182061905Y-61657419D01*
X183109524Y-61657419D02*
X183300000Y-61657419D01*
X183300000Y-61657419D02*
X183395238Y-61609800D01*
X183395238Y-61609800D02*
X183442857Y-61562180D01*
X183442857Y-61562180D02*
X183538095Y-61419323D01*
X183538095Y-61419323D02*
X183585714Y-61228847D01*
X183585714Y-61228847D02*
X183585714Y-60847895D01*
X183585714Y-60847895D02*
X183538095Y-60752657D01*
X183538095Y-60752657D02*
X183490476Y-60705038D01*
X183490476Y-60705038D02*
X183395238Y-60657419D01*
X183395238Y-60657419D02*
X183204762Y-60657419D01*
X183204762Y-60657419D02*
X183109524Y-60705038D01*
X183109524Y-60705038D02*
X183061905Y-60752657D01*
X183061905Y-60752657D02*
X183014286Y-60847895D01*
X183014286Y-60847895D02*
X183014286Y-61085990D01*
X183014286Y-61085990D02*
X183061905Y-61181228D01*
X183061905Y-61181228D02*
X183109524Y-61228847D01*
X183109524Y-61228847D02*
X183204762Y-61276466D01*
X183204762Y-61276466D02*
X183395238Y-61276466D01*
X183395238Y-61276466D02*
X183490476Y-61228847D01*
X183490476Y-61228847D02*
X183538095Y-61181228D01*
X183538095Y-61181228D02*
X183585714Y-61085990D01*
D10*
X146066666Y-39654819D02*
X145733333Y-39178628D01*
X145495238Y-39654819D02*
X145495238Y-38654819D01*
X145495238Y-38654819D02*
X145876190Y-38654819D01*
X145876190Y-38654819D02*
X145971428Y-38702438D01*
X145971428Y-38702438D02*
X146019047Y-38750057D01*
X146019047Y-38750057D02*
X146066666Y-38845295D01*
X146066666Y-38845295D02*
X146066666Y-38988152D01*
X146066666Y-38988152D02*
X146019047Y-39083390D01*
X146019047Y-39083390D02*
X145971428Y-39131009D01*
X145971428Y-39131009D02*
X145876190Y-39178628D01*
X145876190Y-39178628D02*
X145495238Y-39178628D01*
X146495238Y-39131009D02*
X146828571Y-39131009D01*
X146971428Y-39654819D02*
X146495238Y-39654819D01*
X146495238Y-39654819D02*
X146495238Y-38654819D01*
X146495238Y-38654819D02*
X146971428Y-38654819D01*
X147733333Y-39131009D02*
X147400000Y-39131009D01*
X147400000Y-39654819D02*
X147400000Y-38654819D01*
X147400000Y-38654819D02*
X147876190Y-38654819D01*
X148400000Y-38654819D02*
X148400000Y-38892914D01*
X148161905Y-38797676D02*
X148400000Y-38892914D01*
X148400000Y-38892914D02*
X148638095Y-38797676D01*
X148257143Y-39083390D02*
X148400000Y-38892914D01*
X148400000Y-38892914D02*
X148542857Y-39083390D01*
X149161905Y-38654819D02*
X149161905Y-38892914D01*
X148923810Y-38797676D02*
X149161905Y-38892914D01*
X149161905Y-38892914D02*
X149400000Y-38797676D01*
X149019048Y-39083390D02*
X149161905Y-38892914D01*
X149161905Y-38892914D02*
X149304762Y-39083390D01*
X196566666Y-39654819D02*
X196233333Y-39178628D01*
X195995238Y-39654819D02*
X195995238Y-38654819D01*
X195995238Y-38654819D02*
X196376190Y-38654819D01*
X196376190Y-38654819D02*
X196471428Y-38702438D01*
X196471428Y-38702438D02*
X196519047Y-38750057D01*
X196519047Y-38750057D02*
X196566666Y-38845295D01*
X196566666Y-38845295D02*
X196566666Y-38988152D01*
X196566666Y-38988152D02*
X196519047Y-39083390D01*
X196519047Y-39083390D02*
X196471428Y-39131009D01*
X196471428Y-39131009D02*
X196376190Y-39178628D01*
X196376190Y-39178628D02*
X195995238Y-39178628D01*
X196995238Y-39131009D02*
X197328571Y-39131009D01*
X197471428Y-39654819D02*
X196995238Y-39654819D01*
X196995238Y-39654819D02*
X196995238Y-38654819D01*
X196995238Y-38654819D02*
X197471428Y-38654819D01*
X198233333Y-39131009D02*
X197900000Y-39131009D01*
X197900000Y-39654819D02*
X197900000Y-38654819D01*
X197900000Y-38654819D02*
X198376190Y-38654819D01*
X198900000Y-38654819D02*
X198900000Y-38892914D01*
X198661905Y-38797676D02*
X198900000Y-38892914D01*
X198900000Y-38892914D02*
X199138095Y-38797676D01*
X198757143Y-39083390D02*
X198900000Y-38892914D01*
X198900000Y-38892914D02*
X199042857Y-39083390D01*
X199661905Y-38654819D02*
X199661905Y-38892914D01*
X199423810Y-38797676D02*
X199661905Y-38892914D01*
X199661905Y-38892914D02*
X199900000Y-38797676D01*
X199519048Y-39083390D02*
X199661905Y-38892914D01*
X199661905Y-38892914D02*
X199804762Y-39083390D01*
D11*
X194961905Y-59557419D02*
X194961905Y-58557419D01*
X194961905Y-58557419D02*
X195200000Y-58557419D01*
X195200000Y-58557419D02*
X195342857Y-58605038D01*
X195342857Y-58605038D02*
X195438095Y-58700276D01*
X195438095Y-58700276D02*
X195485714Y-58795514D01*
X195485714Y-58795514D02*
X195533333Y-58985990D01*
X195533333Y-58985990D02*
X195533333Y-59128847D01*
X195533333Y-59128847D02*
X195485714Y-59319323D01*
X195485714Y-59319323D02*
X195438095Y-59414561D01*
X195438095Y-59414561D02*
X195342857Y-59509800D01*
X195342857Y-59509800D02*
X195200000Y-59557419D01*
X195200000Y-59557419D02*
X194961905Y-59557419D01*
X196390476Y-58557419D02*
X196200000Y-58557419D01*
X196200000Y-58557419D02*
X196104762Y-58605038D01*
X196104762Y-58605038D02*
X196057143Y-58652657D01*
X196057143Y-58652657D02*
X195961905Y-58795514D01*
X195961905Y-58795514D02*
X195914286Y-58985990D01*
X195914286Y-58985990D02*
X195914286Y-59366942D01*
X195914286Y-59366942D02*
X195961905Y-59462180D01*
X195961905Y-59462180D02*
X196009524Y-59509800D01*
X196009524Y-59509800D02*
X196104762Y-59557419D01*
X196104762Y-59557419D02*
X196295238Y-59557419D01*
X196295238Y-59557419D02*
X196390476Y-59509800D01*
X196390476Y-59509800D02*
X196438095Y-59462180D01*
X196438095Y-59462180D02*
X196485714Y-59366942D01*
X196485714Y-59366942D02*
X196485714Y-59128847D01*
X196485714Y-59128847D02*
X196438095Y-59033609D01*
X196438095Y-59033609D02*
X196390476Y-58985990D01*
X196390476Y-58985990D02*
X196295238Y-58938371D01*
X196295238Y-58938371D02*
X196104762Y-58938371D01*
X196104762Y-58938371D02*
X196009524Y-58985990D01*
X196009524Y-58985990D02*
X195961905Y-59033609D01*
X195961905Y-59033609D02*
X195914286Y-59128847D01*
X162061905Y-59657419D02*
X162061905Y-58657419D01*
X162061905Y-58657419D02*
X162300000Y-58657419D01*
X162300000Y-58657419D02*
X162442857Y-58705038D01*
X162442857Y-58705038D02*
X162538095Y-58800276D01*
X162538095Y-58800276D02*
X162585714Y-58895514D01*
X162585714Y-58895514D02*
X162633333Y-59085990D01*
X162633333Y-59085990D02*
X162633333Y-59228847D01*
X162633333Y-59228847D02*
X162585714Y-59419323D01*
X162585714Y-59419323D02*
X162538095Y-59514561D01*
X162538095Y-59514561D02*
X162442857Y-59609800D01*
X162442857Y-59609800D02*
X162300000Y-59657419D01*
X162300000Y-59657419D02*
X162061905Y-59657419D01*
X163490476Y-58990752D02*
X163490476Y-59657419D01*
X163252381Y-58609800D02*
X163014286Y-59324085D01*
X163014286Y-59324085D02*
X163633333Y-59324085D01*
X182061905Y-59657419D02*
X182061905Y-58657419D01*
X182061905Y-58657419D02*
X182300000Y-58657419D01*
X182300000Y-58657419D02*
X182442857Y-58705038D01*
X182442857Y-58705038D02*
X182538095Y-58800276D01*
X182538095Y-58800276D02*
X182585714Y-58895514D01*
X182585714Y-58895514D02*
X182633333Y-59085990D01*
X182633333Y-59085990D02*
X182633333Y-59228847D01*
X182633333Y-59228847D02*
X182585714Y-59419323D01*
X182585714Y-59419323D02*
X182538095Y-59514561D01*
X182538095Y-59514561D02*
X182442857Y-59609800D01*
X182442857Y-59609800D02*
X182300000Y-59657419D01*
X182300000Y-59657419D02*
X182061905Y-59657419D01*
X183538095Y-58657419D02*
X183061905Y-58657419D01*
X183061905Y-58657419D02*
X183014286Y-59133609D01*
X183014286Y-59133609D02*
X183061905Y-59085990D01*
X183061905Y-59085990D02*
X183157143Y-59038371D01*
X183157143Y-59038371D02*
X183395238Y-59038371D01*
X183395238Y-59038371D02*
X183490476Y-59085990D01*
X183490476Y-59085990D02*
X183538095Y-59133609D01*
X183538095Y-59133609D02*
X183585714Y-59228847D01*
X183585714Y-59228847D02*
X183585714Y-59466942D01*
X183585714Y-59466942D02*
X183538095Y-59562180D01*
X183538095Y-59562180D02*
X183490476Y-59609800D01*
X183490476Y-59609800D02*
X183395238Y-59657419D01*
X183395238Y-59657419D02*
X183157143Y-59657419D01*
X183157143Y-59657419D02*
X183061905Y-59609800D01*
X183061905Y-59609800D02*
X183014286Y-59562180D01*
D10*
X146166666Y-70354819D02*
X145833333Y-69878628D01*
X145595238Y-70354819D02*
X145595238Y-69354819D01*
X145595238Y-69354819D02*
X145976190Y-69354819D01*
X145976190Y-69354819D02*
X146071428Y-69402438D01*
X146071428Y-69402438D02*
X146119047Y-69450057D01*
X146119047Y-69450057D02*
X146166666Y-69545295D01*
X146166666Y-69545295D02*
X146166666Y-69688152D01*
X146166666Y-69688152D02*
X146119047Y-69783390D01*
X146119047Y-69783390D02*
X146071428Y-69831009D01*
X146071428Y-69831009D02*
X145976190Y-69878628D01*
X145976190Y-69878628D02*
X145595238Y-69878628D01*
X146595238Y-69831009D02*
X146928571Y-69831009D01*
X147071428Y-70354819D02*
X146595238Y-70354819D01*
X146595238Y-70354819D02*
X146595238Y-69354819D01*
X146595238Y-69354819D02*
X147071428Y-69354819D01*
X147833333Y-69831009D02*
X147500000Y-69831009D01*
X147500000Y-70354819D02*
X147500000Y-69354819D01*
X147500000Y-69354819D02*
X147976190Y-69354819D01*
X148500000Y-69354819D02*
X148500000Y-69592914D01*
X148261905Y-69497676D02*
X148500000Y-69592914D01*
X148500000Y-69592914D02*
X148738095Y-69497676D01*
X148357143Y-69783390D02*
X148500000Y-69592914D01*
X148500000Y-69592914D02*
X148642857Y-69783390D01*
X149261905Y-69354819D02*
X149261905Y-69592914D01*
X149023810Y-69497676D02*
X149261905Y-69592914D01*
X149261905Y-69592914D02*
X149500000Y-69497676D01*
X149119048Y-69783390D02*
X149261905Y-69592914D01*
X149261905Y-69592914D02*
X149404762Y-69783390D01*
D12*
%TO.C,R1*%
X159472936Y-58465000D02*
X159927064Y-58465000D01*
X159472936Y-59935000D02*
X159927064Y-59935000D01*
%TO.C,D2*%
D11*
X149500000Y-43980000D02*
X172500000Y-43980000D01*
X172500000Y-57980000D01*
X149500000Y-57980000D01*
X149500000Y-43980000D01*
X151000000Y-46480000D02*
X151500000Y-46480000D01*
X151500000Y-50480000D01*
X151000000Y-50480000D01*
X151000000Y-46480000D01*
X151000000Y-50980000D02*
X151500000Y-50980000D01*
X151500000Y-54980000D01*
X151000000Y-54980000D01*
X151000000Y-50980000D01*
X151500000Y-45980000D02*
X155500000Y-45980000D01*
X155500000Y-46480000D01*
X151500000Y-46480000D01*
X151500000Y-45980000D01*
X151500000Y-50480000D02*
X155500000Y-50480000D01*
X155500000Y-50980000D01*
X151500000Y-50980000D01*
X151500000Y-50480000D01*
X151500000Y-54980000D02*
X155500000Y-54980000D01*
X155500000Y-55480000D01*
X151500000Y-55480000D01*
X151500000Y-54980000D01*
X155500000Y-46480000D02*
X156000000Y-46480000D01*
X156000000Y-50480000D01*
X155500000Y-50480000D01*
X155500000Y-46480000D01*
X155500000Y-50980000D02*
X156000000Y-50980000D01*
X156000000Y-54980000D01*
X155500000Y-54980000D01*
X155500000Y-50980000D01*
X158000000Y-46480000D02*
X158500000Y-46480000D01*
X158500000Y-50480000D01*
X158000000Y-50480000D01*
X158000000Y-46480000D01*
X158000000Y-50980000D02*
X158500000Y-50980000D01*
X158500000Y-54980000D01*
X158000000Y-54980000D01*
X158000000Y-50980000D01*
X158500000Y-45980000D02*
X162500000Y-45980000D01*
X162500000Y-46480000D01*
X158500000Y-46480000D01*
X158500000Y-45980000D01*
X158500000Y-50480000D02*
X162500000Y-50480000D01*
X162500000Y-50980000D01*
X158500000Y-50980000D01*
X158500000Y-50480000D01*
X158500000Y-54980000D02*
X162500000Y-54980000D01*
X162500000Y-55480000D01*
X158500000Y-55480000D01*
X158500000Y-54980000D01*
X162500000Y-46480000D02*
X163000000Y-46480000D01*
X163000000Y-50480000D01*
X162500000Y-50480000D01*
X162500000Y-46480000D01*
X162500000Y-50980000D02*
X163000000Y-50980000D01*
X163000000Y-54980000D01*
X162500000Y-54980000D01*
X162500000Y-50980000D01*
X165000000Y-46480000D02*
X165500000Y-46480000D01*
X165500000Y-50480000D01*
X165000000Y-50480000D01*
X165000000Y-46480000D01*
X165000000Y-50980000D02*
X165500000Y-50980000D01*
X165500000Y-54980000D01*
X165000000Y-54980000D01*
X165000000Y-50980000D01*
X165500000Y-45980000D02*
X169500000Y-45980000D01*
X169500000Y-46480000D01*
X165500000Y-46480000D01*
X165500000Y-45980000D01*
X165500000Y-50480000D02*
X169500000Y-50480000D01*
X169500000Y-50980000D01*
X165500000Y-50980000D01*
X165500000Y-50480000D01*
X165500000Y-54980000D02*
X169500000Y-54980000D01*
X169500000Y-55480000D01*
X165500000Y-55480000D01*
X165500000Y-54980000D01*
X169500000Y-46480000D02*
X170000000Y-46480000D01*
X170000000Y-50480000D01*
X169500000Y-50480000D01*
X169500000Y-46480000D01*
X169500000Y-50980000D02*
X170000000Y-50980000D01*
X170000000Y-54980000D01*
X169500000Y-54980000D01*
X169500000Y-50980000D01*
X157500000Y-54980000D02*
G75*
G02*
X156500000Y-54980000I-500000J0D01*
G01*
X156500000Y-54980000D02*
G75*
G02*
X157500000Y-54980000I500000J0D01*
G01*
X164500000Y-54980000D02*
G75*
G02*
X163500000Y-54980000I-500000J0D01*
G01*
X163500000Y-54980000D02*
G75*
G02*
X164500000Y-54980000I500000J0D01*
G01*
X171500000Y-54980000D02*
G75*
G02*
X170500000Y-54980000I-500000J0D01*
G01*
X170500000Y-54980000D02*
G75*
G02*
X171500000Y-54980000I500000J0D01*
G01*
%TO.C,D8*%
X163900000Y-60200000D02*
X168900000Y-60200000D01*
X168900000Y-62200000D01*
X163900000Y-62200000D01*
X163900000Y-60200000D01*
%TO.C,D10*%
X189600000Y-60200000D02*
X194600000Y-60200000D01*
X194600000Y-62200000D01*
X189600000Y-62200000D01*
X189600000Y-60200000D01*
%TO.C,D1*%
X172600000Y-43980000D02*
X195600000Y-43980000D01*
X195600000Y-57980000D01*
X172600000Y-57980000D01*
X172600000Y-43980000D01*
X174100000Y-46480000D02*
X174600000Y-46480000D01*
X174600000Y-50480000D01*
X174100000Y-50480000D01*
X174100000Y-46480000D01*
X174100000Y-50980000D02*
X174600000Y-50980000D01*
X174600000Y-54980000D01*
X174100000Y-54980000D01*
X174100000Y-50980000D01*
X174600000Y-45980000D02*
X178600000Y-45980000D01*
X178600000Y-46480000D01*
X174600000Y-46480000D01*
X174600000Y-45980000D01*
X174600000Y-50480000D02*
X178600000Y-50480000D01*
X178600000Y-50980000D01*
X174600000Y-50980000D01*
X174600000Y-50480000D01*
X174600000Y-54980000D02*
X178600000Y-54980000D01*
X178600000Y-55480000D01*
X174600000Y-55480000D01*
X174600000Y-54980000D01*
X178600000Y-46480000D02*
X179100000Y-46480000D01*
X179100000Y-50480000D01*
X178600000Y-50480000D01*
X178600000Y-46480000D01*
X178600000Y-50980000D02*
X179100000Y-50980000D01*
X179100000Y-54980000D01*
X178600000Y-54980000D01*
X178600000Y-50980000D01*
X181100000Y-46480000D02*
X181600000Y-46480000D01*
X181600000Y-50480000D01*
X181100000Y-50480000D01*
X181100000Y-46480000D01*
X181100000Y-50980000D02*
X181600000Y-50980000D01*
X181600000Y-54980000D01*
X181100000Y-54980000D01*
X181100000Y-50980000D01*
X181600000Y-45980000D02*
X185600000Y-45980000D01*
X185600000Y-46480000D01*
X181600000Y-46480000D01*
X181600000Y-45980000D01*
X181600000Y-50480000D02*
X185600000Y-50480000D01*
X185600000Y-50980000D01*
X181600000Y-50980000D01*
X181600000Y-50480000D01*
X181600000Y-54980000D02*
X185600000Y-54980000D01*
X185600000Y-55480000D01*
X181600000Y-55480000D01*
X181600000Y-54980000D01*
X185600000Y-46480000D02*
X186100000Y-46480000D01*
X186100000Y-50480000D01*
X185600000Y-50480000D01*
X185600000Y-46480000D01*
X185600000Y-50980000D02*
X186100000Y-50980000D01*
X186100000Y-54980000D01*
X185600000Y-54980000D01*
X185600000Y-50980000D01*
X188100000Y-46480000D02*
X188600000Y-46480000D01*
X188600000Y-50480000D01*
X188100000Y-50480000D01*
X188100000Y-46480000D01*
X188100000Y-50980000D02*
X188600000Y-50980000D01*
X188600000Y-54980000D01*
X188100000Y-54980000D01*
X188100000Y-50980000D01*
X188600000Y-45980000D02*
X192600000Y-45980000D01*
X192600000Y-46480000D01*
X188600000Y-46480000D01*
X188600000Y-45980000D01*
X188600000Y-50480000D02*
X192600000Y-50480000D01*
X192600000Y-50980000D01*
X188600000Y-50980000D01*
X188600000Y-50480000D01*
X188600000Y-54980000D02*
X192600000Y-54980000D01*
X192600000Y-55480000D01*
X188600000Y-55480000D01*
X188600000Y-54980000D01*
X192600000Y-46480000D02*
X193100000Y-46480000D01*
X193100000Y-50480000D01*
X192600000Y-50480000D01*
X192600000Y-46480000D01*
X192600000Y-50980000D02*
X193100000Y-50980000D01*
X193100000Y-54980000D01*
X192600000Y-54980000D01*
X192600000Y-50980000D01*
X180600000Y-54980000D02*
G75*
G02*
X179600000Y-54980000I-500000J0D01*
G01*
X179600000Y-54980000D02*
G75*
G02*
X180600000Y-54980000I500000J0D01*
G01*
X187600000Y-54980000D02*
G75*
G02*
X186600000Y-54980000I-500000J0D01*
G01*
X186600000Y-54980000D02*
G75*
G02*
X187600000Y-54980000I500000J0D01*
G01*
X194600000Y-54980000D02*
G75*
G02*
X193600000Y-54980000I-500000J0D01*
G01*
X193600000Y-54980000D02*
G75*
G02*
X194600000Y-54980000I500000J0D01*
G01*
%TO.C,D7*%
X150500000Y-60200000D02*
X155500000Y-60200000D01*
X155500000Y-62200000D01*
X150500000Y-62200000D01*
X150500000Y-60200000D01*
D12*
%TO.C,R4*%
X185572936Y-60665000D02*
X186027064Y-60665000D01*
X185572936Y-62135000D02*
X186027064Y-62135000D01*
%TO.C,D3*%
D11*
X150500000Y-58100000D02*
X155500000Y-58100000D01*
X155500000Y-60100000D01*
X150500000Y-60100000D01*
X150500000Y-58100000D01*
D12*
%TO.C,R3*%
X185572936Y-58465000D02*
X186027064Y-58465000D01*
X185572936Y-59935000D02*
X186027064Y-59935000D01*
%TO.C,R2*%
X159472936Y-60765000D02*
X159927064Y-60765000D01*
X159472936Y-62235000D02*
X159927064Y-62235000D01*
%TO.C,D9*%
D11*
X176800000Y-60200000D02*
X181800000Y-60200000D01*
X181800000Y-62200000D01*
X176800000Y-62200000D01*
X176800000Y-60200000D01*
%TO.C,D6*%
X189600000Y-58100000D02*
X194600000Y-58100000D01*
X194600000Y-60100000D01*
X189600000Y-60100000D01*
X189600000Y-58100000D01*
%TO.C,D4*%
X163900000Y-58100000D02*
X168900000Y-58100000D01*
X168900000Y-60100000D01*
X163900000Y-60100000D01*
X163900000Y-58100000D01*
%TO.C,D5*%
X176800000Y-58100000D02*
X181800000Y-58100000D01*
X181800000Y-60100000D01*
X176800000Y-60100000D01*
X176800000Y-58100000D01*
%TD*%
M02*
