M48
; DRILL file {KiCad 9.0.0} date 2025-05-14T14:17:19+0200
; FORMAT={-:-/ absolute / metric / decimal}
; #@! TF.CreationDate,2025-05-14T14:17:19+02:00
; #@! TF.GenerationSoftware,Kicad,Pcbnew,9.0.0
; #@! TF.FileFunction,Plated,1,4,PTH
FMAT,2
METRIC
; #@! TA.AperFunction,Plated,PTH,ViaDrill
T1C0.300
; #@! TA.AperFunction,Plated,PTH,ComponentDrill
T2C0.500
; #@! TA.AperFunction,Plated,PTH,ComponentDrill
T3C0.800
; #@! TA.AperFunction,Plated,PTH,ComponentDrill
T4C1.000
%
G90
G05
T1
X146.3Y-49.8
X146.98Y-50.52
X146.98Y-51.44
X147.0Y-52.24
X147.0Y-53.04
X147.03Y-53.839
X147.49Y-49.68
X148.81Y-48.15
X148.96Y-53.68
X150.19Y-48.27
X151.55Y-50.4
X152.86Y-45.57
X153.49Y-47.09
X155.3Y-54.71
X155.445Y-48.205
X156.0Y-53.72
X156.01Y-52.91
X156.76Y-61.48
X156.93Y-48.36
X156.94Y-54.13
X157.47Y-52.76
X157.49Y-51.85
X157.76Y-59.17
X158.26Y-49.67
X158.48Y-50.44
X158.51Y-52.07
X159.48Y-53.271
X159.48Y-54.74
X162.02Y-50.89
X162.592Y-52.661
X164.56Y-51.54
X165.63Y-52.07
X167.1Y-47.76
X168.77Y-62.96
X168.79Y-63.98
X168.94Y-49.07
X169.4Y-61.8
X171.33Y-52.66
X172.51Y-47.04
X175.8Y-49.0
X176.7Y-49.0
X177.5Y-52.61
X180.04Y-48.36
X180.04Y-53.881
X182.58Y-53.28
X182.58Y-54.76
X182.89Y-59.2
X183.34Y-50.33
X184.15Y-49.62
X185.14Y-55.0
X185.195Y-49.625
X187.67Y-52.04
X189.66Y-51.38
X190.22Y-47.76
X191.31Y-52.68
X191.61Y-56.17
X194.75Y-51.05
X195.33Y-46.3
X196.78Y-47.16
X197.38Y-49.8
X197.71Y-48.37
X198.08Y-55.04
X198.81Y-51.71
X198.83Y-57.33
X199.9Y-52.39
X200.22Y-56.56
X200.88Y-47.78
X200.89Y-51.75
X200.95Y-52.83
X203.74Y-53.27
X203.762Y-54.404
T2
X151.74Y-59.1
X151.74Y-61.2
X154.24Y-59.1
X154.24Y-61.2
X165.14Y-59.1
X165.14Y-61.2
X167.64Y-59.1
X167.64Y-61.2
X178.04Y-59.1
X178.04Y-61.2
X180.54Y-59.1
X180.54Y-61.2
X190.84Y-59.1
X190.84Y-61.2
X193.34Y-59.1
X193.34Y-61.2
T3
X154.4Y-45.9
X154.4Y-56.06
X156.94Y-45.9
X156.94Y-56.06
X159.48Y-45.9
X159.48Y-56.06
X162.02Y-45.9
X162.02Y-56.06
X164.56Y-45.9
X164.56Y-56.06
X167.1Y-45.9
X167.1Y-56.06
X177.5Y-45.9
X177.5Y-56.06
X180.04Y-45.9
X180.04Y-56.06
X182.58Y-45.9
X182.58Y-56.06
X185.12Y-45.9
X185.12Y-56.06
X187.66Y-45.9
X187.66Y-56.06
X190.2Y-45.9
X190.2Y-56.06
T4
X145.46Y-59.2
X148.0Y-59.2
X151.22Y-42.5
X153.76Y-42.5
X156.3Y-42.5
X158.84Y-42.5
X161.38Y-42.5
X163.92Y-42.5
X166.46Y-42.5
X169.0Y-42.5
X171.325Y-59.245
X171.325Y-61.785
X171.325Y-64.325
X171.54Y-42.5
X173.865Y-59.245
X173.865Y-61.785
X173.865Y-64.325
X174.08Y-42.5
X176.62Y-42.5
X179.16Y-42.5
X181.7Y-42.5
X187.96Y-42.5
X190.5Y-42.5
M30
