%TF.GenerationSoftware,KiCad,Pcbnew,9.0.0*%
%TF.CreationDate,2025-05-14T14:17:17+02:00*%
%TF.ProjectId,Fluke_8050a_TM1637_Display_PCB,466c756b-655f-4383-9035-30615f544d31,rev?*%
%TF.SameCoordinates,Original*%
%TF.FileFunction,Paste,Bot*%
%TF.FilePolarity,Positive*%
%FSLAX46Y46*%
G04 Gerber Fmt 4.6, Leading zero omitted, Abs format (unit mm)*
G04 Created by KiCad (PCBNEW 9.0.0) date 2025-05-14 14:17:17*
%MOMM*%
%LPD*%
G01*
G04 APERTURE LIST*
G04 Aperture macros list*
%AMRoundRect*
0 Rectangle with rounded corners*
0 $1 Rounding radius*
0 $2 $3 $4 $5 $6 $7 $8 $9 X,Y pos of 4 corners*
0 Add a 4 corners polygon primitive as box body*
4,1,4,$2,$3,$4,$5,$6,$7,$8,$9,$2,$3,0*
0 Add four circle primitives for the rounded corners*
1,1,$1+$1,$2,$3*
1,1,$1+$1,$4,$5*
1,1,$1+$1,$6,$7*
1,1,$1+$1,$8,$9*
0 Add four rect primitives between the rounded corners*
20,1,$1+$1,$2,$3,$4,$5,0*
20,1,$1+$1,$4,$5,$6,$7,0*
20,1,$1+$1,$6,$7,$8,$9,0*
20,1,$1+$1,$8,$9,$2,$3,0*%
G04 Aperture macros list end*
%ADD10RoundRect,0.150000X0.800000X0.150000X-0.800000X0.150000X-0.800000X-0.150000X0.800000X-0.150000X0*%
%ADD11RoundRect,0.250000X-0.262500X-0.450000X0.262500X-0.450000X0.262500X0.450000X-0.262500X0.450000X0*%
%ADD12RoundRect,0.250000X0.550000X-1.050000X0.550000X1.050000X-0.550000X1.050000X-0.550000X-1.050000X0*%
%ADD13RoundRect,0.125000X0.125000X-0.625000X0.125000X0.625000X-0.125000X0.625000X-0.125000X-0.625000X0*%
%ADD14RoundRect,0.125000X0.625000X-0.125000X0.625000X0.125000X-0.625000X0.125000X-0.625000X-0.125000X0*%
G04 APERTURE END LIST*
D10*
%TO.C,U1*%
X202300000Y-45385000D03*
X202300000Y-46655000D03*
X202300000Y-47925000D03*
X202300000Y-49195000D03*
X202300000Y-50465000D03*
X202300000Y-51735000D03*
X202300000Y-53005000D03*
X202300000Y-54275000D03*
X202300000Y-55545000D03*
X202300000Y-56815000D03*
X193100000Y-56815000D03*
X193100000Y-55545000D03*
X193100000Y-54275000D03*
X193100000Y-53005000D03*
X193100000Y-51735000D03*
X193100000Y-50465000D03*
X193100000Y-49195000D03*
X193100000Y-47925000D03*
X193100000Y-46655000D03*
X193100000Y-45385000D03*
%TD*%
D11*
%TO.C,R6*%
X171637500Y-48550000D03*
X173462500Y-48550000D03*
%TD*%
D12*
%TO.C,C1*%
X160850000Y-62400000D03*
X160850000Y-58800000D03*
%TD*%
D11*
%TO.C,R5*%
X171637500Y-51150000D03*
X173462500Y-51150000D03*
%TD*%
D13*
%TO.C,U2*%
X152125000Y-55215000D03*
X151325000Y-55215000D03*
X150525000Y-55215000D03*
X149725000Y-55215000D03*
X148925000Y-55215000D03*
X148125000Y-55215000D03*
X147325000Y-55215000D03*
X146525000Y-55215000D03*
D14*
X145150000Y-53840000D03*
X145150000Y-53040000D03*
X145150000Y-52240000D03*
X145150000Y-51440000D03*
X145150000Y-50640000D03*
X145150000Y-49840000D03*
X145150000Y-49040000D03*
X145150000Y-48240000D03*
D13*
X146525000Y-46865000D03*
X147325000Y-46865000D03*
X148125000Y-46865000D03*
X148925000Y-46865000D03*
X149725000Y-46865000D03*
X150525000Y-46865000D03*
X151325000Y-46865000D03*
X152125000Y-46865000D03*
D14*
X153500000Y-48240000D03*
X153500000Y-49040000D03*
X153500000Y-49840000D03*
X153500000Y-50640000D03*
X153500000Y-51440000D03*
X153500000Y-52240000D03*
X153500000Y-53040000D03*
X153500000Y-53840000D03*
%TD*%
M02*
