%TF.GenerationSoftware,KiCad,Pcbnew,9.0.0*%
%TF.CreationDate,2025-05-14T14:17:17+02:00*%
%TF.ProjectId,Fluke_8050a_TM1637_Display_PCB,466c756b-655f-4383-9035-30615f544d31,rev?*%
%TF.SameCoordinates,Original*%
%TF.FileFunction,Legend,Bot*%
%TF.FilePolarity,Positive*%
%FSLAX46Y46*%
G04 Gerber Fmt 4.6, Leading zero omitted, Abs format (unit mm)*
G04 Created by KiCad (PCBNEW 9.0.0) date 2025-05-14 14:17:17*
%MOMM*%
%LPD*%
G01*
G04 APERTURE LIST*
%ADD10C,0.100000*%
%ADD11C,0.150000*%
%ADD12C,0.120000*%
G04 APERTURE END LIST*
D10*
X204338972Y-64022419D02*
X204005639Y-65022419D01*
X204005639Y-65022419D02*
X203672306Y-64022419D01*
X202815163Y-65022419D02*
X203386591Y-65022419D01*
X203100877Y-65022419D02*
X203100877Y-64022419D01*
X203100877Y-64022419D02*
X203196115Y-64165276D01*
X203196115Y-64165276D02*
X203291353Y-64260514D01*
X203291353Y-64260514D02*
X203386591Y-64308133D01*
X202386591Y-64927180D02*
X202338972Y-64974800D01*
X202338972Y-64974800D02*
X202386591Y-65022419D01*
X202386591Y-65022419D02*
X202434210Y-64974800D01*
X202434210Y-64974800D02*
X202386591Y-64927180D01*
X202386591Y-64927180D02*
X202386591Y-65022419D01*
X201719925Y-64022419D02*
X201624687Y-64022419D01*
X201624687Y-64022419D02*
X201529449Y-64070038D01*
X201529449Y-64070038D02*
X201481830Y-64117657D01*
X201481830Y-64117657D02*
X201434211Y-64212895D01*
X201434211Y-64212895D02*
X201386592Y-64403371D01*
X201386592Y-64403371D02*
X201386592Y-64641466D01*
X201386592Y-64641466D02*
X201434211Y-64831942D01*
X201434211Y-64831942D02*
X201481830Y-64927180D01*
X201481830Y-64927180D02*
X201529449Y-64974800D01*
X201529449Y-64974800D02*
X201624687Y-65022419D01*
X201624687Y-65022419D02*
X201719925Y-65022419D01*
X201719925Y-65022419D02*
X201815163Y-64974800D01*
X201815163Y-64974800D02*
X201862782Y-64927180D01*
X201862782Y-64927180D02*
X201910401Y-64831942D01*
X201910401Y-64831942D02*
X201958020Y-64641466D01*
X201958020Y-64641466D02*
X201958020Y-64403371D01*
X201958020Y-64403371D02*
X201910401Y-64212895D01*
X201910401Y-64212895D02*
X201862782Y-64117657D01*
X201862782Y-64117657D02*
X201815163Y-64070038D01*
X201815163Y-64070038D02*
X201719925Y-64022419D01*
X200767544Y-64022419D02*
X200672306Y-64022419D01*
X200672306Y-64022419D02*
X200577068Y-64070038D01*
X200577068Y-64070038D02*
X200529449Y-64117657D01*
X200529449Y-64117657D02*
X200481830Y-64212895D01*
X200481830Y-64212895D02*
X200434211Y-64403371D01*
X200434211Y-64403371D02*
X200434211Y-64641466D01*
X200434211Y-64641466D02*
X200481830Y-64831942D01*
X200481830Y-64831942D02*
X200529449Y-64927180D01*
X200529449Y-64927180D02*
X200577068Y-64974800D01*
X200577068Y-64974800D02*
X200672306Y-65022419D01*
X200672306Y-65022419D02*
X200767544Y-65022419D01*
X200767544Y-65022419D02*
X200862782Y-64974800D01*
X200862782Y-64974800D02*
X200910401Y-64927180D01*
X200910401Y-64927180D02*
X200958020Y-64831942D01*
X200958020Y-64831942D02*
X201005639Y-64641466D01*
X201005639Y-64641466D02*
X201005639Y-64403371D01*
X201005639Y-64403371D02*
X200958020Y-64212895D01*
X200958020Y-64212895D02*
X200910401Y-64117657D01*
X200910401Y-64117657D02*
X200862782Y-64070038D01*
X200862782Y-64070038D02*
X200767544Y-64022419D01*
X194212782Y-64338609D02*
X194546115Y-64338609D01*
X194546115Y-64862419D02*
X194546115Y-63862419D01*
X194546115Y-63862419D02*
X194069925Y-63862419D01*
X193546115Y-64862419D02*
X193641353Y-64814800D01*
X193641353Y-64814800D02*
X193688972Y-64719561D01*
X193688972Y-64719561D02*
X193688972Y-63862419D01*
X192736591Y-64195752D02*
X192736591Y-64862419D01*
X193165162Y-64195752D02*
X193165162Y-64719561D01*
X193165162Y-64719561D02*
X193117543Y-64814800D01*
X193117543Y-64814800D02*
X193022305Y-64862419D01*
X193022305Y-64862419D02*
X192879448Y-64862419D01*
X192879448Y-64862419D02*
X192784210Y-64814800D01*
X192784210Y-64814800D02*
X192736591Y-64767180D01*
X192260400Y-64862419D02*
X192260400Y-63862419D01*
X192165162Y-64481466D02*
X191879448Y-64862419D01*
X191879448Y-64195752D02*
X192260400Y-64576704D01*
X191069924Y-64814800D02*
X191165162Y-64862419D01*
X191165162Y-64862419D02*
X191355638Y-64862419D01*
X191355638Y-64862419D02*
X191450876Y-64814800D01*
X191450876Y-64814800D02*
X191498495Y-64719561D01*
X191498495Y-64719561D02*
X191498495Y-64338609D01*
X191498495Y-64338609D02*
X191450876Y-64243371D01*
X191450876Y-64243371D02*
X191355638Y-64195752D01*
X191355638Y-64195752D02*
X191165162Y-64195752D01*
X191165162Y-64195752D02*
X191069924Y-64243371D01*
X191069924Y-64243371D02*
X191022305Y-64338609D01*
X191022305Y-64338609D02*
X191022305Y-64433847D01*
X191022305Y-64433847D02*
X191498495Y-64529085D01*
X189688971Y-64290990D02*
X189784209Y-64243371D01*
X189784209Y-64243371D02*
X189831828Y-64195752D01*
X189831828Y-64195752D02*
X189879447Y-64100514D01*
X189879447Y-64100514D02*
X189879447Y-64052895D01*
X189879447Y-64052895D02*
X189831828Y-63957657D01*
X189831828Y-63957657D02*
X189784209Y-63910038D01*
X189784209Y-63910038D02*
X189688971Y-63862419D01*
X189688971Y-63862419D02*
X189498495Y-63862419D01*
X189498495Y-63862419D02*
X189403257Y-63910038D01*
X189403257Y-63910038D02*
X189355638Y-63957657D01*
X189355638Y-63957657D02*
X189308019Y-64052895D01*
X189308019Y-64052895D02*
X189308019Y-64100514D01*
X189308019Y-64100514D02*
X189355638Y-64195752D01*
X189355638Y-64195752D02*
X189403257Y-64243371D01*
X189403257Y-64243371D02*
X189498495Y-64290990D01*
X189498495Y-64290990D02*
X189688971Y-64290990D01*
X189688971Y-64290990D02*
X189784209Y-64338609D01*
X189784209Y-64338609D02*
X189831828Y-64386228D01*
X189831828Y-64386228D02*
X189879447Y-64481466D01*
X189879447Y-64481466D02*
X189879447Y-64671942D01*
X189879447Y-64671942D02*
X189831828Y-64767180D01*
X189831828Y-64767180D02*
X189784209Y-64814800D01*
X189784209Y-64814800D02*
X189688971Y-64862419D01*
X189688971Y-64862419D02*
X189498495Y-64862419D01*
X189498495Y-64862419D02*
X189403257Y-64814800D01*
X189403257Y-64814800D02*
X189355638Y-64767180D01*
X189355638Y-64767180D02*
X189308019Y-64671942D01*
X189308019Y-64671942D02*
X189308019Y-64481466D01*
X189308019Y-64481466D02*
X189355638Y-64386228D01*
X189355638Y-64386228D02*
X189403257Y-64338609D01*
X189403257Y-64338609D02*
X189498495Y-64290990D01*
X188688971Y-63862419D02*
X188593733Y-63862419D01*
X188593733Y-63862419D02*
X188498495Y-63910038D01*
X188498495Y-63910038D02*
X188450876Y-63957657D01*
X188450876Y-63957657D02*
X188403257Y-64052895D01*
X188403257Y-64052895D02*
X188355638Y-64243371D01*
X188355638Y-64243371D02*
X188355638Y-64481466D01*
X188355638Y-64481466D02*
X188403257Y-64671942D01*
X188403257Y-64671942D02*
X188450876Y-64767180D01*
X188450876Y-64767180D02*
X188498495Y-64814800D01*
X188498495Y-64814800D02*
X188593733Y-64862419D01*
X188593733Y-64862419D02*
X188688971Y-64862419D01*
X188688971Y-64862419D02*
X188784209Y-64814800D01*
X188784209Y-64814800D02*
X188831828Y-64767180D01*
X188831828Y-64767180D02*
X188879447Y-64671942D01*
X188879447Y-64671942D02*
X188927066Y-64481466D01*
X188927066Y-64481466D02*
X188927066Y-64243371D01*
X188927066Y-64243371D02*
X188879447Y-64052895D01*
X188879447Y-64052895D02*
X188831828Y-63957657D01*
X188831828Y-63957657D02*
X188784209Y-63910038D01*
X188784209Y-63910038D02*
X188688971Y-63862419D01*
X187450876Y-63862419D02*
X187927066Y-63862419D01*
X187927066Y-63862419D02*
X187974685Y-64338609D01*
X187974685Y-64338609D02*
X187927066Y-64290990D01*
X187927066Y-64290990D02*
X187831828Y-64243371D01*
X187831828Y-64243371D02*
X187593733Y-64243371D01*
X187593733Y-64243371D02*
X187498495Y-64290990D01*
X187498495Y-64290990D02*
X187450876Y-64338609D01*
X187450876Y-64338609D02*
X187403257Y-64433847D01*
X187403257Y-64433847D02*
X187403257Y-64671942D01*
X187403257Y-64671942D02*
X187450876Y-64767180D01*
X187450876Y-64767180D02*
X187498495Y-64814800D01*
X187498495Y-64814800D02*
X187593733Y-64862419D01*
X187593733Y-64862419D02*
X187831828Y-64862419D01*
X187831828Y-64862419D02*
X187927066Y-64814800D01*
X187927066Y-64814800D02*
X187974685Y-64767180D01*
X186784209Y-63862419D02*
X186688971Y-63862419D01*
X186688971Y-63862419D02*
X186593733Y-63910038D01*
X186593733Y-63910038D02*
X186546114Y-63957657D01*
X186546114Y-63957657D02*
X186498495Y-64052895D01*
X186498495Y-64052895D02*
X186450876Y-64243371D01*
X186450876Y-64243371D02*
X186450876Y-64481466D01*
X186450876Y-64481466D02*
X186498495Y-64671942D01*
X186498495Y-64671942D02*
X186546114Y-64767180D01*
X186546114Y-64767180D02*
X186593733Y-64814800D01*
X186593733Y-64814800D02*
X186688971Y-64862419D01*
X186688971Y-64862419D02*
X186784209Y-64862419D01*
X186784209Y-64862419D02*
X186879447Y-64814800D01*
X186879447Y-64814800D02*
X186927066Y-64767180D01*
X186927066Y-64767180D02*
X186974685Y-64671942D01*
X186974685Y-64671942D02*
X187022304Y-64481466D01*
X187022304Y-64481466D02*
X187022304Y-64243371D01*
X187022304Y-64243371D02*
X186974685Y-64052895D01*
X186974685Y-64052895D02*
X186927066Y-63957657D01*
X186927066Y-63957657D02*
X186879447Y-63910038D01*
X186879447Y-63910038D02*
X186784209Y-63862419D01*
X185593733Y-64862419D02*
X185593733Y-64338609D01*
X185593733Y-64338609D02*
X185641352Y-64243371D01*
X185641352Y-64243371D02*
X185736590Y-64195752D01*
X185736590Y-64195752D02*
X185927066Y-64195752D01*
X185927066Y-64195752D02*
X186022304Y-64243371D01*
X185593733Y-64814800D02*
X185688971Y-64862419D01*
X185688971Y-64862419D02*
X185927066Y-64862419D01*
X185927066Y-64862419D02*
X186022304Y-64814800D01*
X186022304Y-64814800D02*
X186069923Y-64719561D01*
X186069923Y-64719561D02*
X186069923Y-64624323D01*
X186069923Y-64624323D02*
X186022304Y-64529085D01*
X186022304Y-64529085D02*
X185927066Y-64481466D01*
X185927066Y-64481466D02*
X185688971Y-64481466D01*
X185688971Y-64481466D02*
X185593733Y-64433847D01*
X183879447Y-64862419D02*
X184355637Y-64862419D01*
X184355637Y-64862419D02*
X184355637Y-63862419D01*
X183546113Y-64338609D02*
X183212780Y-64338609D01*
X183069923Y-64862419D02*
X183546113Y-64862419D01*
X183546113Y-64862419D02*
X183546113Y-63862419D01*
X183546113Y-63862419D02*
X183069923Y-63862419D01*
X182641351Y-64862419D02*
X182641351Y-63862419D01*
X182641351Y-63862419D02*
X182403256Y-63862419D01*
X182403256Y-63862419D02*
X182260399Y-63910038D01*
X182260399Y-63910038D02*
X182165161Y-64005276D01*
X182165161Y-64005276D02*
X182117542Y-64100514D01*
X182117542Y-64100514D02*
X182069923Y-64290990D01*
X182069923Y-64290990D02*
X182069923Y-64433847D01*
X182069923Y-64433847D02*
X182117542Y-64624323D01*
X182117542Y-64624323D02*
X182165161Y-64719561D01*
X182165161Y-64719561D02*
X182260399Y-64814800D01*
X182260399Y-64814800D02*
X182403256Y-64862419D01*
X182403256Y-64862419D02*
X182641351Y-64862419D01*
X180879446Y-64862419D02*
X180879446Y-63862419D01*
X180879446Y-63862419D02*
X180641351Y-63862419D01*
X180641351Y-63862419D02*
X180498494Y-63910038D01*
X180498494Y-63910038D02*
X180403256Y-64005276D01*
X180403256Y-64005276D02*
X180355637Y-64100514D01*
X180355637Y-64100514D02*
X180308018Y-64290990D01*
X180308018Y-64290990D02*
X180308018Y-64433847D01*
X180308018Y-64433847D02*
X180355637Y-64624323D01*
X180355637Y-64624323D02*
X180403256Y-64719561D01*
X180403256Y-64719561D02*
X180498494Y-64814800D01*
X180498494Y-64814800D02*
X180641351Y-64862419D01*
X180641351Y-64862419D02*
X180879446Y-64862419D01*
X179879446Y-64862419D02*
X179879446Y-64195752D01*
X179879446Y-63862419D02*
X179927065Y-63910038D01*
X179927065Y-63910038D02*
X179879446Y-63957657D01*
X179879446Y-63957657D02*
X179831827Y-63910038D01*
X179831827Y-63910038D02*
X179879446Y-63862419D01*
X179879446Y-63862419D02*
X179879446Y-63957657D01*
X179450875Y-64814800D02*
X179355637Y-64862419D01*
X179355637Y-64862419D02*
X179165161Y-64862419D01*
X179165161Y-64862419D02*
X179069923Y-64814800D01*
X179069923Y-64814800D02*
X179022304Y-64719561D01*
X179022304Y-64719561D02*
X179022304Y-64671942D01*
X179022304Y-64671942D02*
X179069923Y-64576704D01*
X179069923Y-64576704D02*
X179165161Y-64529085D01*
X179165161Y-64529085D02*
X179308018Y-64529085D01*
X179308018Y-64529085D02*
X179403256Y-64481466D01*
X179403256Y-64481466D02*
X179450875Y-64386228D01*
X179450875Y-64386228D02*
X179450875Y-64338609D01*
X179450875Y-64338609D02*
X179403256Y-64243371D01*
X179403256Y-64243371D02*
X179308018Y-64195752D01*
X179308018Y-64195752D02*
X179165161Y-64195752D01*
X179165161Y-64195752D02*
X179069923Y-64243371D01*
X178593732Y-64195752D02*
X178593732Y-65195752D01*
X178593732Y-64243371D02*
X178498494Y-64195752D01*
X178498494Y-64195752D02*
X178308018Y-64195752D01*
X178308018Y-64195752D02*
X178212780Y-64243371D01*
X178212780Y-64243371D02*
X178165161Y-64290990D01*
X178165161Y-64290990D02*
X178117542Y-64386228D01*
X178117542Y-64386228D02*
X178117542Y-64671942D01*
X178117542Y-64671942D02*
X178165161Y-64767180D01*
X178165161Y-64767180D02*
X178212780Y-64814800D01*
X178212780Y-64814800D02*
X178308018Y-64862419D01*
X178308018Y-64862419D02*
X178498494Y-64862419D01*
X178498494Y-64862419D02*
X178593732Y-64814800D01*
X177546113Y-64862419D02*
X177641351Y-64814800D01*
X177641351Y-64814800D02*
X177688970Y-64719561D01*
X177688970Y-64719561D02*
X177688970Y-63862419D01*
X176736589Y-64862419D02*
X176736589Y-64338609D01*
X176736589Y-64338609D02*
X176784208Y-64243371D01*
X176784208Y-64243371D02*
X176879446Y-64195752D01*
X176879446Y-64195752D02*
X177069922Y-64195752D01*
X177069922Y-64195752D02*
X177165160Y-64243371D01*
X176736589Y-64814800D02*
X176831827Y-64862419D01*
X176831827Y-64862419D02*
X177069922Y-64862419D01*
X177069922Y-64862419D02*
X177165160Y-64814800D01*
X177165160Y-64814800D02*
X177212779Y-64719561D01*
X177212779Y-64719561D02*
X177212779Y-64624323D01*
X177212779Y-64624323D02*
X177165160Y-64529085D01*
X177165160Y-64529085D02*
X177069922Y-64481466D01*
X177069922Y-64481466D02*
X176831827Y-64481466D01*
X176831827Y-64481466D02*
X176736589Y-64433847D01*
X176355636Y-64195752D02*
X176117541Y-64862419D01*
X175879446Y-64195752D02*
X176117541Y-64862419D01*
X176117541Y-64862419D02*
X176212779Y-65100514D01*
X176212779Y-65100514D02*
X176260398Y-65148133D01*
X176260398Y-65148133D02*
X176355636Y-65195752D01*
X169167306Y-64862419D02*
X169738734Y-64862419D01*
X169453020Y-64862419D02*
X169453020Y-63862419D01*
X169453020Y-63862419D02*
X169548258Y-64005276D01*
X169548258Y-64005276D02*
X169643496Y-64100514D01*
X169643496Y-64100514D02*
X169738734Y-64148133D01*
X167593734Y-65196895D02*
X167593734Y-64396895D01*
X167250877Y-65196895D02*
X167250877Y-64777847D01*
X167250877Y-64777847D02*
X167288972Y-64701657D01*
X167288972Y-64701657D02*
X167365163Y-64663561D01*
X167365163Y-64663561D02*
X167479449Y-64663561D01*
X167479449Y-64663561D02*
X167555639Y-64701657D01*
X167555639Y-64701657D02*
X167593734Y-64739752D01*
X166984210Y-64663561D02*
X166679448Y-64663561D01*
X166869924Y-64396895D02*
X166869924Y-65082609D01*
X166869924Y-65082609D02*
X166831829Y-65158800D01*
X166831829Y-65158800D02*
X166755639Y-65196895D01*
X166755639Y-65196895D02*
X166679448Y-65196895D01*
X166527067Y-64663561D02*
X166222305Y-64663561D01*
X166412781Y-64396895D02*
X166412781Y-65082609D01*
X166412781Y-65082609D02*
X166374686Y-65158800D01*
X166374686Y-65158800D02*
X166298496Y-65196895D01*
X166298496Y-65196895D02*
X166222305Y-65196895D01*
X165955638Y-64663561D02*
X165955638Y-65463561D01*
X165955638Y-64701657D02*
X165879448Y-64663561D01*
X165879448Y-64663561D02*
X165727067Y-64663561D01*
X165727067Y-64663561D02*
X165650876Y-64701657D01*
X165650876Y-64701657D02*
X165612781Y-64739752D01*
X165612781Y-64739752D02*
X165574686Y-64815942D01*
X165574686Y-64815942D02*
X165574686Y-65044514D01*
X165574686Y-65044514D02*
X165612781Y-65120704D01*
X165612781Y-65120704D02*
X165650876Y-65158800D01*
X165650876Y-65158800D02*
X165727067Y-65196895D01*
X165727067Y-65196895D02*
X165879448Y-65196895D01*
X165879448Y-65196895D02*
X165955638Y-65158800D01*
X165269924Y-65158800D02*
X165193733Y-65196895D01*
X165193733Y-65196895D02*
X165041352Y-65196895D01*
X165041352Y-65196895D02*
X164965162Y-65158800D01*
X164965162Y-65158800D02*
X164927066Y-65082609D01*
X164927066Y-65082609D02*
X164927066Y-65044514D01*
X164927066Y-65044514D02*
X164965162Y-64968323D01*
X164965162Y-64968323D02*
X165041352Y-64930228D01*
X165041352Y-64930228D02*
X165155638Y-64930228D01*
X165155638Y-64930228D02*
X165231828Y-64892133D01*
X165231828Y-64892133D02*
X165269924Y-64815942D01*
X165269924Y-64815942D02*
X165269924Y-64777847D01*
X165269924Y-64777847D02*
X165231828Y-64701657D01*
X165231828Y-64701657D02*
X165155638Y-64663561D01*
X165155638Y-64663561D02*
X165041352Y-64663561D01*
X165041352Y-64663561D02*
X164965162Y-64701657D01*
X164584209Y-65120704D02*
X164546114Y-65158800D01*
X164546114Y-65158800D02*
X164584209Y-65196895D01*
X164584209Y-65196895D02*
X164622305Y-65158800D01*
X164622305Y-65158800D02*
X164584209Y-65120704D01*
X164584209Y-65120704D02*
X164584209Y-65196895D01*
X164584209Y-64701657D02*
X164546114Y-64739752D01*
X164546114Y-64739752D02*
X164584209Y-64777847D01*
X164584209Y-64777847D02*
X164622305Y-64739752D01*
X164622305Y-64739752D02*
X164584209Y-64701657D01*
X164584209Y-64701657D02*
X164584209Y-64777847D01*
X163631829Y-64358800D02*
X164317543Y-65387371D01*
X162793734Y-64358800D02*
X163479448Y-65387371D01*
X162527067Y-65196895D02*
X162527067Y-64663561D01*
X162527067Y-64739752D02*
X162488972Y-64701657D01*
X162488972Y-64701657D02*
X162412782Y-64663561D01*
X162412782Y-64663561D02*
X162298496Y-64663561D01*
X162298496Y-64663561D02*
X162222305Y-64701657D01*
X162222305Y-64701657D02*
X162184210Y-64777847D01*
X162184210Y-64777847D02*
X162184210Y-65196895D01*
X162184210Y-64777847D02*
X162146115Y-64701657D01*
X162146115Y-64701657D02*
X162069924Y-64663561D01*
X162069924Y-64663561D02*
X161955639Y-64663561D01*
X161955639Y-64663561D02*
X161879448Y-64701657D01*
X161879448Y-64701657D02*
X161841353Y-64777847D01*
X161841353Y-64777847D02*
X161841353Y-65196895D01*
X161460400Y-65196895D02*
X161460400Y-64663561D01*
X161460400Y-64396895D02*
X161498496Y-64434990D01*
X161498496Y-64434990D02*
X161460400Y-64473085D01*
X161460400Y-64473085D02*
X161422305Y-64434990D01*
X161422305Y-64434990D02*
X161460400Y-64396895D01*
X161460400Y-64396895D02*
X161460400Y-64473085D01*
X160736591Y-65158800D02*
X160812782Y-65196895D01*
X160812782Y-65196895D02*
X160965163Y-65196895D01*
X160965163Y-65196895D02*
X161041353Y-65158800D01*
X161041353Y-65158800D02*
X161079448Y-65120704D01*
X161079448Y-65120704D02*
X161117544Y-65044514D01*
X161117544Y-65044514D02*
X161117544Y-64815942D01*
X161117544Y-64815942D02*
X161079448Y-64739752D01*
X161079448Y-64739752D02*
X161041353Y-64701657D01*
X161041353Y-64701657D02*
X160965163Y-64663561D01*
X160965163Y-64663561D02*
X160812782Y-64663561D01*
X160812782Y-64663561D02*
X160736591Y-64701657D01*
X160393734Y-65196895D02*
X160393734Y-64396895D01*
X160050877Y-65196895D02*
X160050877Y-64777847D01*
X160050877Y-64777847D02*
X160088972Y-64701657D01*
X160088972Y-64701657D02*
X160165163Y-64663561D01*
X160165163Y-64663561D02*
X160279449Y-64663561D01*
X160279449Y-64663561D02*
X160355639Y-64701657D01*
X160355639Y-64701657D02*
X160393734Y-64739752D01*
X159555639Y-65196895D02*
X159631829Y-65158800D01*
X159631829Y-65158800D02*
X159669924Y-65082609D01*
X159669924Y-65082609D02*
X159669924Y-64396895D01*
X159288972Y-65158800D02*
X159212781Y-65196895D01*
X159212781Y-65196895D02*
X159060400Y-65196895D01*
X159060400Y-65196895D02*
X158984210Y-65158800D01*
X158984210Y-65158800D02*
X158946114Y-65082609D01*
X158946114Y-65082609D02*
X158946114Y-65044514D01*
X158946114Y-65044514D02*
X158984210Y-64968323D01*
X158984210Y-64968323D02*
X159060400Y-64930228D01*
X159060400Y-64930228D02*
X159174686Y-64930228D01*
X159174686Y-64930228D02*
X159250876Y-64892133D01*
X159250876Y-64892133D02*
X159288972Y-64815942D01*
X159288972Y-64815942D02*
X159288972Y-64777847D01*
X159288972Y-64777847D02*
X159250876Y-64701657D01*
X159250876Y-64701657D02*
X159174686Y-64663561D01*
X159174686Y-64663561D02*
X159060400Y-64663561D01*
X159060400Y-64663561D02*
X158984210Y-64701657D01*
X158717543Y-64663561D02*
X158412781Y-64663561D01*
X158603257Y-64396895D02*
X158603257Y-65082609D01*
X158603257Y-65082609D02*
X158565162Y-65158800D01*
X158565162Y-65158800D02*
X158488972Y-65196895D01*
X158488972Y-65196895D02*
X158412781Y-65196895D01*
X157841352Y-65158800D02*
X157917543Y-65196895D01*
X157917543Y-65196895D02*
X158069924Y-65196895D01*
X158069924Y-65196895D02*
X158146114Y-65158800D01*
X158146114Y-65158800D02*
X158184210Y-65082609D01*
X158184210Y-65082609D02*
X158184210Y-64777847D01*
X158184210Y-64777847D02*
X158146114Y-64701657D01*
X158146114Y-64701657D02*
X158069924Y-64663561D01*
X158069924Y-64663561D02*
X157917543Y-64663561D01*
X157917543Y-64663561D02*
X157841352Y-64701657D01*
X157841352Y-64701657D02*
X157803257Y-64777847D01*
X157803257Y-64777847D02*
X157803257Y-64854038D01*
X157803257Y-64854038D02*
X158184210Y-64930228D01*
X157117543Y-65158800D02*
X157193734Y-65196895D01*
X157193734Y-65196895D02*
X157346115Y-65196895D01*
X157346115Y-65196895D02*
X157422305Y-65158800D01*
X157422305Y-65158800D02*
X157460400Y-65120704D01*
X157460400Y-65120704D02*
X157498496Y-65044514D01*
X157498496Y-65044514D02*
X157498496Y-64815942D01*
X157498496Y-64815942D02*
X157460400Y-64739752D01*
X157460400Y-64739752D02*
X157422305Y-64701657D01*
X157422305Y-64701657D02*
X157346115Y-64663561D01*
X157346115Y-64663561D02*
X157193734Y-64663561D01*
X157193734Y-64663561D02*
X157117543Y-64701657D01*
X156774686Y-65196895D02*
X156774686Y-64396895D01*
X156431829Y-65196895D02*
X156431829Y-64777847D01*
X156431829Y-64777847D02*
X156469924Y-64701657D01*
X156469924Y-64701657D02*
X156546115Y-64663561D01*
X156546115Y-64663561D02*
X156660401Y-64663561D01*
X156660401Y-64663561D02*
X156736591Y-64701657D01*
X156736591Y-64701657D02*
X156774686Y-64739752D01*
X156050876Y-65196895D02*
X156050876Y-64396895D01*
X156050876Y-64701657D02*
X155974686Y-64663561D01*
X155974686Y-64663561D02*
X155822305Y-64663561D01*
X155822305Y-64663561D02*
X155746114Y-64701657D01*
X155746114Y-64701657D02*
X155708019Y-64739752D01*
X155708019Y-64739752D02*
X155669924Y-64815942D01*
X155669924Y-64815942D02*
X155669924Y-65044514D01*
X155669924Y-65044514D02*
X155708019Y-65120704D01*
X155708019Y-65120704D02*
X155746114Y-65158800D01*
X155746114Y-65158800D02*
X155822305Y-65196895D01*
X155822305Y-65196895D02*
X155974686Y-65196895D01*
X155974686Y-65196895D02*
X156050876Y-65158800D01*
X155212781Y-65196895D02*
X155288971Y-65158800D01*
X155288971Y-65158800D02*
X155327066Y-65082609D01*
X155327066Y-65082609D02*
X155327066Y-64396895D01*
X154793733Y-65196895D02*
X154869923Y-65158800D01*
X154869923Y-65158800D02*
X154908018Y-65120704D01*
X154908018Y-65120704D02*
X154946114Y-65044514D01*
X154946114Y-65044514D02*
X154946114Y-64815942D01*
X154946114Y-64815942D02*
X154908018Y-64739752D01*
X154908018Y-64739752D02*
X154869923Y-64701657D01*
X154869923Y-64701657D02*
X154793733Y-64663561D01*
X154793733Y-64663561D02*
X154679447Y-64663561D01*
X154679447Y-64663561D02*
X154603256Y-64701657D01*
X154603256Y-64701657D02*
X154565161Y-64739752D01*
X154565161Y-64739752D02*
X154527066Y-64815942D01*
X154527066Y-64815942D02*
X154527066Y-65044514D01*
X154527066Y-65044514D02*
X154565161Y-65120704D01*
X154565161Y-65120704D02*
X154603256Y-65158800D01*
X154603256Y-65158800D02*
X154679447Y-65196895D01*
X154679447Y-65196895D02*
X154793733Y-65196895D01*
X153841351Y-64663561D02*
X153841351Y-65311180D01*
X153841351Y-65311180D02*
X153879446Y-65387371D01*
X153879446Y-65387371D02*
X153917542Y-65425466D01*
X153917542Y-65425466D02*
X153993732Y-65463561D01*
X153993732Y-65463561D02*
X154108018Y-65463561D01*
X154108018Y-65463561D02*
X154184208Y-65425466D01*
X153841351Y-65158800D02*
X153917542Y-65196895D01*
X153917542Y-65196895D02*
X154069923Y-65196895D01*
X154069923Y-65196895D02*
X154146113Y-65158800D01*
X154146113Y-65158800D02*
X154184208Y-65120704D01*
X154184208Y-65120704D02*
X154222304Y-65044514D01*
X154222304Y-65044514D02*
X154222304Y-64815942D01*
X154222304Y-64815942D02*
X154184208Y-64739752D01*
X154184208Y-64739752D02*
X154146113Y-64701657D01*
X154146113Y-64701657D02*
X154069923Y-64663561D01*
X154069923Y-64663561D02*
X153917542Y-64663561D01*
X153917542Y-64663561D02*
X153841351Y-64701657D01*
X153460398Y-65120704D02*
X153422303Y-65158800D01*
X153422303Y-65158800D02*
X153460398Y-65196895D01*
X153460398Y-65196895D02*
X153498494Y-65158800D01*
X153498494Y-65158800D02*
X153460398Y-65120704D01*
X153460398Y-65120704D02*
X153460398Y-65196895D01*
X153079446Y-65196895D02*
X153079446Y-64663561D01*
X153079446Y-64396895D02*
X153117542Y-64434990D01*
X153117542Y-64434990D02*
X153079446Y-64473085D01*
X153079446Y-64473085D02*
X153041351Y-64434990D01*
X153041351Y-64434990D02*
X153079446Y-64396895D01*
X153079446Y-64396895D02*
X153079446Y-64473085D01*
X152698494Y-64663561D02*
X152698494Y-65196895D01*
X152698494Y-64739752D02*
X152660399Y-64701657D01*
X152660399Y-64701657D02*
X152584209Y-64663561D01*
X152584209Y-64663561D02*
X152469923Y-64663561D01*
X152469923Y-64663561D02*
X152393732Y-64701657D01*
X152393732Y-64701657D02*
X152355637Y-64777847D01*
X152355637Y-64777847D02*
X152355637Y-65196895D01*
X152088970Y-64663561D02*
X151784208Y-64663561D01*
X151974684Y-65196895D02*
X151974684Y-64511180D01*
X151974684Y-64511180D02*
X151936589Y-64434990D01*
X151936589Y-64434990D02*
X151860399Y-64396895D01*
X151860399Y-64396895D02*
X151784208Y-64396895D01*
X151403256Y-65196895D02*
X151479446Y-65158800D01*
X151479446Y-65158800D02*
X151517541Y-65120704D01*
X151517541Y-65120704D02*
X151555637Y-65044514D01*
X151555637Y-65044514D02*
X151555637Y-64815942D01*
X151555637Y-64815942D02*
X151517541Y-64739752D01*
X151517541Y-64739752D02*
X151479446Y-64701657D01*
X151479446Y-64701657D02*
X151403256Y-64663561D01*
X151403256Y-64663561D02*
X151288970Y-64663561D01*
X151288970Y-64663561D02*
X151212779Y-64701657D01*
X151212779Y-64701657D02*
X151174684Y-64739752D01*
X151174684Y-64739752D02*
X151136589Y-64815942D01*
X151136589Y-64815942D02*
X151136589Y-65044514D01*
X151136589Y-65044514D02*
X151174684Y-65120704D01*
X151174684Y-65120704D02*
X151212779Y-65158800D01*
X151212779Y-65158800D02*
X151288970Y-65196895D01*
X151288970Y-65196895D02*
X151403256Y-65196895D01*
X181172306Y-44872419D02*
X181743734Y-44872419D01*
X181458020Y-44872419D02*
X181458020Y-43872419D01*
X181458020Y-43872419D02*
X181553258Y-44015276D01*
X181553258Y-44015276D02*
X181648496Y-44110514D01*
X181648496Y-44110514D02*
X181743734Y-44158133D01*
X173046115Y-57022419D02*
X173046115Y-56022419D01*
X172617544Y-56974800D02*
X172474687Y-57022419D01*
X172474687Y-57022419D02*
X172236592Y-57022419D01*
X172236592Y-57022419D02*
X172141354Y-56974800D01*
X172141354Y-56974800D02*
X172093735Y-56927180D01*
X172093735Y-56927180D02*
X172046116Y-56831942D01*
X172046116Y-56831942D02*
X172046116Y-56736704D01*
X172046116Y-56736704D02*
X172093735Y-56641466D01*
X172093735Y-56641466D02*
X172141354Y-56593847D01*
X172141354Y-56593847D02*
X172236592Y-56546228D01*
X172236592Y-56546228D02*
X172427068Y-56498609D01*
X172427068Y-56498609D02*
X172522306Y-56450990D01*
X172522306Y-56450990D02*
X172569925Y-56403371D01*
X172569925Y-56403371D02*
X172617544Y-56308133D01*
X172617544Y-56308133D02*
X172617544Y-56212895D01*
X172617544Y-56212895D02*
X172569925Y-56117657D01*
X172569925Y-56117657D02*
X172522306Y-56070038D01*
X172522306Y-56070038D02*
X172427068Y-56022419D01*
X172427068Y-56022419D02*
X172188973Y-56022419D01*
X172188973Y-56022419D02*
X172046116Y-56070038D01*
X171617544Y-57022419D02*
X171617544Y-56022419D01*
X171617544Y-56022419D02*
X171236592Y-56022419D01*
X171236592Y-56022419D02*
X171141354Y-56070038D01*
X171141354Y-56070038D02*
X171093735Y-56117657D01*
X171093735Y-56117657D02*
X171046116Y-56212895D01*
X171046116Y-56212895D02*
X171046116Y-56355752D01*
X171046116Y-56355752D02*
X171093735Y-56450990D01*
X171093735Y-56450990D02*
X171141354Y-56498609D01*
X171141354Y-56498609D02*
X171236592Y-56546228D01*
X171236592Y-56546228D02*
X171617544Y-56546228D01*
D11*
X175583333Y-56254819D02*
X175583333Y-56969104D01*
X175583333Y-56969104D02*
X175630952Y-57111961D01*
X175630952Y-57111961D02*
X175726190Y-57207200D01*
X175726190Y-57207200D02*
X175869047Y-57254819D01*
X175869047Y-57254819D02*
X175964285Y-57254819D01*
X174583333Y-57254819D02*
X175154761Y-57254819D01*
X174869047Y-57254819D02*
X174869047Y-56254819D01*
X174869047Y-56254819D02*
X174964285Y-56397676D01*
X174964285Y-56397676D02*
X175059523Y-56492914D01*
X175059523Y-56492914D02*
X175154761Y-56540533D01*
X202561904Y-43104819D02*
X202561904Y-43914342D01*
X202561904Y-43914342D02*
X202514285Y-44009580D01*
X202514285Y-44009580D02*
X202466666Y-44057200D01*
X202466666Y-44057200D02*
X202371428Y-44104819D01*
X202371428Y-44104819D02*
X202180952Y-44104819D01*
X202180952Y-44104819D02*
X202085714Y-44057200D01*
X202085714Y-44057200D02*
X202038095Y-44009580D01*
X202038095Y-44009580D02*
X201990476Y-43914342D01*
X201990476Y-43914342D02*
X201990476Y-43104819D01*
X200990476Y-44104819D02*
X201561904Y-44104819D01*
X201276190Y-44104819D02*
X201276190Y-43104819D01*
X201276190Y-43104819D02*
X201371428Y-43247676D01*
X201371428Y-43247676D02*
X201466666Y-43342914D01*
X201466666Y-43342914D02*
X201561904Y-43390533D01*
X149784819Y-58866666D02*
X150499104Y-58866666D01*
X150499104Y-58866666D02*
X150641961Y-58819047D01*
X150641961Y-58819047D02*
X150737200Y-58723809D01*
X150737200Y-58723809D02*
X150784819Y-58580952D01*
X150784819Y-58580952D02*
X150784819Y-58485714D01*
X150118152Y-59771428D02*
X150784819Y-59771428D01*
X149737200Y-59533333D02*
X150451485Y-59295238D01*
X150451485Y-59295238D02*
X150451485Y-59914285D01*
X183484819Y-42166666D02*
X184199104Y-42166666D01*
X184199104Y-42166666D02*
X184341961Y-42119047D01*
X184341961Y-42119047D02*
X184437200Y-42023809D01*
X184437200Y-42023809D02*
X184484819Y-41880952D01*
X184484819Y-41880952D02*
X184484819Y-41785714D01*
X183580057Y-42595238D02*
X183532438Y-42642857D01*
X183532438Y-42642857D02*
X183484819Y-42738095D01*
X183484819Y-42738095D02*
X183484819Y-42976190D01*
X183484819Y-42976190D02*
X183532438Y-43071428D01*
X183532438Y-43071428D02*
X183580057Y-43119047D01*
X183580057Y-43119047D02*
X183675295Y-43166666D01*
X183675295Y-43166666D02*
X183770533Y-43166666D01*
X183770533Y-43166666D02*
X183913390Y-43119047D01*
X183913390Y-43119047D02*
X184484819Y-42547619D01*
X184484819Y-42547619D02*
X184484819Y-43166666D01*
X170066666Y-48704819D02*
X170399999Y-48228628D01*
X170638094Y-48704819D02*
X170638094Y-47704819D01*
X170638094Y-47704819D02*
X170257142Y-47704819D01*
X170257142Y-47704819D02*
X170161904Y-47752438D01*
X170161904Y-47752438D02*
X170114285Y-47800057D01*
X170114285Y-47800057D02*
X170066666Y-47895295D01*
X170066666Y-47895295D02*
X170066666Y-48038152D01*
X170066666Y-48038152D02*
X170114285Y-48133390D01*
X170114285Y-48133390D02*
X170161904Y-48181009D01*
X170161904Y-48181009D02*
X170257142Y-48228628D01*
X170257142Y-48228628D02*
X170638094Y-48228628D01*
X169209523Y-47704819D02*
X169399999Y-47704819D01*
X169399999Y-47704819D02*
X169495237Y-47752438D01*
X169495237Y-47752438D02*
X169542856Y-47800057D01*
X169542856Y-47800057D02*
X169638094Y-47942914D01*
X169638094Y-47942914D02*
X169685713Y-48133390D01*
X169685713Y-48133390D02*
X169685713Y-48514342D01*
X169685713Y-48514342D02*
X169638094Y-48609580D01*
X169638094Y-48609580D02*
X169590475Y-48657200D01*
X169590475Y-48657200D02*
X169495237Y-48704819D01*
X169495237Y-48704819D02*
X169304761Y-48704819D01*
X169304761Y-48704819D02*
X169209523Y-48657200D01*
X169209523Y-48657200D02*
X169161904Y-48609580D01*
X169161904Y-48609580D02*
X169114285Y-48514342D01*
X169114285Y-48514342D02*
X169114285Y-48276247D01*
X169114285Y-48276247D02*
X169161904Y-48181009D01*
X169161904Y-48181009D02*
X169209523Y-48133390D01*
X169209523Y-48133390D02*
X169304761Y-48085771D01*
X169304761Y-48085771D02*
X169495237Y-48085771D01*
X169495237Y-48085771D02*
X169590475Y-48133390D01*
X169590475Y-48133390D02*
X169638094Y-48181009D01*
X169638094Y-48181009D02*
X169685713Y-48276247D01*
X158466666Y-63959580D02*
X158514285Y-64007200D01*
X158514285Y-64007200D02*
X158657142Y-64054819D01*
X158657142Y-64054819D02*
X158752380Y-64054819D01*
X158752380Y-64054819D02*
X158895237Y-64007200D01*
X158895237Y-64007200D02*
X158990475Y-63911961D01*
X158990475Y-63911961D02*
X159038094Y-63816723D01*
X159038094Y-63816723D02*
X159085713Y-63626247D01*
X159085713Y-63626247D02*
X159085713Y-63483390D01*
X159085713Y-63483390D02*
X159038094Y-63292914D01*
X159038094Y-63292914D02*
X158990475Y-63197676D01*
X158990475Y-63197676D02*
X158895237Y-63102438D01*
X158895237Y-63102438D02*
X158752380Y-63054819D01*
X158752380Y-63054819D02*
X158657142Y-63054819D01*
X158657142Y-63054819D02*
X158514285Y-63102438D01*
X158514285Y-63102438D02*
X158466666Y-63150057D01*
X157514285Y-64054819D02*
X158085713Y-64054819D01*
X157799999Y-64054819D02*
X157799999Y-63054819D01*
X157799999Y-63054819D02*
X157895237Y-63197676D01*
X157895237Y-63197676D02*
X157990475Y-63292914D01*
X157990475Y-63292914D02*
X158085713Y-63340533D01*
X192284819Y-42166666D02*
X192999104Y-42166666D01*
X192999104Y-42166666D02*
X193141961Y-42119047D01*
X193141961Y-42119047D02*
X193237200Y-42023809D01*
X193237200Y-42023809D02*
X193284819Y-41880952D01*
X193284819Y-41880952D02*
X193284819Y-41785714D01*
X192284819Y-42547619D02*
X192284819Y-43166666D01*
X192284819Y-43166666D02*
X192665771Y-42833333D01*
X192665771Y-42833333D02*
X192665771Y-42976190D01*
X192665771Y-42976190D02*
X192713390Y-43071428D01*
X192713390Y-43071428D02*
X192761009Y-43119047D01*
X192761009Y-43119047D02*
X192856247Y-43166666D01*
X192856247Y-43166666D02*
X193094342Y-43166666D01*
X193094342Y-43166666D02*
X193189580Y-43119047D01*
X193189580Y-43119047D02*
X193237200Y-43071428D01*
X193237200Y-43071428D02*
X193284819Y-42976190D01*
X193284819Y-42976190D02*
X193284819Y-42690476D01*
X193284819Y-42690476D02*
X193237200Y-42595238D01*
X193237200Y-42595238D02*
X193189580Y-42547619D01*
X170066666Y-51204819D02*
X170399999Y-50728628D01*
X170638094Y-51204819D02*
X170638094Y-50204819D01*
X170638094Y-50204819D02*
X170257142Y-50204819D01*
X170257142Y-50204819D02*
X170161904Y-50252438D01*
X170161904Y-50252438D02*
X170114285Y-50300057D01*
X170114285Y-50300057D02*
X170066666Y-50395295D01*
X170066666Y-50395295D02*
X170066666Y-50538152D01*
X170066666Y-50538152D02*
X170114285Y-50633390D01*
X170114285Y-50633390D02*
X170161904Y-50681009D01*
X170161904Y-50681009D02*
X170257142Y-50728628D01*
X170257142Y-50728628D02*
X170638094Y-50728628D01*
X169161904Y-50204819D02*
X169638094Y-50204819D01*
X169638094Y-50204819D02*
X169685713Y-50681009D01*
X169685713Y-50681009D02*
X169638094Y-50633390D01*
X169638094Y-50633390D02*
X169542856Y-50585771D01*
X169542856Y-50585771D02*
X169304761Y-50585771D01*
X169304761Y-50585771D02*
X169209523Y-50633390D01*
X169209523Y-50633390D02*
X169161904Y-50681009D01*
X169161904Y-50681009D02*
X169114285Y-50776247D01*
X169114285Y-50776247D02*
X169114285Y-51014342D01*
X169114285Y-51014342D02*
X169161904Y-51109580D01*
X169161904Y-51109580D02*
X169209523Y-51157200D01*
X169209523Y-51157200D02*
X169304761Y-51204819D01*
X169304761Y-51204819D02*
X169542856Y-51204819D01*
X169542856Y-51204819D02*
X169638094Y-51157200D01*
X169638094Y-51157200D02*
X169685713Y-51109580D01*
X154659819Y-50278095D02*
X155469342Y-50278095D01*
X155469342Y-50278095D02*
X155564580Y-50325714D01*
X155564580Y-50325714D02*
X155612200Y-50373333D01*
X155612200Y-50373333D02*
X155659819Y-50468571D01*
X155659819Y-50468571D02*
X155659819Y-50659047D01*
X155659819Y-50659047D02*
X155612200Y-50754285D01*
X155612200Y-50754285D02*
X155564580Y-50801904D01*
X155564580Y-50801904D02*
X155469342Y-50849523D01*
X155469342Y-50849523D02*
X154659819Y-50849523D01*
X154755057Y-51278095D02*
X154707438Y-51325714D01*
X154707438Y-51325714D02*
X154659819Y-51420952D01*
X154659819Y-51420952D02*
X154659819Y-51659047D01*
X154659819Y-51659047D02*
X154707438Y-51754285D01*
X154707438Y-51754285D02*
X154755057Y-51801904D01*
X154755057Y-51801904D02*
X154850295Y-51849523D01*
X154850295Y-51849523D02*
X154945533Y-51849523D01*
X154945533Y-51849523D02*
X155088390Y-51801904D01*
X155088390Y-51801904D02*
X155659819Y-51230476D01*
X155659819Y-51230476D02*
X155659819Y-51849523D01*
D12*
%TO.C,J1*%
X169995000Y-57915000D02*
X175195000Y-57915000D01*
X169995000Y-63055000D02*
X169995000Y-57915000D01*
X169995000Y-63055000D02*
X172595000Y-63055000D01*
X169995000Y-64325000D02*
X169995000Y-65655000D01*
X169995000Y-65655000D02*
X171325000Y-65655000D01*
X172595000Y-63055000D02*
X172595000Y-65655000D01*
X172595000Y-65655000D02*
X175195000Y-65655000D01*
X175195000Y-65655000D02*
X175195000Y-57915000D01*
%TO.C,U1*%
X193840000Y-44590000D02*
X193840000Y-44825000D01*
X193840000Y-57610000D02*
X193840000Y-57375000D01*
X197700000Y-44590000D02*
X193840000Y-44590000D01*
X197700000Y-44590000D02*
X201560000Y-44590000D01*
X197700000Y-57610000D02*
X193840000Y-57610000D01*
X197700000Y-57610000D02*
X201560000Y-57610000D01*
X201560000Y-44590000D02*
X201560000Y-44825000D01*
X201560000Y-57610000D02*
X201560000Y-57375000D01*
X202350000Y-44825000D02*
X202010000Y-44355000D01*
X202690000Y-44355000D01*
X202350000Y-44825000D01*
G36*
X202350000Y-44825000D02*
G01*
X202010000Y-44355000D01*
X202690000Y-44355000D01*
X202350000Y-44825000D01*
G37*
%TO.C,J4*%
X144130000Y-60530000D02*
X144130000Y-57870000D01*
X146730000Y-57870000D02*
X144130000Y-57870000D01*
X146730000Y-60530000D02*
X144130000Y-60530000D01*
X146730000Y-60530000D02*
X146730000Y-57870000D01*
X148000000Y-60530000D02*
X149330000Y-60530000D01*
X149330000Y-60530000D02*
X149330000Y-59200000D01*
%TO.C,J2*%
X149890000Y-43830000D02*
X149890000Y-41170000D01*
X180430000Y-41170000D02*
X149890000Y-41170000D01*
X180430000Y-43830000D02*
X149890000Y-43830000D01*
X180430000Y-43830000D02*
X180430000Y-41170000D01*
X181700000Y-43830000D02*
X183030000Y-43830000D01*
X183030000Y-43830000D02*
X183030000Y-42500000D01*
%TO.C,R6*%
X172322936Y-47815000D02*
X172777064Y-47815000D01*
X172322936Y-49285000D02*
X172777064Y-49285000D01*
%TO.C,C1*%
X158590000Y-58340000D02*
X159790000Y-58340000D01*
X158590000Y-61795563D02*
X158590000Y-58340000D01*
X159654437Y-62860000D02*
X158590000Y-61795563D01*
X159654437Y-62860000D02*
X159790000Y-62860000D01*
X162045563Y-62860000D02*
X161910000Y-62860000D01*
X162045563Y-62860000D02*
X163110000Y-61795563D01*
X162410000Y-63600000D02*
X162410000Y-63100000D01*
X162660000Y-63350000D02*
X162160000Y-63350000D01*
X163110000Y-58340000D02*
X161910000Y-58340000D01*
X163110000Y-61795563D02*
X163110000Y-58340000D01*
%TO.C,J3*%
X186630000Y-43830000D02*
X186630000Y-41170000D01*
X189230000Y-41170000D02*
X186630000Y-41170000D01*
X189230000Y-43830000D02*
X186630000Y-43830000D01*
X189230000Y-43830000D02*
X189230000Y-41170000D01*
X190500000Y-43830000D02*
X191830000Y-43830000D01*
X191830000Y-43830000D02*
X191830000Y-42500000D01*
%TO.C,R5*%
X172322936Y-50415000D02*
X172777064Y-50415000D01*
X172322936Y-51885000D02*
X172777064Y-51885000D01*
%TO.C,U2*%
X145715000Y-47430000D02*
X146015000Y-47430000D01*
X145715000Y-47730000D02*
X145715000Y-47430000D01*
X145715000Y-54350000D02*
X145715000Y-54650000D01*
X145715000Y-54650000D02*
X146015000Y-54650000D01*
X152935000Y-47430000D02*
X152635000Y-47430000D01*
X152935000Y-47730000D02*
X152935000Y-47430000D01*
X152935000Y-54350000D02*
X152935000Y-54650000D01*
X152935000Y-54650000D02*
X152635000Y-54650000D01*
X153105000Y-55592500D02*
X152635000Y-55252500D01*
X153105000Y-54912500D01*
X153105000Y-55592500D01*
G36*
X153105000Y-55592500D02*
G01*
X152635000Y-55252500D01*
X153105000Y-54912500D01*
X153105000Y-55592500D01*
G37*
%TD*%
M02*
