%TF.GenerationSoftware,KiCad,Pcbnew,9.0.0*%
%TF.CreationDate,2025-05-14T14:17:17+02:00*%
%TF.ProjectId,Fluke_8050a_TM1637_Display_PCB,466c756b-655f-4383-9035-30615f544d31,rev?*%
%TF.SameCoordinates,Original*%
%TF.FileFunction,Copper,L4,Bot*%
%TF.FilePolarity,Positive*%
%FSLAX46Y46*%
G04 Gerber Fmt 4.6, Leading zero omitted, Abs format (unit mm)*
G04 Created by KiCad (PCBNEW 9.0.0) date 2025-05-14 14:17:17*
%MOMM*%
%LPD*%
G01*
G04 APERTURE LIST*
G04 Aperture macros list*
%AMRoundRect*
0 Rectangle with rounded corners*
0 $1 Rounding radius*
0 $2 $3 $4 $5 $6 $7 $8 $9 X,Y pos of 4 corners*
0 Add a 4 corners polygon primitive as box body*
4,1,4,$2,$3,$4,$5,$6,$7,$8,$9,$2,$3,0*
0 Add four circle primitives for the rounded corners*
1,1,$1+$1,$2,$3*
1,1,$1+$1,$4,$5*
1,1,$1+$1,$6,$7*
1,1,$1+$1,$8,$9*
0 Add four rect primitives between the rounded corners*
20,1,$1+$1,$2,$3,$4,$5,0*
20,1,$1+$1,$4,$5,$6,$7,0*
20,1,$1+$1,$6,$7,$8,$9,0*
20,1,$1+$1,$8,$9,$2,$3,0*%
G04 Aperture macros list end*
%TA.AperFunction,ComponentPad*%
%ADD10R,1.600000X1.600000*%
%TD*%
%TA.AperFunction,ComponentPad*%
%ADD11C,1.600000*%
%TD*%
%TA.AperFunction,ComponentPad*%
%ADD12R,1.500000X1.500000*%
%TD*%
%TA.AperFunction,ComponentPad*%
%ADD13C,1.500000*%
%TD*%
%TA.AperFunction,ComponentPad*%
%ADD14R,1.700000X1.700000*%
%TD*%
%TA.AperFunction,ComponentPad*%
%ADD15O,1.700000X1.700000*%
%TD*%
%TA.AperFunction,SMDPad,CuDef*%
%ADD16RoundRect,0.150000X0.800000X0.150000X-0.800000X0.150000X-0.800000X-0.150000X0.800000X-0.150000X0*%
%TD*%
%TA.AperFunction,SMDPad,CuDef*%
%ADD17RoundRect,0.250000X-0.262500X-0.450000X0.262500X-0.450000X0.262500X0.450000X-0.262500X0.450000X0*%
%TD*%
%TA.AperFunction,SMDPad,CuDef*%
%ADD18RoundRect,0.250000X0.550000X-1.050000X0.550000X1.050000X-0.550000X1.050000X-0.550000X-1.050000X0*%
%TD*%
%TA.AperFunction,SMDPad,CuDef*%
%ADD19RoundRect,0.125000X0.125000X-0.625000X0.125000X0.625000X-0.125000X0.625000X-0.125000X-0.625000X0*%
%TD*%
%TA.AperFunction,SMDPad,CuDef*%
%ADD20RoundRect,0.125000X0.625000X-0.125000X0.625000X0.125000X-0.625000X0.125000X-0.625000X-0.125000X0*%
%TD*%
%TA.AperFunction,ViaPad*%
%ADD21C,0.600000*%
%TD*%
%TA.AperFunction,Conductor*%
%ADD22C,0.200000*%
%TD*%
%TA.AperFunction,Conductor*%
%ADD23C,0.400000*%
%TD*%
G04 APERTURE END LIST*
D10*
%TO.P,D2,1,Segement_E*%
%TO.N,/Segment E*%
X154400000Y-56060000D03*
D11*
%TO.P,D2,2,Segement_D*%
%TO.N,/Segment D*%
X156940000Y-56060000D03*
%TO.P,D2,3,DOT*%
%TO.N,/DOT*%
X159480000Y-56060000D03*
%TO.P,D2,4,Segement_C*%
%TO.N,/Segment C*%
X162020000Y-56060000D03*
%TO.P,D2,5,Segement_G*%
%TO.N,/Segment G*%
X164560000Y-56060000D03*
%TO.P,D2,6,NC*%
%TO.N,unconnected-(D2-NC-Pad6)*%
X167100000Y-56060000D03*
%TO.P,D2,7,Segement_B*%
%TO.N,/Segment B*%
X167100000Y-45900000D03*
%TO.P,D2,8,DIG3_(Common_Anode)*%
%TO.N,/DIGIT6*%
X164560000Y-45900000D03*
%TO.P,D2,9,DIG2_(Common_Anode)*%
%TO.N,/DIGIT5*%
X162020000Y-45900000D03*
%TO.P,D2,10,Segement_F*%
%TO.N,/Segment F*%
X159480000Y-45900000D03*
%TO.P,D2,11,Segement_A*%
%TO.N,/Segment A*%
X156940000Y-45900000D03*
%TO.P,D2,12,DIG1_(Common_Anode)*%
%TO.N,/DIGIT4*%
X154400000Y-45900000D03*
%TD*%
D12*
%TO.P,D8,1,K*%
%TO.N,Net-(D4-A)*%
X165140000Y-61200000D03*
D13*
%TO.P,D8,2,A*%
%TO.N,Net-(D8-A)*%
X167640000Y-61200000D03*
%TD*%
D12*
%TO.P,D10,1,K*%
%TO.N,Net-(D10-K)*%
X190840000Y-61200000D03*
D13*
%TO.P,D10,2,A*%
%TO.N,Net-(D10-A)*%
X193340000Y-61200000D03*
%TD*%
D10*
%TO.P,D1,1,Segement_E*%
%TO.N,/Segment E*%
X177500000Y-56060000D03*
D11*
%TO.P,D1,2,Segement_D*%
%TO.N,/Segment D*%
X180040000Y-56060000D03*
%TO.P,D1,3,DOT*%
%TO.N,/DOT*%
X182580000Y-56060000D03*
%TO.P,D1,4,Segement_C*%
%TO.N,/Segment C*%
X185120000Y-56060000D03*
%TO.P,D1,5,Segement_G*%
%TO.N,/Segment G*%
X187660000Y-56060000D03*
%TO.P,D1,6,NC*%
%TO.N,unconnected-(D1-NC-Pad6)*%
X190200000Y-56060000D03*
%TO.P,D1,7,Segement_B*%
%TO.N,/Segment B*%
X190200000Y-45900000D03*
%TO.P,D1,8,DIG3_(Common_Anode)*%
%TO.N,/DIGIT3*%
X187660000Y-45900000D03*
%TO.P,D1,9,DIG2_(Common_Anode)*%
%TO.N,/DIGIT2*%
X185120000Y-45900000D03*
%TO.P,D1,10,Segement_F*%
%TO.N,/Segment F*%
X182580000Y-45900000D03*
%TO.P,D1,11,Segement_A*%
%TO.N,/Segment A*%
X180040000Y-45900000D03*
%TO.P,D1,12,DIG1_(Common_Anode)*%
%TO.N,/DIGIT1*%
X177500000Y-45900000D03*
%TD*%
D12*
%TO.P,D7,1,K*%
%TO.N,Net-(D3-A)*%
X151740000Y-61200000D03*
D13*
%TO.P,D7,2,A*%
%TO.N,Net-(D7-A)*%
X154240000Y-61200000D03*
%TD*%
D12*
%TO.P,D3,1,K*%
%TO.N,GND*%
X151740000Y-59100000D03*
D13*
%TO.P,D3,2,A*%
%TO.N,Net-(D3-A)*%
X154240000Y-59100000D03*
%TD*%
D12*
%TO.P,D9,1,K*%
%TO.N,Net-(D5-A)*%
X178040000Y-61200000D03*
D13*
%TO.P,D9,2,A*%
%TO.N,Net-(D9-A)*%
X180540000Y-61200000D03*
%TD*%
D12*
%TO.P,D6,1,K*%
%TO.N,GND*%
X190840000Y-59100000D03*
D13*
%TO.P,D6,2,A*%
%TO.N,Net-(D10-K)*%
X193340000Y-59100000D03*
%TD*%
D12*
%TO.P,D4,1,K*%
%TO.N,GND*%
X165140000Y-59100000D03*
D13*
%TO.P,D4,2,A*%
%TO.N,Net-(D4-A)*%
X167640000Y-59100000D03*
%TD*%
D12*
%TO.P,D5,1,K*%
%TO.N,GND*%
X178040000Y-59100000D03*
D13*
%TO.P,D5,2,A*%
%TO.N,Net-(D5-A)*%
X180540000Y-59100000D03*
%TD*%
D14*
%TO.P,J1,1,Pin_1*%
%TO.N,/MISO*%
X171325000Y-64325000D03*
D15*
%TO.P,J1,2,Pin_2*%
%TO.N,Net-(J1-Pin_2)*%
X173865000Y-64325000D03*
%TO.P,J1,3,Pin_3*%
%TO.N,/SCK*%
X171325000Y-61785000D03*
%TO.P,J1,4,Pin_4*%
%TO.N,/MOSI*%
X173865000Y-61785000D03*
%TO.P,J1,5,Pin_5*%
%TO.N,/RST*%
X171325000Y-59245000D03*
%TO.P,J1,6,Pin_6*%
%TO.N,GND*%
X173865000Y-59245000D03*
%TD*%
D16*
%TO.P,U1,1,GND*%
%TO.N,GND*%
X202300000Y-45385000D03*
%TO.P,U1,2,SEG1/KS1_(A)*%
%TO.N,/Segment A*%
X202300000Y-46655000D03*
%TO.P,U1,3,SEG2/KS2_(B)*%
%TO.N,/Segment B*%
X202300000Y-47925000D03*
%TO.P,U1,4,SEG3/KS3_(C)*%
%TO.N,/Segment C*%
X202300000Y-49195000D03*
%TO.P,U1,5,SEG4/KS4_(D)*%
%TO.N,/Segment D*%
X202300000Y-50465000D03*
%TO.P,U1,6,SEG5/KS5_(E)*%
%TO.N,/Segment E*%
X202300000Y-51735000D03*
%TO.P,U1,7,SEG6/KS6_(F)*%
%TO.N,/Segment F*%
X202300000Y-53005000D03*
%TO.P,U1,8,SEG7/KS7_(G)*%
%TO.N,/Segment G*%
X202300000Y-54275000D03*
%TO.P,U1,9,SEG8/KS8_(DOT)*%
%TO.N,/DOT*%
X202300000Y-55545000D03*
%TO.P,U1,10,GRID6*%
%TO.N,/DIGIT1*%
X202300000Y-56815000D03*
%TO.P,U1,11,GRID5*%
%TO.N,/DIGIT2*%
X193100000Y-56815000D03*
%TO.P,U1,12,GRID4*%
%TO.N,/DIGIT3*%
X193100000Y-55545000D03*
%TO.P,U1,13,GRID3*%
%TO.N,/DIGIT4*%
X193100000Y-54275000D03*
%TO.P,U1,14,GRID2*%
%TO.N,/DIGIT5*%
X193100000Y-53005000D03*
%TO.P,U1,15,GRID1*%
%TO.N,/DIGIT6*%
X193100000Y-51735000D03*
%TO.P,U1,16,VDD*%
%TO.N,VCC*%
X193100000Y-50465000D03*
%TO.P,U1,17,DIO*%
%TO.N,Net-(U1-DIO)*%
X193100000Y-49195000D03*
%TO.P,U1,18,CLK*%
%TO.N,Net-(U1-CLK)*%
X193100000Y-47925000D03*
%TO.P,U1,19,K1*%
%TO.N,unconnected-(U1-K1-Pad19)*%
X193100000Y-46655000D03*
%TO.P,U1,20,K2*%
%TO.N,unconnected-(U1-K2-Pad20)*%
X193100000Y-45385000D03*
%TD*%
D14*
%TO.P,J4,1,Pin_1*%
%TO.N,Net-(J4-Pin_1)*%
X148000000Y-59200000D03*
D15*
%TO.P,J4,2,Pin_2*%
%TO.N,Net-(J4-Pin_2)*%
X145460000Y-59200000D03*
%TD*%
D14*
%TO.P,J2,1,Pin_1*%
%TO.N,GND*%
X181700000Y-42500000D03*
D15*
%TO.P,J2,2,Pin_2*%
%TO.N,VCC*%
X179160000Y-42500000D03*
%TO.P,J2,3,Pin_3*%
%TO.N,/Strobe 4*%
X176620000Y-42500000D03*
%TO.P,J2,4,Pin_4*%
%TO.N,/Strobe 3*%
X174080000Y-42500000D03*
%TO.P,J2,5,Pin_5*%
%TO.N,/Strobe 2*%
X171540000Y-42500000D03*
%TO.P,J2,6,Pin_6*%
%TO.N,/Strobe 1*%
X169000000Y-42500000D03*
%TO.P,J2,7,Pin_7*%
%TO.N,/DATA Z*%
X166460000Y-42500000D03*
%TO.P,J2,8,Pin_8*%
%TO.N,/DATA Y*%
X163920000Y-42500000D03*
%TO.P,J2,9,Pin_9*%
%TO.N,/DATA X*%
X161380000Y-42500000D03*
%TO.P,J2,10,Pin_10*%
%TO.N,/DATA W*%
X158840000Y-42500000D03*
%TO.P,J2,11,Pin_11*%
%TO.N,/Strobe 0*%
X156300000Y-42500000D03*
%TO.P,J2,12,Pin_12*%
%TO.N,/HV*%
X153760000Y-42500000D03*
%TO.P,J2,13,Pin_13*%
%TO.N,/DP*%
X151220000Y-42500000D03*
%TD*%
D17*
%TO.P,R6,1*%
%TO.N,VCC*%
X171637500Y-48550000D03*
%TO.P,R6,2*%
%TO.N,Net-(U1-CLK)*%
X173462500Y-48550000D03*
%TD*%
D18*
%TO.P,C1,1*%
%TO.N,VCC*%
X160850000Y-62400000D03*
%TO.P,C1,2*%
%TO.N,GND*%
X160850000Y-58800000D03*
%TD*%
D14*
%TO.P,J3,1,Pin_1*%
%TO.N,VCC*%
X190500000Y-42500000D03*
D15*
%TO.P,J3,2,Pin_2*%
%TO.N,Net-(J1-Pin_2)*%
X187960000Y-42500000D03*
%TD*%
D17*
%TO.P,R5,1*%
%TO.N,VCC*%
X171637500Y-51150000D03*
%TO.P,R5,2*%
%TO.N,Net-(U1-DIO)*%
X173462500Y-51150000D03*
%TD*%
D19*
%TO.P,U2,1,PD3*%
%TO.N,/Strobe 1*%
X152125000Y-55215000D03*
%TO.P,U2,2,PD4*%
%TO.N,/DATA Z*%
X151325000Y-55215000D03*
%TO.P,U2,3,GND*%
%TO.N,GND*%
X150525000Y-55215000D03*
%TO.P,U2,4,VCC*%
%TO.N,VCC*%
X149725000Y-55215000D03*
%TO.P,U2,5,GND*%
%TO.N,GND*%
X148925000Y-55215000D03*
%TO.P,U2,6,VCC*%
%TO.N,VCC*%
X148125000Y-55215000D03*
%TO.P,U2,7,XTAL1/PB6*%
%TO.N,Net-(J4-Pin_1)*%
X147325000Y-55215000D03*
%TO.P,U2,8,XTAL2/PB7*%
%TO.N,Net-(J4-Pin_2)*%
X146525000Y-55215000D03*
D20*
%TO.P,U2,9,PD5*%
%TO.N,/DATA Y*%
X145150000Y-53840000D03*
%TO.P,U2,10,PD6*%
%TO.N,/DATA X*%
X145150000Y-53040000D03*
%TO.P,U2,11,PD7*%
%TO.N,/DATA W*%
X145150000Y-52240000D03*
%TO.P,U2,12,PB0*%
%TO.N,/Strobe 0*%
X145150000Y-51440000D03*
%TO.P,U2,13,PB1*%
%TO.N,/HV*%
X145150000Y-50640000D03*
%TO.P,U2,14,PB2*%
%TO.N,/DP*%
X145150000Y-49840000D03*
%TO.P,U2,15,PB3*%
%TO.N,/MOSI*%
X145150000Y-49040000D03*
%TO.P,U2,16,PB4*%
%TO.N,/MISO*%
X145150000Y-48240000D03*
D19*
%TO.P,U2,17,PB5*%
%TO.N,/SCK*%
X146525000Y-46865000D03*
%TO.P,U2,18,AVCC*%
%TO.N,unconnected-(U2-AVCC-Pad18)*%
X147325000Y-46865000D03*
%TO.P,U2,19,ADC6*%
%TO.N,unconnected-(U2-ADC6-Pad19)*%
X148125000Y-46865000D03*
%TO.P,U2,20,AREF*%
%TO.N,unconnected-(U2-AREF-Pad20)*%
X148925000Y-46865000D03*
%TO.P,U2,21,GND*%
%TO.N,GND*%
X149725000Y-46865000D03*
%TO.P,U2,22,ADC7*%
%TO.N,unconnected-(U2-ADC7-Pad22)*%
X150525000Y-46865000D03*
%TO.P,U2,23,PC0*%
%TO.N,/LED NN*%
X151325000Y-46865000D03*
%TO.P,U2,24,PC1*%
%TO.N,/LED REL*%
X152125000Y-46865000D03*
D20*
%TO.P,U2,25,PC2*%
%TO.N,/LED DB*%
X153500000Y-48240000D03*
%TO.P,U2,26,PC3*%
%TO.N,/LED HV*%
X153500000Y-49040000D03*
%TO.P,U2,27,PC4*%
%TO.N,Net-(U1-CLK)*%
X153500000Y-49840000D03*
%TO.P,U2,28,PC5*%
%TO.N,Net-(U1-DIO)*%
X153500000Y-50640000D03*
%TO.P,U2,29,~{RESET}/PC6*%
%TO.N,/RST*%
X153500000Y-51440000D03*
%TO.P,U2,30,PD0*%
%TO.N,/Strobe 4*%
X153500000Y-52240000D03*
%TO.P,U2,31,PD1*%
%TO.N,/Strobe 3*%
X153500000Y-53040000D03*
%TO.P,U2,32,PD2*%
%TO.N,/Strobe 2*%
X153500000Y-53840000D03*
%TD*%
D21*
%TO.N,/DIGIT2*%
X185195000Y-49625000D03*
X197380000Y-49800000D03*
%TO.N,/DIGIT3*%
X196780000Y-47160000D03*
%TO.N,/DIGIT1*%
X191310000Y-52680000D03*
X177500000Y-52610000D03*
X200220000Y-56560000D03*
X191610000Y-56170000D03*
%TO.N,/DIGIT6*%
X164560000Y-51540000D03*
X189660000Y-51380000D03*
%TO.N,/DIGIT5*%
X162020000Y-50890000D03*
X194750000Y-51050000D03*
%TO.N,/DIGIT4*%
X195330000Y-46300000D03*
%TO.N,VCC*%
X148960000Y-53680000D03*
%TO.N,/Segment B*%
X167100000Y-47760000D03*
X200880000Y-47780000D03*
X190220000Y-47760000D03*
%TO.N,/Segment C*%
X198080000Y-55040000D03*
X185140000Y-55000000D03*
%TO.N,/Segment D*%
X156940000Y-54130000D03*
X203739876Y-53269921D03*
X180040000Y-53881000D03*
%TO.N,/Segment G*%
X187670000Y-52040000D03*
X199900000Y-52390000D03*
X165630000Y-52070000D03*
%TO.N,/Segment F*%
X200950000Y-52830000D03*
X182580000Y-53280000D03*
X159480000Y-53271000D03*
%TO.N,/DOT*%
X159480000Y-54740000D03*
X203762241Y-54404019D03*
X182580000Y-54760000D03*
%TO.N,/Segment E*%
X198810000Y-51710000D03*
X200890000Y-51750000D03*
X198830000Y-57330000D03*
%TO.N,/Segment A*%
X156930000Y-48360000D03*
X180040000Y-48360000D03*
X197710000Y-48370000D03*
%TO.N,/Strobe 4*%
X157490000Y-51850000D03*
%TO.N,/Strobe 1*%
X156000000Y-53720000D03*
%TO.N,/DATA Z*%
X155300000Y-54710000D03*
%TO.N,/Strobe 2*%
X156010000Y-52910000D03*
%TO.N,/Strobe 3*%
X162592472Y-52661000D03*
X157470000Y-52760000D03*
%TO.N,/DATA W*%
X147000000Y-52240000D03*
%TO.N,/DATA X*%
X147000000Y-53040000D03*
%TO.N,/DP*%
X146300000Y-49800000D03*
%TO.N,/Strobe 0*%
X146980000Y-51440000D03*
%TO.N,/DATA Y*%
X147030358Y-53839426D03*
%TO.N,/HV*%
X146980000Y-50520000D03*
%TO.N,Net-(U1-DIO)*%
X158480000Y-50440000D03*
X183340000Y-50330000D03*
X176700000Y-49000000D03*
%TO.N,Net-(U1-CLK)*%
X175800000Y-49000000D03*
X158260000Y-49670000D03*
X184150000Y-49620000D03*
%TO.N,/MISO*%
X172510000Y-47040000D03*
X153490000Y-47090000D03*
%TO.N,/MOSI*%
X147490000Y-49680000D03*
X168790000Y-63980000D03*
%TO.N,/RST*%
X158510000Y-52070000D03*
X171330000Y-52660000D03*
%TO.N,/SCK*%
X168940000Y-49070000D03*
X169400000Y-61800000D03*
X148810000Y-48150000D03*
%TO.N,/LED HV*%
X157760000Y-59170000D03*
X151550000Y-50400000D03*
%TO.N,/LED REL*%
X156760000Y-61480000D03*
X152860000Y-45570000D03*
%TO.N,/LED DB*%
X155445000Y-48205000D03*
X182890000Y-59200000D03*
%TO.N,/LED NN*%
X168770000Y-62960000D03*
X150190000Y-48270000D03*
%TD*%
D22*
%TO.N,/DIGIT2*%
X197430000Y-54567100D02*
X195182100Y-56815000D01*
X185120000Y-49550000D02*
X185195000Y-49625000D01*
X197380000Y-49800000D02*
X197430000Y-49850000D01*
X185120000Y-45900000D02*
X185120000Y-49550000D01*
X197380000Y-49800000D02*
X197240000Y-49940000D01*
X197430000Y-49850000D02*
X197430000Y-54567100D01*
X195182100Y-56815000D02*
X193100000Y-56815000D01*
%TO.N,/DIGIT3*%
X196779000Y-50048943D02*
X197000000Y-50269943D01*
X195885000Y-55545000D02*
X193100000Y-55545000D01*
X196779000Y-49646943D02*
X196779000Y-50048943D01*
X197000000Y-54430000D02*
X195885000Y-55545000D01*
X196780000Y-49640000D02*
X196772057Y-49640000D01*
X196772057Y-49640000D02*
X196779000Y-49646943D01*
X196780000Y-47160000D02*
X196780000Y-49640000D01*
X197000000Y-50269943D02*
X197000000Y-54430000D01*
%TO.N,/DIGIT1*%
X200923332Y-56623332D02*
X201115000Y-56815000D01*
X200283332Y-56623332D02*
X200923332Y-56623332D01*
X177500000Y-45900000D02*
X177500000Y-52610000D01*
X200220000Y-56560000D02*
X200283332Y-56623332D01*
X201115000Y-56815000D02*
X202300000Y-56815000D01*
X191310000Y-52680000D02*
X191310000Y-55870000D01*
X191310000Y-55870000D02*
X191610000Y-56170000D01*
%TO.N,/DIGIT6*%
X189660000Y-51380000D02*
X190015000Y-51735000D01*
X164560000Y-45900000D02*
X164560000Y-51540000D01*
X164560000Y-51540000D02*
X164560000Y-51620000D01*
X190015000Y-51735000D02*
X193100000Y-51735000D01*
X164230000Y-46230000D02*
X164560000Y-45900000D01*
%TO.N,/DIGIT5*%
X194750000Y-52990000D02*
X194735000Y-53005000D01*
X162020000Y-50890000D02*
X162050000Y-50920000D01*
X194735000Y-53005000D02*
X193100000Y-53005000D01*
X162020000Y-45900000D02*
X162020000Y-50890000D01*
X194750000Y-51050000D02*
X194750000Y-52990000D01*
%TO.N,/DIGIT4*%
X196180000Y-47150000D02*
X196180000Y-53970000D01*
X196180000Y-53970000D02*
X195930000Y-54220000D01*
X195330000Y-46300000D02*
X196180000Y-47150000D01*
X195930000Y-54220000D02*
X193155000Y-54220000D01*
X193155000Y-54220000D02*
X193100000Y-54275000D01*
%TO.N,VCC*%
X171637500Y-48550000D02*
X171637500Y-51150000D01*
X173350000Y-43800000D02*
X178000000Y-43800000D01*
X194730000Y-42970000D02*
X194260000Y-42500000D01*
X194730000Y-50420000D02*
X194730000Y-42970000D01*
D23*
X149600000Y-57150000D02*
X149900000Y-57450000D01*
X149725000Y-54445000D02*
X148960000Y-53680000D01*
X148950000Y-57150000D02*
X149600000Y-57150000D01*
X149900000Y-57450000D02*
X149900000Y-61065742D01*
X148125000Y-55215000D02*
X148125000Y-56325000D01*
X149725000Y-55215000D02*
X149725000Y-54445000D01*
X150300000Y-61465742D02*
X150300000Y-62050000D01*
D22*
X193100000Y-50465000D02*
X193145000Y-50420000D01*
X171637500Y-48550000D02*
X171637500Y-45512500D01*
D23*
X149900000Y-61065742D02*
X150300000Y-61465742D01*
D22*
X178000000Y-43800000D02*
X178000000Y-43660000D01*
D23*
X148125000Y-56325000D02*
X148950000Y-57150000D01*
D22*
X148125000Y-55215000D02*
X148125000Y-54515000D01*
X193145000Y-50420000D02*
X194730000Y-50420000D01*
X178000000Y-43660000D02*
X179160000Y-42500000D01*
D23*
X150650000Y-62400000D02*
X160850000Y-62400000D01*
D22*
X148125000Y-54515000D02*
X148960000Y-53680000D01*
D23*
X150300000Y-62050000D02*
X150650000Y-62400000D01*
D22*
X194260000Y-42500000D02*
X190500000Y-42500000D01*
X171637500Y-45512500D02*
X173350000Y-43800000D01*
%TO.N,Net-(J4-Pin_2)*%
X146525000Y-58135000D02*
X145460000Y-59200000D01*
X146525000Y-58135000D02*
X146525000Y-55215000D01*
%TO.N,Net-(J4-Pin_1)*%
X148000000Y-59075000D02*
X147325000Y-58400000D01*
X148000000Y-59200000D02*
X148000000Y-59075000D01*
X147325000Y-58400000D02*
X147325000Y-58525000D01*
X147325000Y-55215000D02*
X147325000Y-58400000D01*
%TO.N,/Segment B*%
X202300000Y-47925000D02*
X201025000Y-47925000D01*
X190200000Y-45900000D02*
X190200000Y-47740000D01*
X167100000Y-47880000D02*
X167140000Y-47920000D01*
X190200000Y-47740000D02*
X190220000Y-47760000D01*
X167100000Y-47760000D02*
X167100000Y-47880000D01*
X167100000Y-45900000D02*
X167100000Y-47760000D01*
X201025000Y-47925000D02*
X200880000Y-47780000D01*
%TO.N,/Segment C*%
X185120000Y-55020000D02*
X185140000Y-55000000D01*
X202295000Y-49190000D02*
X202300000Y-49195000D01*
X197980000Y-49190000D02*
X202295000Y-49190000D01*
X197980000Y-54940000D02*
X197980000Y-49190000D01*
X185120000Y-56060000D02*
X185120000Y-55020000D01*
X198080000Y-55040000D02*
X197980000Y-54940000D01*
%TO.N,/Segment D*%
X203750000Y-50570000D02*
X203645000Y-50465000D01*
X203645000Y-50465000D02*
X202300000Y-50465000D01*
X203750000Y-53259797D02*
X203750000Y-50570000D01*
X180040000Y-53881000D02*
X180040000Y-56060000D01*
X156940000Y-54130000D02*
X156940000Y-56060000D01*
X203739876Y-53269921D02*
X203750000Y-53259797D01*
%TO.N,/Segment G*%
X199900000Y-52390000D02*
X199750000Y-52540000D01*
X165630000Y-54990000D02*
X164560000Y-56060000D01*
X187670000Y-52040000D02*
X187660000Y-52050000D01*
X165630000Y-52070000D02*
X165630000Y-54990000D01*
X199985000Y-54275000D02*
X202300000Y-54275000D01*
X187660000Y-52050000D02*
X187660000Y-56060000D01*
X199750000Y-54040000D02*
X199985000Y-54275000D01*
X201505000Y-54275000D02*
X202300000Y-54275000D01*
X199750000Y-52540000D02*
X199750000Y-54040000D01*
%TO.N,/Segment F*%
X182580000Y-53280000D02*
X182580000Y-45900000D01*
X159480000Y-45900000D02*
X159480000Y-53271000D01*
X201125000Y-53005000D02*
X200950000Y-52830000D01*
X202300000Y-53005000D02*
X201125000Y-53005000D01*
%TO.N,/DOT*%
X203780000Y-54421778D02*
X203780000Y-55260000D01*
X203780000Y-55260000D02*
X203495000Y-55545000D01*
X203762241Y-54404019D02*
X203780000Y-54421778D01*
X159480000Y-56060000D02*
X159480000Y-54740000D01*
X182580000Y-56060000D02*
X182580000Y-54760000D01*
X203495000Y-55545000D02*
X202300000Y-55545000D01*
%TO.N,/Segment E*%
X202300000Y-51735000D02*
X200905000Y-51735000D01*
X198830000Y-52190000D02*
X198810000Y-52170000D01*
X198830000Y-57330000D02*
X198830000Y-52190000D01*
X198810000Y-52170000D02*
X198810000Y-51710000D01*
X200905000Y-51735000D02*
X200890000Y-51750000D01*
%TO.N,/Segment A*%
X180040000Y-45900000D02*
X180040000Y-48360000D01*
X197710000Y-46660000D02*
X197710000Y-48370000D01*
X197715000Y-46655000D02*
X202300000Y-46655000D01*
X156940000Y-48350000D02*
X156940000Y-45900000D01*
X197710000Y-46660000D02*
X197715000Y-46655000D01*
X180040000Y-48440000D02*
X180050000Y-48450000D01*
X180040000Y-48360000D02*
X180040000Y-48440000D01*
X156930000Y-48360000D02*
X156940000Y-48350000D01*
D23*
%TO.N,GND*%
X150525000Y-57885000D02*
X151740000Y-59100000D01*
D22*
X148925000Y-56235000D02*
X149320000Y-56630000D01*
X153650000Y-40950000D02*
X182400000Y-40950000D01*
X152531000Y-58309000D02*
X151740000Y-59100000D01*
X191950000Y-57990000D02*
X190840000Y-59100000D01*
X195835000Y-45385000D02*
X195190000Y-44740000D01*
D23*
X159999000Y-57949000D02*
X160850000Y-58800000D01*
D22*
X182400000Y-40950000D02*
X181730000Y-40950000D01*
D23*
X150525000Y-55215000D02*
X150525000Y-57885000D01*
D22*
X195190000Y-41830000D02*
X194310000Y-40950000D01*
X150525000Y-56120000D02*
X150525000Y-56255000D01*
X202300000Y-45385000D02*
X203249999Y-45385000D01*
X204370000Y-46505001D02*
X204370000Y-56750000D01*
D23*
X152891000Y-57949000D02*
X159999000Y-57949000D01*
D22*
X149725000Y-45622760D02*
X152609000Y-42738760D01*
X194310000Y-40950000D02*
X182400000Y-40950000D01*
X203249999Y-45385000D02*
X204370000Y-46505001D01*
X195190000Y-44740000D02*
X195190000Y-41830000D01*
X150460000Y-56120000D02*
X150525000Y-56120000D01*
X149725000Y-46865000D02*
X149725000Y-45622760D01*
X181730000Y-40950000D02*
X181700000Y-40980000D01*
X204370000Y-56750000D02*
X203130000Y-57990000D01*
X152609000Y-42738760D02*
X152609000Y-41991000D01*
X149320000Y-56630000D02*
X149950000Y-56630000D01*
X149950000Y-56630000D02*
X150460000Y-56120000D01*
X181700000Y-40980000D02*
X181700000Y-42500000D01*
X148925000Y-55215000D02*
X148925000Y-56235000D01*
X181479000Y-42721000D02*
X181700000Y-42500000D01*
X202300000Y-45385000D02*
X195835000Y-45385000D01*
D23*
X151740000Y-59100000D02*
X152891000Y-57949000D01*
D22*
X150525000Y-55215000D02*
X150525000Y-56255000D01*
X203130000Y-57990000D02*
X191950000Y-57990000D01*
X152609000Y-41991000D02*
X153650000Y-40950000D01*
%TO.N,/Strobe 4*%
X157440000Y-51800000D02*
X157490000Y-51850000D01*
X176620000Y-42500000D02*
X176050000Y-43070000D01*
X153500000Y-52240000D02*
X155025800Y-52240000D01*
X157390000Y-51750000D02*
X157490000Y-51850000D01*
X155465800Y-51800000D02*
X157440000Y-51800000D01*
X155025800Y-52240000D02*
X155465800Y-51800000D01*
%TO.N,/Strobe 1*%
X152125000Y-56845000D02*
X152125000Y-55215000D01*
X155610000Y-56950000D02*
X155280000Y-57280000D01*
X152560000Y-57280000D02*
X152125000Y-56845000D01*
X155610000Y-55832950D02*
X155610000Y-56950000D01*
X155280000Y-57280000D02*
X152560000Y-57280000D01*
X156000000Y-53720000D02*
X155950000Y-53770000D01*
X156000000Y-55442950D02*
X155610000Y-55832950D01*
X156000000Y-53720000D02*
X156000000Y-55442950D01*
%TO.N,/DATA Z*%
X151325000Y-54155000D02*
X151325000Y-55215000D01*
X153014082Y-54710000D02*
X152364082Y-54060000D01*
X151325000Y-54155000D02*
X151420000Y-54060000D01*
X155300000Y-54710000D02*
X153014082Y-54710000D01*
X151420000Y-54060000D02*
X152364082Y-54060000D01*
%TO.N,/Strobe 2*%
X155500000Y-52900000D02*
X155510000Y-52910000D01*
X155400000Y-53600000D02*
X155400000Y-53000000D01*
X155400000Y-53000000D02*
X155500000Y-52900000D01*
X155160000Y-53840000D02*
X155400000Y-53600000D01*
X153500000Y-53840000D02*
X155160000Y-53840000D01*
X155510000Y-52910000D02*
X156010000Y-52910000D01*
%TO.N,/Strobe 3*%
X154792900Y-53040000D02*
X155532900Y-52300000D01*
X157470000Y-52760000D02*
X157370000Y-52760000D01*
X155532900Y-52300000D02*
X156910000Y-52300000D01*
X153500000Y-53040000D02*
X154792900Y-53040000D01*
X157370000Y-52760000D02*
X156910000Y-52300000D01*
%TO.N,/DATA W*%
X147000000Y-52240000D02*
X145150000Y-52240000D01*
%TO.N,/DATA X*%
X145150000Y-53040000D02*
X146980000Y-53040000D01*
X146980000Y-53040000D02*
X146990000Y-53030000D01*
%TO.N,/DP*%
X146260000Y-49840000D02*
X146300000Y-49800000D01*
X145150000Y-49840000D02*
X146260000Y-49840000D01*
%TO.N,/Strobe 0*%
X145150000Y-51440000D02*
X146980000Y-51440000D01*
%TO.N,/DATA Y*%
X147029784Y-53840000D02*
X147030358Y-53839426D01*
X145150000Y-53840000D02*
X147029784Y-53840000D01*
%TO.N,/HV*%
X146940000Y-50640000D02*
X146950000Y-50630000D01*
X145150000Y-50640000D02*
X146940000Y-50640000D01*
%TO.N,Net-(U1-DIO)*%
X187451057Y-50469000D02*
X187948943Y-50469000D01*
X187099000Y-51318943D02*
X187099000Y-50821057D01*
X153500000Y-50640000D02*
X158280000Y-50640000D01*
X158280000Y-50640000D02*
X158480000Y-50440000D01*
X186830000Y-51600000D02*
X187105028Y-51324972D01*
X184060000Y-51600000D02*
X186830000Y-51600000D01*
X187967943Y-50450000D02*
X188490000Y-50450000D01*
X188510000Y-50430000D02*
X190145000Y-50430000D01*
X173462500Y-51150000D02*
X175750000Y-51150000D01*
X187948943Y-50469000D02*
X187967943Y-50450000D01*
X176850000Y-49150000D02*
X176700000Y-49000000D01*
X190145000Y-50430000D02*
X191380000Y-49195000D01*
X175750000Y-51150000D02*
X176850000Y-50050000D01*
X187105028Y-51324972D02*
X187099000Y-51318943D01*
X191380000Y-49195000D02*
X193100000Y-49195000D01*
X187099000Y-50821057D02*
X187451057Y-50469000D01*
X183340000Y-50330000D02*
X183340000Y-50880000D01*
X176850000Y-50050000D02*
X176850000Y-49150000D01*
X188490000Y-50450000D02*
X188510000Y-50430000D01*
X183340000Y-50880000D02*
X184060000Y-51600000D01*
%TO.N,Net-(U1-CLK)*%
X184170000Y-49640000D02*
X184150000Y-49620000D01*
X186370000Y-50820000D02*
X185991000Y-51199000D01*
X184709000Y-51199000D02*
X184170000Y-50660000D01*
X184170000Y-50660000D02*
X184170000Y-49640000D01*
X158090000Y-49840000D02*
X153500000Y-49840000D01*
X186610000Y-50030000D02*
X186370000Y-50270000D01*
X175350000Y-48550000D02*
X175800000Y-49000000D01*
X185991000Y-51199000D02*
X184709000Y-51199000D01*
X193100000Y-47925000D02*
X192664000Y-48361000D01*
X192664000Y-48361000D02*
X189238943Y-48361000D01*
X173462500Y-48550000D02*
X175350000Y-48550000D01*
X189238943Y-48361000D02*
X187569943Y-50030000D01*
X187569943Y-50030000D02*
X186610000Y-50030000D01*
X186370000Y-50270000D02*
X186370000Y-50820000D01*
X158260000Y-49670000D02*
X158090000Y-49840000D01*
%TO.N,/MISO*%
X151750000Y-48595918D02*
X153255918Y-47090000D01*
X145150000Y-48240000D02*
X146272900Y-48240000D01*
X153255918Y-47090000D02*
X153490000Y-47090000D01*
X147319000Y-48639000D02*
X147930000Y-49250000D01*
X151620000Y-49250000D02*
X151750000Y-49120000D01*
X147930000Y-49250000D02*
X151620000Y-49250000D01*
X146272900Y-48240000D02*
X146671900Y-48639000D01*
X151750000Y-49120000D02*
X151750000Y-48595918D01*
X146671900Y-48639000D02*
X147319000Y-48639000D01*
X153490000Y-47090000D02*
X153510000Y-47090000D01*
%TO.N,/MOSI*%
X173865000Y-61785000D02*
X172670000Y-62980000D01*
X145150000Y-49040000D02*
X146850000Y-49040000D01*
X172670000Y-62980000D02*
X169790000Y-62980000D01*
X146850000Y-49040000D02*
X147490000Y-49680000D01*
X169790000Y-62980000D02*
X168790000Y-63980000D01*
%TO.N,/RST*%
X171325000Y-59245000D02*
X171325000Y-52665000D01*
X155260000Y-51440000D02*
X155500000Y-51200000D01*
X158510000Y-52070000D02*
X158510000Y-51350000D01*
X171325000Y-52665000D02*
X171330000Y-52660000D01*
X158360000Y-51200000D02*
X158510000Y-51350000D01*
X153500000Y-51440000D02*
X155260000Y-51440000D01*
X155500000Y-51200000D02*
X158360000Y-51200000D01*
X158510000Y-51350000D02*
X158440000Y-51280000D01*
%TO.N,/SCK*%
X146525000Y-47925000D02*
X146750000Y-48150000D01*
X146750000Y-48150000D02*
X148810000Y-48150000D01*
X146525000Y-46865000D02*
X146525000Y-47925000D01*
X169400000Y-49530000D02*
X168940000Y-49070000D01*
X169400000Y-61800000D02*
X169400000Y-49530000D01*
%TO.N,/LED HV*%
X151590000Y-49870000D02*
X151550000Y-49910000D01*
X153500000Y-49040000D02*
X152420000Y-49040000D01*
X152420000Y-49040000D02*
X151590000Y-49870000D01*
X151550000Y-49910000D02*
X151550000Y-50400000D01*
%TO.N,/LED REL*%
X152125000Y-46865000D02*
X152860000Y-46130000D01*
X152860000Y-46130000D02*
X152860000Y-45570000D01*
%TO.N,/LED DB*%
X153500000Y-48240000D02*
X155450000Y-48240000D01*
X155450000Y-48240000D02*
X155470000Y-48220000D01*
%TO.N,/LED NN*%
X168770000Y-62960000D02*
X168770000Y-63000000D01*
X151325000Y-46865000D02*
X151325000Y-47614999D01*
X168770000Y-63000000D02*
X168850000Y-63080000D01*
X150669999Y-48270000D02*
X150190000Y-48270000D01*
X151325000Y-47614999D02*
X150669999Y-48270000D01*
%TD*%
%TA.AperFunction,NonConductor*%
G36*
X195493039Y-40520185D02*
G01*
X195538794Y-40572989D01*
X195550000Y-40624500D01*
X195550000Y-41041403D01*
X195530315Y-41108442D01*
X195477511Y-41154197D01*
X195408353Y-41164141D01*
X195344797Y-41135116D01*
X195338319Y-41129084D01*
X194921416Y-40712181D01*
X194887931Y-40650858D01*
X194892915Y-40581166D01*
X194934787Y-40525233D01*
X195000251Y-40500816D01*
X195009097Y-40500500D01*
X195426000Y-40500500D01*
X195493039Y-40520185D01*
G37*
%TD.AperFunction*%
%TA.AperFunction,NonConductor*%
G36*
X194039343Y-41559144D02*
G01*
X194069330Y-41565668D01*
X194074345Y-41569422D01*
X194076942Y-41570185D01*
X194097584Y-41586819D01*
X194198584Y-41687819D01*
X194232069Y-41749142D01*
X194227085Y-41818834D01*
X194185213Y-41874767D01*
X194119749Y-41899184D01*
X194110903Y-41899500D01*
X191974499Y-41899500D01*
X191907460Y-41879815D01*
X191861705Y-41827011D01*
X191850499Y-41775500D01*
X191850499Y-41674500D01*
X191870184Y-41607461D01*
X191922988Y-41561706D01*
X191974499Y-41550500D01*
X194009903Y-41550500D01*
X194039343Y-41559144D01*
G37*
%TD.AperFunction*%
%TA.AperFunction,NonConductor*%
G36*
X153017941Y-40520185D02*
G01*
X153063696Y-40572989D01*
X153073640Y-40642147D01*
X153044615Y-40705703D01*
X153038583Y-40712181D01*
X152278011Y-41472753D01*
X152216688Y-41506238D01*
X152146996Y-41501254D01*
X152102649Y-41472753D01*
X152099786Y-41469890D01*
X151927820Y-41344951D01*
X151738414Y-41248444D01*
X151738413Y-41248443D01*
X151738412Y-41248443D01*
X151536243Y-41182754D01*
X151536241Y-41182753D01*
X151536240Y-41182753D01*
X151355942Y-41154197D01*
X151326287Y-41149500D01*
X151113713Y-41149500D01*
X151084058Y-41154197D01*
X150903760Y-41182753D01*
X150701585Y-41248444D01*
X150512179Y-41344951D01*
X150340213Y-41469890D01*
X150189890Y-41620213D01*
X150064951Y-41792179D01*
X149968444Y-41981585D01*
X149941931Y-42063184D01*
X149902493Y-42120860D01*
X149838135Y-42148058D01*
X149769288Y-42136143D01*
X149717813Y-42088899D01*
X149700000Y-42024866D01*
X149700000Y-40624500D01*
X149719685Y-40557461D01*
X149772489Y-40511706D01*
X149824000Y-40500500D01*
X152950902Y-40500500D01*
X153017941Y-40520185D01*
G37*
%TD.AperFunction*%
%TA.AperFunction,NonConductor*%
G36*
X149905203Y-42881420D02*
G01*
X149941929Y-42936813D01*
X149950000Y-42961650D01*
X149968444Y-43018414D01*
X150064951Y-43207820D01*
X150189890Y-43379786D01*
X150340213Y-43530109D01*
X150501134Y-43647023D01*
X150512184Y-43655051D01*
X150574457Y-43686781D01*
X150579580Y-43689391D01*
X150630376Y-43737366D01*
X150647171Y-43805187D01*
X150624634Y-43871322D01*
X150610966Y-43887557D01*
X149911681Y-44586843D01*
X149850358Y-44620328D01*
X149780667Y-44615344D01*
X149724733Y-44573473D01*
X149700316Y-44508008D01*
X149700000Y-44499162D01*
X149700000Y-42975133D01*
X149719685Y-42908094D01*
X149772489Y-42862339D01*
X149841647Y-42852395D01*
X149905203Y-42881420D01*
G37*
%TD.AperFunction*%
%TA.AperFunction,NonConductor*%
G36*
X186804217Y-41570185D02*
G01*
X186849972Y-41622989D01*
X186859916Y-41692147D01*
X186837497Y-41747384D01*
X186804950Y-41792181D01*
X186708444Y-41981585D01*
X186642753Y-42183760D01*
X186609500Y-42393713D01*
X186609500Y-42606287D01*
X186642754Y-42816243D01*
X186681930Y-42936815D01*
X186708444Y-43018414D01*
X186804951Y-43207820D01*
X186929890Y-43379786D01*
X187080213Y-43530109D01*
X187252179Y-43655048D01*
X187252181Y-43655049D01*
X187252184Y-43655051D01*
X187441588Y-43751557D01*
X187643757Y-43817246D01*
X187853713Y-43850500D01*
X187853714Y-43850500D01*
X188066286Y-43850500D01*
X188066287Y-43850500D01*
X188276243Y-43817246D01*
X188478412Y-43751557D01*
X188667816Y-43655051D01*
X188839792Y-43530104D01*
X188953329Y-43416566D01*
X189014648Y-43383084D01*
X189084340Y-43388068D01*
X189140274Y-43429939D01*
X189157189Y-43460917D01*
X189206202Y-43592328D01*
X189206206Y-43592335D01*
X189292452Y-43707544D01*
X189292455Y-43707547D01*
X189407664Y-43793793D01*
X189407671Y-43793797D01*
X189542517Y-43844091D01*
X189542516Y-43844091D01*
X189549444Y-43844835D01*
X189602127Y-43850500D01*
X191397872Y-43850499D01*
X191457483Y-43844091D01*
X191592331Y-43793796D01*
X191707546Y-43707546D01*
X191793796Y-43592331D01*
X191844091Y-43457483D01*
X191850500Y-43397873D01*
X191850500Y-43224500D01*
X191870185Y-43157461D01*
X191922989Y-43111706D01*
X191974500Y-43100500D01*
X193959903Y-43100500D01*
X193989343Y-43109144D01*
X194019330Y-43115668D01*
X194024345Y-43119422D01*
X194026942Y-43120185D01*
X194047584Y-43136819D01*
X194093181Y-43182416D01*
X194126666Y-43243739D01*
X194129500Y-43270097D01*
X194129500Y-44463248D01*
X194109815Y-44530287D01*
X194057011Y-44576042D01*
X193995776Y-44586866D01*
X193965711Y-44584500D01*
X193965694Y-44584500D01*
X192234306Y-44584500D01*
X192234298Y-44584500D01*
X192197432Y-44587401D01*
X192197426Y-44587402D01*
X192039606Y-44633254D01*
X192039603Y-44633255D01*
X191898137Y-44716917D01*
X191898129Y-44716923D01*
X191781923Y-44833129D01*
X191781917Y-44833137D01*
X191698255Y-44974603D01*
X191698254Y-44974606D01*
X191652402Y-45132426D01*
X191652401Y-45132432D01*
X191649500Y-45169298D01*
X191649500Y-45369693D01*
X191629815Y-45436732D01*
X191577011Y-45482487D01*
X191507853Y-45492431D01*
X191444297Y-45463406D01*
X191407569Y-45408012D01*
X191405220Y-45400781D01*
X191312287Y-45218390D01*
X191299314Y-45200534D01*
X191191971Y-45052786D01*
X191047213Y-44908028D01*
X190881613Y-44787715D01*
X190881612Y-44787714D01*
X190881610Y-44787713D01*
X190824653Y-44758691D01*
X190699223Y-44694781D01*
X190504534Y-44631522D01*
X190329995Y-44603878D01*
X190302352Y-44599500D01*
X190097648Y-44599500D01*
X190073329Y-44603351D01*
X189895465Y-44631522D01*
X189700776Y-44694781D01*
X189518386Y-44787715D01*
X189352786Y-44908028D01*
X189208028Y-45052786D01*
X189087715Y-45218386D01*
X189040485Y-45311080D01*
X188992510Y-45361876D01*
X188924689Y-45378671D01*
X188858554Y-45356134D01*
X188819515Y-45311080D01*
X188804043Y-45280715D01*
X188772287Y-45218390D01*
X188759314Y-45200534D01*
X188651971Y-45052786D01*
X188507213Y-44908028D01*
X188341613Y-44787715D01*
X188341612Y-44787714D01*
X188341610Y-44787713D01*
X188284653Y-44758691D01*
X188159223Y-44694781D01*
X187964534Y-44631522D01*
X187789995Y-44603878D01*
X187762352Y-44599500D01*
X187557648Y-44599500D01*
X187533329Y-44603351D01*
X187355465Y-44631522D01*
X187160776Y-44694781D01*
X186978386Y-44787715D01*
X186812786Y-44908028D01*
X186668028Y-45052786D01*
X186547715Y-45218386D01*
X186500485Y-45311080D01*
X186452510Y-45361876D01*
X186384689Y-45378671D01*
X186318554Y-45356134D01*
X186279515Y-45311080D01*
X186264043Y-45280715D01*
X186232287Y-45218390D01*
X186219314Y-45200534D01*
X186111971Y-45052786D01*
X185967213Y-44908028D01*
X185801613Y-44787715D01*
X185801612Y-44787714D01*
X185801610Y-44787713D01*
X185744653Y-44758691D01*
X185619223Y-44694781D01*
X185424534Y-44631522D01*
X185249995Y-44603878D01*
X185222352Y-44599500D01*
X185017648Y-44599500D01*
X184993329Y-44603351D01*
X184815465Y-44631522D01*
X184620776Y-44694781D01*
X184438386Y-44787715D01*
X184272786Y-44908028D01*
X184128028Y-45052786D01*
X184007715Y-45218386D01*
X183960485Y-45311080D01*
X183912510Y-45361876D01*
X183844689Y-45378671D01*
X183778554Y-45356134D01*
X183739515Y-45311080D01*
X183724043Y-45280715D01*
X183692287Y-45218390D01*
X183679314Y-45200534D01*
X183571971Y-45052786D01*
X183427213Y-44908028D01*
X183261613Y-44787715D01*
X183261612Y-44787714D01*
X183261610Y-44787713D01*
X183204653Y-44758691D01*
X183079223Y-44694781D01*
X182884534Y-44631522D01*
X182709995Y-44603878D01*
X182682352Y-44599500D01*
X182477648Y-44599500D01*
X182453329Y-44603351D01*
X182275465Y-44631522D01*
X182080776Y-44694781D01*
X181898386Y-44787715D01*
X181732786Y-44908028D01*
X181588028Y-45052786D01*
X181467715Y-45218386D01*
X181420485Y-45311080D01*
X181372510Y-45361876D01*
X181304689Y-45378671D01*
X181238554Y-45356134D01*
X181199515Y-45311080D01*
X181184043Y-45280715D01*
X181152287Y-45218390D01*
X181139314Y-45200534D01*
X181031971Y-45052786D01*
X180887213Y-44908028D01*
X180721613Y-44787715D01*
X180721612Y-44787714D01*
X180721610Y-44787713D01*
X180664653Y-44758691D01*
X180539223Y-44694781D01*
X180344534Y-44631522D01*
X180169995Y-44603878D01*
X180142352Y-44599500D01*
X179937648Y-44599500D01*
X179913329Y-44603351D01*
X179735465Y-44631522D01*
X179540776Y-44694781D01*
X179358386Y-44787715D01*
X179192786Y-44908028D01*
X179048028Y-45052786D01*
X178927715Y-45218386D01*
X178880485Y-45311080D01*
X178832510Y-45361876D01*
X178764689Y-45378671D01*
X178698554Y-45356134D01*
X178659515Y-45311080D01*
X178644043Y-45280715D01*
X178612287Y-45218390D01*
X178599314Y-45200534D01*
X178491971Y-45052786D01*
X178347213Y-44908028D01*
X178181613Y-44787715D01*
X178181612Y-44787714D01*
X178181610Y-44787713D01*
X178124653Y-44758691D01*
X177999223Y-44694781D01*
X177838106Y-44642431D01*
X177780431Y-44602993D01*
X177753233Y-44538634D01*
X177765148Y-44469788D01*
X177812392Y-44418312D01*
X177876425Y-44400500D01*
X178079055Y-44400500D01*
X178079057Y-44400500D01*
X178231784Y-44359577D01*
X178368716Y-44280520D01*
X178480520Y-44168716D01*
X178559577Y-44031784D01*
X178581037Y-43951690D01*
X178589053Y-43937805D01*
X178591979Y-43924359D01*
X178613127Y-43896107D01*
X178675479Y-43833755D01*
X178736799Y-43800272D01*
X178801476Y-43803507D01*
X178843757Y-43817246D01*
X179053713Y-43850500D01*
X179053714Y-43850500D01*
X179266286Y-43850500D01*
X179266287Y-43850500D01*
X179476243Y-43817246D01*
X179678412Y-43751557D01*
X179867816Y-43655051D01*
X180039792Y-43530104D01*
X180153329Y-43416566D01*
X180214648Y-43383084D01*
X180284340Y-43388068D01*
X180340274Y-43429939D01*
X180357189Y-43460917D01*
X180406202Y-43592328D01*
X180406206Y-43592335D01*
X180492452Y-43707544D01*
X180492455Y-43707547D01*
X180607664Y-43793793D01*
X180607671Y-43793797D01*
X180742517Y-43844091D01*
X180742516Y-43844091D01*
X180749444Y-43844835D01*
X180802127Y-43850500D01*
X182597872Y-43850499D01*
X182657483Y-43844091D01*
X182792331Y-43793796D01*
X182907546Y-43707546D01*
X182993796Y-43592331D01*
X183044091Y-43457483D01*
X183050500Y-43397873D01*
X183050499Y-41674499D01*
X183070184Y-41607461D01*
X183122987Y-41561706D01*
X183174499Y-41550500D01*
X186737178Y-41550500D01*
X186804217Y-41570185D01*
G37*
%TD.AperFunction*%
%TA.AperFunction,NonConductor*%
G36*
X204442539Y-40520185D02*
G01*
X204488294Y-40572989D01*
X204499500Y-40624500D01*
X204499500Y-45485903D01*
X204479815Y-45552942D01*
X204427011Y-45598697D01*
X204357853Y-45608641D01*
X204294297Y-45579616D01*
X204287819Y-45573584D01*
X203737589Y-45023355D01*
X203737587Y-45023352D01*
X203728316Y-45014081D01*
X203705955Y-44981175D01*
X203705716Y-44981317D01*
X203703460Y-44977503D01*
X203702189Y-44975632D01*
X203701745Y-44974606D01*
X203701744Y-44974602D01*
X203694146Y-44961755D01*
X203618083Y-44833138D01*
X203618076Y-44833129D01*
X203501870Y-44716923D01*
X203501862Y-44716917D01*
X203360396Y-44633255D01*
X203360393Y-44633254D01*
X203202573Y-44587402D01*
X203202567Y-44587401D01*
X203165701Y-44584500D01*
X203165694Y-44584500D01*
X201434306Y-44584500D01*
X201434298Y-44584500D01*
X201397432Y-44587401D01*
X201397426Y-44587402D01*
X201239606Y-44633254D01*
X201239603Y-44633255D01*
X201098137Y-44716917D01*
X201098129Y-44716923D01*
X201066874Y-44748180D01*
X201005552Y-44781666D01*
X200979192Y-44784500D01*
X200374000Y-44784500D01*
X200306961Y-44764815D01*
X200261206Y-44712011D01*
X200250000Y-44660500D01*
X200250000Y-40624500D01*
X200269685Y-40557461D01*
X200322489Y-40511706D01*
X200374000Y-40500500D01*
X204375500Y-40500500D01*
X204442539Y-40520185D01*
G37*
%TD.AperFunction*%
%TA.AperFunction,NonConductor*%
G36*
X191643239Y-45792038D02*
G01*
X191644432Y-45791890D01*
X191674943Y-45806517D01*
X191705703Y-45820565D01*
X191706675Y-45821730D01*
X191707436Y-45822095D01*
X191730047Y-45849195D01*
X191730641Y-45850159D01*
X191781919Y-45936865D01*
X191787625Y-45942571D01*
X191795238Y-45954917D01*
X191813669Y-46022312D01*
X191792739Y-46088972D01*
X191786377Y-46096717D01*
X191786702Y-46096969D01*
X191781917Y-46103137D01*
X191706655Y-46230400D01*
X191655586Y-46278083D01*
X191586844Y-46290587D01*
X191522255Y-46263942D01*
X191482325Y-46206606D01*
X191477450Y-46147881D01*
X191480785Y-46126826D01*
X191500500Y-46002352D01*
X191500500Y-45914278D01*
X191500838Y-45913124D01*
X191500522Y-45911966D01*
X191510658Y-45879680D01*
X191520185Y-45847239D01*
X191521091Y-45846453D01*
X191521452Y-45845306D01*
X191547450Y-45823613D01*
X191572989Y-45801484D01*
X191574176Y-45801313D01*
X191575100Y-45800543D01*
X191608683Y-45796351D01*
X191642147Y-45791540D01*
X191643239Y-45792038D01*
G37*
%TD.AperFunction*%
%TA.AperFunction,NonConductor*%
G36*
X197302941Y-46005185D02*
G01*
X197348696Y-46057989D01*
X197358640Y-46127147D01*
X197329615Y-46190703D01*
X197323583Y-46197181D01*
X197233923Y-46286840D01*
X197233921Y-46286842D01*
X197229480Y-46291284D01*
X197206778Y-46330606D01*
X197205837Y-46332234D01*
X197205822Y-46332260D01*
X197196049Y-46349187D01*
X197145480Y-46397400D01*
X197076872Y-46410620D01*
X197041216Y-46401744D01*
X197013497Y-46390263D01*
X197013493Y-46390262D01*
X197013488Y-46390260D01*
X196858845Y-46359500D01*
X196858842Y-46359500D01*
X196701158Y-46359500D01*
X196701155Y-46359500D01*
X196546510Y-46390261D01*
X196546498Y-46390264D01*
X196427177Y-46439688D01*
X196407301Y-46441824D01*
X196388571Y-46448811D01*
X196373274Y-46445483D01*
X196357707Y-46447157D01*
X196339829Y-46438207D01*
X196320298Y-46433959D01*
X196298007Y-46417272D01*
X196295228Y-46415881D01*
X196292044Y-46412808D01*
X196164573Y-46285337D01*
X196131088Y-46224014D01*
X196130637Y-46221847D01*
X196113102Y-46133691D01*
X196119329Y-46064099D01*
X196162193Y-46008922D01*
X196228082Y-45985678D01*
X196234719Y-45985500D01*
X197235902Y-45985500D01*
X197302941Y-46005185D01*
G37*
%TD.AperFunction*%
%TA.AperFunction,NonConductor*%
G36*
X144943039Y-40520185D02*
G01*
X144988794Y-40572989D01*
X145000000Y-40624500D01*
X145000000Y-44800000D01*
X149399162Y-44800000D01*
X149466201Y-44819685D01*
X149511956Y-44872489D01*
X149521900Y-44941647D01*
X149492875Y-45005203D01*
X149486843Y-45011681D01*
X149244481Y-45254042D01*
X149244477Y-45254047D01*
X149208051Y-45317139D01*
X149208047Y-45317147D01*
X149202957Y-45325965D01*
X149165423Y-45390975D01*
X149128582Y-45528461D01*
X149126445Y-45534147D01*
X149108936Y-45557404D01*
X149093789Y-45582255D01*
X149088176Y-45584981D01*
X149084423Y-45589967D01*
X149057123Y-45600065D01*
X149030942Y-45612783D01*
X149020352Y-45613667D01*
X149018893Y-45614207D01*
X149017517Y-45613903D01*
X149010380Y-45614500D01*
X148736849Y-45614500D01*
X148736824Y-45614501D01*
X148701375Y-45617290D01*
X148559594Y-45658481D01*
X148490406Y-45658481D01*
X148408728Y-45634751D01*
X148348627Y-45617291D01*
X148348625Y-45617290D01*
X148348620Y-45617290D01*
X148313163Y-45614500D01*
X147936849Y-45614500D01*
X147936824Y-45614501D01*
X147901375Y-45617290D01*
X147759594Y-45658481D01*
X147690406Y-45658481D01*
X147608728Y-45634751D01*
X147548627Y-45617291D01*
X147548625Y-45617290D01*
X147548620Y-45617290D01*
X147513163Y-45614500D01*
X147136849Y-45614500D01*
X147136824Y-45614501D01*
X147101375Y-45617290D01*
X146959594Y-45658481D01*
X146890406Y-45658481D01*
X146808728Y-45634751D01*
X146748627Y-45617291D01*
X146748625Y-45617290D01*
X146748620Y-45617290D01*
X146713163Y-45614500D01*
X146336849Y-45614500D01*
X146336824Y-45614501D01*
X146301372Y-45617291D01*
X146149614Y-45661380D01*
X146149609Y-45661382D01*
X146013583Y-45741827D01*
X146013574Y-45741834D01*
X145901834Y-45853574D01*
X145901827Y-45853583D01*
X145821382Y-45989609D01*
X145821380Y-45989614D01*
X145777292Y-46141366D01*
X145777290Y-46141379D01*
X145774500Y-46176829D01*
X145774500Y-47365500D01*
X145754815Y-47432539D01*
X145702011Y-47478294D01*
X145650500Y-47489500D01*
X144461849Y-47489500D01*
X144461824Y-47489501D01*
X144426375Y-47492290D01*
X144359094Y-47511837D01*
X144289224Y-47511636D01*
X144230555Y-47473694D01*
X144201712Y-47410055D01*
X144200500Y-47392760D01*
X144200500Y-40624500D01*
X144220185Y-40557461D01*
X144272989Y-40511706D01*
X144324500Y-40500500D01*
X144876000Y-40500500D01*
X144943039Y-40520185D01*
G37*
%TD.AperFunction*%
%TA.AperFunction,NonConductor*%
G36*
X191532329Y-46309350D02*
G01*
X191553133Y-46308009D01*
X191566063Y-46315187D01*
X191580636Y-46317709D01*
X191595993Y-46331803D01*
X191614220Y-46341922D01*
X191621217Y-46354952D01*
X191632113Y-46364952D01*
X191637412Y-46385111D01*
X191647276Y-46403478D01*
X191648911Y-46428850D01*
X191649878Y-46432525D01*
X191649547Y-46438699D01*
X191649501Y-46439280D01*
X191649500Y-46439313D01*
X191649500Y-46870701D01*
X191652401Y-46907567D01*
X191652402Y-46907573D01*
X191698254Y-47065393D01*
X191698255Y-47065396D01*
X191698256Y-47065398D01*
X191708529Y-47082768D01*
X191781917Y-47206862D01*
X191786702Y-47213031D01*
X191784256Y-47214927D01*
X191810857Y-47263642D01*
X191805873Y-47333334D01*
X191785069Y-47365703D01*
X191786702Y-47366969D01*
X191781917Y-47373137D01*
X191698255Y-47514603D01*
X191698254Y-47514606D01*
X191652790Y-47671095D01*
X191615184Y-47729981D01*
X191551712Y-47759187D01*
X191533714Y-47760500D01*
X191138046Y-47760500D01*
X191071007Y-47740815D01*
X191025252Y-47688011D01*
X191016429Y-47660691D01*
X191000420Y-47580210D01*
X190989737Y-47526503D01*
X190984808Y-47514603D01*
X190929397Y-47380827D01*
X190929390Y-47380814D01*
X190841789Y-47249711D01*
X190841786Y-47249707D01*
X190836819Y-47244740D01*
X190822115Y-47217812D01*
X190805523Y-47191994D01*
X190804631Y-47185793D01*
X190803334Y-47183417D01*
X190800500Y-47157059D01*
X190800500Y-47129601D01*
X190820185Y-47062562D01*
X190868206Y-47019116D01*
X190881610Y-47012287D01*
X191047219Y-46891966D01*
X191191966Y-46747219D01*
X191191968Y-46747215D01*
X191191971Y-46747213D01*
X191254742Y-46660814D01*
X191312287Y-46581610D01*
X191405220Y-46399219D01*
X191407997Y-46390670D01*
X191419761Y-46373465D01*
X191427183Y-46353985D01*
X191439085Y-46345204D01*
X191447432Y-46332997D01*
X191466631Y-46324882D01*
X191483408Y-46312506D01*
X191498168Y-46311554D01*
X191511790Y-46305797D01*
X191532329Y-46309350D01*
G37*
%TD.AperFunction*%
%TA.AperFunction,NonConductor*%
G36*
X155741445Y-46443865D02*
G01*
X155780485Y-46488919D01*
X155827715Y-46581614D01*
X155948028Y-46747213D01*
X155948034Y-46747219D01*
X156092781Y-46891966D01*
X156258390Y-47012287D01*
X156271793Y-47019116D01*
X156322589Y-47067088D01*
X156339500Y-47129601D01*
X156339500Y-47694077D01*
X156319815Y-47761116D01*
X156267011Y-47806871D01*
X156197853Y-47816815D01*
X156134297Y-47787790D01*
X156112398Y-47762968D01*
X156066789Y-47694711D01*
X156066786Y-47694707D01*
X155955292Y-47583213D01*
X155955288Y-47583210D01*
X155824185Y-47495609D01*
X155824172Y-47495602D01*
X155678501Y-47435264D01*
X155678489Y-47435261D01*
X155523845Y-47404500D01*
X155523842Y-47404500D01*
X155366158Y-47404500D01*
X155366155Y-47404500D01*
X155211510Y-47435261D01*
X155211498Y-47435264D01*
X155065827Y-47495602D01*
X155065814Y-47495609D01*
X154934711Y-47583210D01*
X154934707Y-47583213D01*
X154914740Y-47603181D01*
X154887812Y-47617884D01*
X154861994Y-47634477D01*
X154855793Y-47635368D01*
X154853417Y-47636666D01*
X154827059Y-47639500D01*
X154583101Y-47639500D01*
X154518325Y-47620479D01*
X154518135Y-47620801D01*
X154516867Y-47620051D01*
X154516062Y-47619815D01*
X154513985Y-47618346D01*
X154375390Y-47536382D01*
X154375385Y-47536380D01*
X154326397Y-47522148D01*
X154317457Y-47516438D01*
X154306994Y-47514697D01*
X154288521Y-47497959D01*
X154267512Y-47484542D01*
X154263077Y-47474905D01*
X154255217Y-47467783D01*
X154248725Y-47443715D01*
X154238305Y-47421070D01*
X154239303Y-47408781D01*
X154237022Y-47400324D01*
X154241855Y-47377358D01*
X154242818Y-47365509D01*
X154244410Y-47360497D01*
X154259737Y-47323497D01*
X154265698Y-47293526D01*
X154267793Y-47286937D01*
X154283617Y-47263474D01*
X154296735Y-47238397D01*
X154302897Y-47234887D01*
X154306861Y-47229011D01*
X154332854Y-47217829D01*
X154357451Y-47203823D01*
X154368372Y-47202550D01*
X154371044Y-47201401D01*
X154374004Y-47201893D01*
X154385967Y-47200500D01*
X154502351Y-47200500D01*
X154502352Y-47200500D01*
X154704534Y-47168477D01*
X154899219Y-47105220D01*
X155081610Y-47012287D01*
X155225738Y-46907573D01*
X155247213Y-46891971D01*
X155247215Y-46891968D01*
X155247219Y-46891966D01*
X155391966Y-46747219D01*
X155391968Y-46747215D01*
X155391971Y-46747213D01*
X155512284Y-46581614D01*
X155512285Y-46581613D01*
X155512287Y-46581610D01*
X155559516Y-46488917D01*
X155607489Y-46438123D01*
X155675310Y-46421328D01*
X155741445Y-46443865D01*
G37*
%TD.AperFunction*%
%TA.AperFunction,NonConductor*%
G36*
X177190614Y-44420185D02*
G01*
X177236369Y-44472989D01*
X177246313Y-44542147D01*
X177217288Y-44605703D01*
X177161894Y-44642431D01*
X177000776Y-44694781D01*
X176818386Y-44787715D01*
X176652786Y-44908028D01*
X176508028Y-45052786D01*
X176387715Y-45218386D01*
X176294781Y-45400776D01*
X176231522Y-45595465D01*
X176199500Y-45797648D01*
X176199500Y-46002351D01*
X176231522Y-46204534D01*
X176294781Y-46399223D01*
X176387715Y-46581613D01*
X176508028Y-46747213D01*
X176508034Y-46747219D01*
X176652781Y-46891966D01*
X176818390Y-47012287D01*
X176831793Y-47019116D01*
X176882589Y-47067088D01*
X176899500Y-47129601D01*
X176899500Y-48075500D01*
X176879815Y-48142539D01*
X176827011Y-48188294D01*
X176775500Y-48199500D01*
X176621155Y-48199500D01*
X176466510Y-48230261D01*
X176466498Y-48230264D01*
X176320822Y-48290604D01*
X176320820Y-48290605D01*
X176318885Y-48291899D01*
X176317717Y-48292264D01*
X176315451Y-48293476D01*
X176315221Y-48293045D01*
X176252206Y-48312773D01*
X176184827Y-48294285D01*
X176181115Y-48291899D01*
X176179179Y-48290605D01*
X176179177Y-48290604D01*
X176033501Y-48230264D01*
X176033491Y-48230261D01*
X175878151Y-48199362D01*
X175816241Y-48166977D01*
X175814662Y-48165426D01*
X175718717Y-48069481D01*
X175718716Y-48069480D01*
X175626731Y-48016373D01*
X175581785Y-47990423D01*
X175429057Y-47949499D01*
X175270943Y-47949499D01*
X175263347Y-47949499D01*
X175263331Y-47949500D01*
X174555301Y-47949500D01*
X174488262Y-47929815D01*
X174442507Y-47877011D01*
X174437595Y-47864504D01*
X174429092Y-47838844D01*
X174409814Y-47780666D01*
X174317712Y-47631344D01*
X174193656Y-47507288D01*
X174044334Y-47415186D01*
X173877797Y-47360001D01*
X173877795Y-47360000D01*
X173775016Y-47349500D01*
X173775009Y-47349500D01*
X173415714Y-47349500D01*
X173348675Y-47329815D01*
X173302920Y-47277011D01*
X173292976Y-47207853D01*
X173294097Y-47201309D01*
X173310499Y-47118846D01*
X173310500Y-47118844D01*
X173310500Y-46961155D01*
X173310499Y-46961153D01*
X173296737Y-46891966D01*
X173279737Y-46806503D01*
X173279735Y-46806498D01*
X173219397Y-46660827D01*
X173219390Y-46660814D01*
X173131789Y-46529711D01*
X173131786Y-46529707D01*
X173020292Y-46418213D01*
X173020288Y-46418210D01*
X172889185Y-46330609D01*
X172889172Y-46330602D01*
X172743501Y-46270264D01*
X172743489Y-46270261D01*
X172588845Y-46239500D01*
X172588842Y-46239500D01*
X172431158Y-46239500D01*
X172431157Y-46239500D01*
X172386189Y-46248444D01*
X172316598Y-46242215D01*
X172261421Y-46199351D01*
X172238178Y-46133461D01*
X172238000Y-46126826D01*
X172238000Y-45812597D01*
X172257685Y-45745558D01*
X172274319Y-45724916D01*
X173562417Y-44436819D01*
X173623740Y-44403334D01*
X173650098Y-44400500D01*
X177123575Y-44400500D01*
X177190614Y-44420185D01*
G37*
%TD.AperFunction*%
%TA.AperFunction,NonConductor*%
G36*
X200112260Y-47275185D02*
G01*
X200158015Y-47327989D01*
X200167959Y-47397147D01*
X200159782Y-47426952D01*
X200110264Y-47546498D01*
X200110261Y-47546510D01*
X200079500Y-47701153D01*
X200079500Y-47858846D01*
X200110261Y-48013489D01*
X200110264Y-48013501D01*
X200170602Y-48159172D01*
X200170609Y-48159185D01*
X200258210Y-48290288D01*
X200258213Y-48290292D01*
X200345740Y-48377819D01*
X200379225Y-48439142D01*
X200374241Y-48508834D01*
X200332369Y-48564767D01*
X200266905Y-48589184D01*
X200258059Y-48589500D01*
X198633460Y-48589500D01*
X198566421Y-48569815D01*
X198520666Y-48517011D01*
X198510056Y-48453354D01*
X198510500Y-48448843D01*
X198510500Y-48291155D01*
X198510499Y-48291153D01*
X198492268Y-48199500D01*
X198479737Y-48136503D01*
X198451976Y-48069481D01*
X198419397Y-47990827D01*
X198419390Y-47990814D01*
X198331398Y-47859125D01*
X198310520Y-47792447D01*
X198310500Y-47790234D01*
X198310500Y-47379500D01*
X198330185Y-47312461D01*
X198382989Y-47266706D01*
X198434500Y-47255500D01*
X200045221Y-47255500D01*
X200112260Y-47275185D01*
G37*
%TD.AperFunction*%
%TA.AperFunction,NonConductor*%
G36*
X158227227Y-46425389D02*
G01*
X158239808Y-46424850D01*
X158259673Y-46436445D01*
X158281445Y-46443865D01*
X158290719Y-46454568D01*
X158300150Y-46460073D01*
X158320485Y-46488919D01*
X158367715Y-46581614D01*
X158488028Y-46747213D01*
X158488034Y-46747219D01*
X158632781Y-46891966D01*
X158798390Y-47012287D01*
X158811793Y-47019116D01*
X158862589Y-47067088D01*
X158879500Y-47129601D01*
X158879500Y-48889195D01*
X158859815Y-48956234D01*
X158807011Y-49001989D01*
X158737853Y-49011933D01*
X158686609Y-48992297D01*
X158639185Y-48960609D01*
X158639172Y-48960602D01*
X158493501Y-48900264D01*
X158493489Y-48900261D01*
X158338845Y-48869500D01*
X158338842Y-48869500D01*
X158181158Y-48869500D01*
X158181155Y-48869500D01*
X158026510Y-48900261D01*
X158026498Y-48900264D01*
X157880827Y-48960602D01*
X157880814Y-48960609D01*
X157749711Y-49048210D01*
X157749707Y-49048213D01*
X157638213Y-49159707D01*
X157638210Y-49159711D01*
X157621720Y-49184391D01*
X157615628Y-49189481D01*
X157612331Y-49196703D01*
X157589203Y-49211566D01*
X157568108Y-49229196D01*
X157558733Y-49231147D01*
X157553553Y-49234477D01*
X157518618Y-49239500D01*
X157463371Y-49239500D01*
X157396332Y-49219815D01*
X157350577Y-49167011D01*
X157340633Y-49097853D01*
X157369658Y-49034297D01*
X157394480Y-49012398D01*
X157418238Y-48996523D01*
X157440289Y-48981789D01*
X157551789Y-48870289D01*
X157639394Y-48739179D01*
X157649290Y-48715289D01*
X157680584Y-48639736D01*
X157699737Y-48593497D01*
X157730500Y-48438842D01*
X157730500Y-48281158D01*
X157730500Y-48281155D01*
X157730499Y-48281153D01*
X157714257Y-48199500D01*
X157699737Y-48126503D01*
X157676118Y-48069481D01*
X157639397Y-47980827D01*
X157639390Y-47980814D01*
X157561398Y-47864091D01*
X157540520Y-47797413D01*
X157540500Y-47795200D01*
X157540500Y-47129601D01*
X157560185Y-47062562D01*
X157608206Y-47019116D01*
X157621610Y-47012287D01*
X157787219Y-46891966D01*
X157931966Y-46747219D01*
X157931968Y-46747215D01*
X157931971Y-46747213D01*
X158052284Y-46581614D01*
X158052285Y-46581613D01*
X158052287Y-46581610D01*
X158099516Y-46488917D01*
X158108161Y-46479764D01*
X158112896Y-46468099D01*
X158131693Y-46454847D01*
X158147489Y-46438123D01*
X158159711Y-46435096D01*
X158170002Y-46427842D01*
X158192982Y-46426856D01*
X158215310Y-46421328D01*
X158227227Y-46425389D01*
G37*
%TD.AperFunction*%
%TA.AperFunction,NonConductor*%
G36*
X156173600Y-48710991D02*
G01*
X156229534Y-48752862D01*
X156233369Y-48758282D01*
X156308210Y-48870288D01*
X156308213Y-48870292D01*
X156419707Y-48981786D01*
X156419711Y-48981789D01*
X156465520Y-49012398D01*
X156510325Y-49066010D01*
X156519032Y-49135335D01*
X156488878Y-49198363D01*
X156429435Y-49235082D01*
X156396629Y-49239500D01*
X155606438Y-49239500D01*
X155539399Y-49219815D01*
X155493644Y-49167011D01*
X155483700Y-49097853D01*
X155512725Y-49034297D01*
X155571503Y-48996523D01*
X155582247Y-48993883D01*
X155643044Y-48981789D01*
X155678497Y-48974737D01*
X155824179Y-48914394D01*
X155955289Y-48826789D01*
X156042587Y-48739490D01*
X156103908Y-48706007D01*
X156173600Y-48710991D01*
G37*
%TD.AperFunction*%
%TA.AperFunction,NonConductor*%
G36*
X154984655Y-48860185D02*
G01*
X154986507Y-48861398D01*
X155044672Y-48900263D01*
X155065821Y-48914394D01*
X155065823Y-48914395D01*
X155065827Y-48914397D01*
X155211498Y-48974735D01*
X155211503Y-48974737D01*
X155246956Y-48981789D01*
X155307753Y-48993883D01*
X155369664Y-49026268D01*
X155404238Y-49086984D01*
X155400499Y-49156753D01*
X155359632Y-49213425D01*
X155294614Y-49239006D01*
X155283562Y-49239500D01*
X154874500Y-49239500D01*
X154807461Y-49219815D01*
X154761706Y-49167011D01*
X154750500Y-49115501D01*
X154750499Y-48964501D01*
X154753049Y-48955814D01*
X154751761Y-48946853D01*
X154762738Y-48922815D01*
X154770183Y-48897461D01*
X154777025Y-48891532D01*
X154780786Y-48883297D01*
X154803017Y-48869010D01*
X154822987Y-48851706D01*
X154833502Y-48849418D01*
X154839564Y-48845523D01*
X154874499Y-48840500D01*
X154917616Y-48840500D01*
X154984655Y-48860185D01*
G37*
%TD.AperFunction*%
%TA.AperFunction,NonConductor*%
G36*
X183921445Y-46443865D02*
G01*
X183960485Y-46488919D01*
X184007715Y-46581614D01*
X184128028Y-46747213D01*
X184128034Y-46747219D01*
X184272781Y-46891966D01*
X184438390Y-47012287D01*
X184451793Y-47019116D01*
X184502589Y-47067088D01*
X184519500Y-47129601D01*
X184519500Y-48726221D01*
X184499815Y-48793260D01*
X184447011Y-48839015D01*
X184377853Y-48848959D01*
X184371309Y-48847838D01*
X184228845Y-48819500D01*
X184228842Y-48819500D01*
X184071158Y-48819500D01*
X184071155Y-48819500D01*
X183916510Y-48850261D01*
X183916498Y-48850264D01*
X183770827Y-48910602D01*
X183770814Y-48910609D01*
X183639711Y-48998210D01*
X183639707Y-48998213D01*
X183528213Y-49109707D01*
X183528210Y-49109711D01*
X183440609Y-49240814D01*
X183440606Y-49240821D01*
X183419061Y-49292835D01*
X183375220Y-49347238D01*
X183308926Y-49369303D01*
X183241227Y-49352024D01*
X183193616Y-49300887D01*
X183180500Y-49245382D01*
X183180500Y-47129601D01*
X183200185Y-47062562D01*
X183248206Y-47019116D01*
X183261610Y-47012287D01*
X183427219Y-46891966D01*
X183571966Y-46747219D01*
X183571968Y-46747215D01*
X183571971Y-46747213D01*
X183692284Y-46581614D01*
X183692285Y-46581613D01*
X183692287Y-46581610D01*
X183739516Y-46488917D01*
X183787489Y-46438123D01*
X183855310Y-46421328D01*
X183921445Y-46443865D01*
G37*
%TD.AperFunction*%
%TA.AperFunction,NonConductor*%
G36*
X188947227Y-46425389D02*
G01*
X188959808Y-46424850D01*
X188979673Y-46436445D01*
X189001445Y-46443865D01*
X189010719Y-46454568D01*
X189020150Y-46460073D01*
X189040485Y-46488919D01*
X189087715Y-46581614D01*
X189208028Y-46747213D01*
X189208034Y-46747219D01*
X189352781Y-46891966D01*
X189518390Y-47012287D01*
X189531793Y-47019116D01*
X189542856Y-47029564D01*
X189556703Y-47035888D01*
X189567744Y-47053068D01*
X189582589Y-47067088D01*
X189586830Y-47082768D01*
X189594477Y-47094666D01*
X189599500Y-47129601D01*
X189599500Y-47210166D01*
X189579815Y-47277205D01*
X189578602Y-47279057D01*
X189510609Y-47380814D01*
X189510602Y-47380827D01*
X189450264Y-47526498D01*
X189450261Y-47526510D01*
X189423571Y-47660691D01*
X189391186Y-47722602D01*
X189330471Y-47757176D01*
X189301954Y-47760500D01*
X189159883Y-47760500D01*
X189121366Y-47770820D01*
X189121367Y-47770821D01*
X189007157Y-47801423D01*
X189007152Y-47801426D01*
X188870233Y-47880475D01*
X188870225Y-47880481D01*
X188803504Y-47947203D01*
X188758423Y-47992284D01*
X188758421Y-47992286D01*
X188044701Y-48706007D01*
X187357527Y-49393181D01*
X187296204Y-49426666D01*
X187269846Y-49429500D01*
X186530942Y-49429500D01*
X186378213Y-49470423D01*
X186346091Y-49488969D01*
X186346083Y-49488974D01*
X186341063Y-49491873D01*
X186241284Y-49549480D01*
X186193480Y-49597283D01*
X186184957Y-49603333D01*
X186161403Y-49611443D01*
X186139545Y-49623379D01*
X186128945Y-49622620D01*
X186118894Y-49626082D01*
X186094693Y-49620170D01*
X186069853Y-49618394D01*
X186061345Y-49612025D01*
X186051020Y-49609503D01*
X186033858Y-49591448D01*
X186013920Y-49576522D01*
X186008837Y-49565124D01*
X186002883Y-49558860D01*
X186000512Y-49546455D01*
X185991571Y-49526404D01*
X185976211Y-49449185D01*
X185964737Y-49391503D01*
X185955542Y-49369303D01*
X185904397Y-49245827D01*
X185904390Y-49245814D01*
X185816789Y-49114711D01*
X185816786Y-49114707D01*
X185756819Y-49054740D01*
X185723334Y-48993417D01*
X185720500Y-48967059D01*
X185720500Y-47129601D01*
X185740185Y-47062562D01*
X185788206Y-47019116D01*
X185801610Y-47012287D01*
X185967219Y-46891966D01*
X186111966Y-46747219D01*
X186111968Y-46747215D01*
X186111971Y-46747213D01*
X186232284Y-46581614D01*
X186232285Y-46581613D01*
X186232287Y-46581610D01*
X186279516Y-46488917D01*
X186327489Y-46438123D01*
X186395310Y-46421328D01*
X186461445Y-46443865D01*
X186500485Y-46488919D01*
X186547715Y-46581614D01*
X186668028Y-46747213D01*
X186812786Y-46891971D01*
X186908012Y-46961155D01*
X186978390Y-47012287D01*
X187059499Y-47053614D01*
X187160776Y-47105218D01*
X187160778Y-47105218D01*
X187160781Y-47105220D01*
X187202718Y-47118846D01*
X187355465Y-47168477D01*
X187443668Y-47182447D01*
X187557648Y-47200500D01*
X187557649Y-47200500D01*
X187762351Y-47200500D01*
X187762352Y-47200500D01*
X187964534Y-47168477D01*
X188159219Y-47105220D01*
X188341610Y-47012287D01*
X188485738Y-46907573D01*
X188507213Y-46891971D01*
X188507215Y-46891968D01*
X188507219Y-46891966D01*
X188651966Y-46747219D01*
X188651968Y-46747215D01*
X188651971Y-46747213D01*
X188772284Y-46581614D01*
X188772285Y-46581613D01*
X188772287Y-46581610D01*
X188819516Y-46488917D01*
X188828161Y-46479764D01*
X188832896Y-46468099D01*
X188851693Y-46454847D01*
X188867489Y-46438123D01*
X188879711Y-46435096D01*
X188890002Y-46427842D01*
X188912982Y-46426856D01*
X188935310Y-46421328D01*
X188947227Y-46425389D01*
G37*
%TD.AperFunction*%
%TA.AperFunction,NonConductor*%
G36*
X190531941Y-48981185D02*
G01*
X190577696Y-49033989D01*
X190587640Y-49103147D01*
X190558615Y-49166703D01*
X190552583Y-49173181D01*
X189932584Y-49793181D01*
X189871261Y-49826666D01*
X189844903Y-49829500D01*
X188919040Y-49829500D01*
X188852001Y-49809815D01*
X188806246Y-49757011D01*
X188796302Y-49687853D01*
X188825327Y-49624297D01*
X188831359Y-49617819D01*
X189451359Y-48997819D01*
X189512682Y-48964334D01*
X189539040Y-48961500D01*
X190464902Y-48961500D01*
X190531941Y-48981185D01*
G37*
%TD.AperFunction*%
%TA.AperFunction,NonConductor*%
G36*
X172593334Y-49470548D02*
G01*
X172637681Y-49499049D01*
X172731344Y-49592712D01*
X172880666Y-49684814D01*
X173023953Y-49732294D01*
X173081396Y-49772065D01*
X173108219Y-49836581D01*
X173095904Y-49905357D01*
X173048361Y-49956557D01*
X173023952Y-49967705D01*
X172880666Y-50015186D01*
X172880663Y-50015187D01*
X172731342Y-50107289D01*
X172637681Y-50200951D01*
X172634902Y-50202468D01*
X172633249Y-50205170D01*
X172604435Y-50219104D01*
X172576358Y-50234436D01*
X172573200Y-50234210D01*
X172570349Y-50235589D01*
X172538580Y-50231734D01*
X172506666Y-50229452D01*
X172503188Y-50227439D01*
X172500988Y-50227173D01*
X172490886Y-50220323D01*
X172470884Y-50208751D01*
X172466420Y-50205052D01*
X172368656Y-50107288D01*
X172289548Y-50058494D01*
X172282884Y-50052972D01*
X172267992Y-50030887D01*
X172250178Y-50011081D01*
X172247911Y-50001105D01*
X172243822Y-49995041D01*
X172243530Y-49981828D01*
X172238000Y-49957491D01*
X172238000Y-49742507D01*
X172257685Y-49675468D01*
X172296903Y-49636968D01*
X172368656Y-49592712D01*
X172462319Y-49499049D01*
X172523642Y-49465564D01*
X172593334Y-49470548D01*
G37*
%TD.AperFunction*%
%TA.AperFunction,NonConductor*%
G36*
X174980161Y-49170185D02*
G01*
X175025916Y-49222989D01*
X175027784Y-49227930D01*
X175027932Y-49227869D01*
X175090602Y-49379172D01*
X175090609Y-49379185D01*
X175178210Y-49510288D01*
X175178213Y-49510292D01*
X175289707Y-49621786D01*
X175289711Y-49621789D01*
X175420814Y-49709390D01*
X175420827Y-49709397D01*
X175520060Y-49750500D01*
X175566503Y-49769737D01*
X175721153Y-49800499D01*
X175721156Y-49800500D01*
X175721158Y-49800500D01*
X175878843Y-49800500D01*
X175895712Y-49797144D01*
X175941571Y-49788022D01*
X176011162Y-49794249D01*
X176066340Y-49837111D01*
X176089585Y-49903000D01*
X176073518Y-49970998D01*
X176053444Y-49997320D01*
X175537584Y-50513181D01*
X175476261Y-50546666D01*
X175449903Y-50549500D01*
X174555301Y-50549500D01*
X174488262Y-50529815D01*
X174442507Y-50477011D01*
X174437595Y-50464504D01*
X174432146Y-50448059D01*
X174409814Y-50380666D01*
X174317712Y-50231344D01*
X174193656Y-50107288D01*
X174059483Y-50024530D01*
X174044336Y-50015187D01*
X174044331Y-50015185D01*
X173990418Y-49997320D01*
X173901046Y-49967705D01*
X173843603Y-49927933D01*
X173816780Y-49863417D01*
X173829095Y-49794642D01*
X173876638Y-49743442D01*
X173901045Y-49732295D01*
X174044334Y-49684814D01*
X174193656Y-49592712D01*
X174317712Y-49468656D01*
X174409814Y-49319334D01*
X174437595Y-49235495D01*
X174477368Y-49178051D01*
X174541884Y-49151228D01*
X174555301Y-49150500D01*
X174913122Y-49150500D01*
X174980161Y-49170185D01*
G37*
%TD.AperFunction*%
%TA.AperFunction,NonConductor*%
G36*
X195535703Y-47355384D02*
G01*
X195542181Y-47361416D01*
X195543181Y-47362416D01*
X195576666Y-47423739D01*
X195579500Y-47450097D01*
X195579500Y-50448059D01*
X195573261Y-50469304D01*
X195571682Y-50491393D01*
X195563609Y-50502176D01*
X195559815Y-50515098D01*
X195543081Y-50529597D01*
X195529810Y-50547326D01*
X195517189Y-50552033D01*
X195507011Y-50560853D01*
X195485093Y-50564004D01*
X195464346Y-50571743D01*
X195451185Y-50568880D01*
X195437853Y-50570797D01*
X195417709Y-50561597D01*
X195396073Y-50556891D01*
X195378347Y-50543622D01*
X195374297Y-50541772D01*
X195367819Y-50535740D01*
X195366819Y-50534740D01*
X195333334Y-50473417D01*
X195330500Y-50447059D01*
X195330500Y-47449097D01*
X195350185Y-47382058D01*
X195402989Y-47336303D01*
X195472147Y-47326359D01*
X195535703Y-47355384D01*
G37*
%TD.AperFunction*%
%TA.AperFunction,NonConductor*%
G36*
X191622344Y-49904404D02*
G01*
X191678277Y-49946276D01*
X191702694Y-50011740D01*
X191698087Y-50055180D01*
X191652401Y-50212432D01*
X191649500Y-50249298D01*
X191649500Y-50680701D01*
X191652401Y-50717567D01*
X191652402Y-50717573D01*
X191698254Y-50875393D01*
X191698257Y-50875400D01*
X191740825Y-50947380D01*
X191758008Y-51015104D01*
X191735848Y-51081366D01*
X191681381Y-51125129D01*
X191634093Y-51134500D01*
X190587112Y-51134500D01*
X190565442Y-51128137D01*
X190542928Y-51126361D01*
X190532562Y-51118482D01*
X190520073Y-51114815D01*
X190505285Y-51097749D01*
X190487303Y-51084081D01*
X190482842Y-51071848D01*
X190474318Y-51062011D01*
X190471104Y-51039660D01*
X190463366Y-51018440D01*
X190466226Y-51005738D01*
X190464374Y-50992853D01*
X190473755Y-50972310D01*
X190478718Y-50950277D01*
X190489556Y-50937709D01*
X190493399Y-50929297D01*
X190500076Y-50922179D01*
X190509347Y-50913041D01*
X190513716Y-50910520D01*
X190625520Y-50798716D01*
X190625521Y-50798713D01*
X191491332Y-49932902D01*
X191552652Y-49899420D01*
X191622344Y-49904404D01*
G37*
%TD.AperFunction*%
%TA.AperFunction,NonConductor*%
G36*
X200843507Y-49792396D02*
G01*
X200850128Y-49791192D01*
X200876607Y-49802115D01*
X200904089Y-49810185D01*
X200908495Y-49815269D01*
X200914718Y-49817837D01*
X200931091Y-49841347D01*
X200949844Y-49862989D01*
X200950801Y-49869649D01*
X200954648Y-49875172D01*
X200955711Y-49903795D01*
X200959788Y-49932147D01*
X200957053Y-49939916D01*
X200957242Y-49944994D01*
X200943782Y-49977620D01*
X200898257Y-50054599D01*
X200898254Y-50054606D01*
X200852402Y-50212426D01*
X200852401Y-50212432D01*
X200849500Y-50249298D01*
X200849500Y-50680701D01*
X200852401Y-50717565D01*
X200852402Y-50717567D01*
X200852402Y-50717569D01*
X200870302Y-50779179D01*
X200876129Y-50799237D01*
X200875929Y-50869107D01*
X200837986Y-50927777D01*
X200781244Y-50955449D01*
X200656508Y-50980261D01*
X200656498Y-50980264D01*
X200510827Y-51040602D01*
X200510814Y-51040609D01*
X200379711Y-51128210D01*
X200379707Y-51128213D01*
X200268213Y-51239707D01*
X200268210Y-51239711D01*
X200180609Y-51370814D01*
X200180604Y-51370824D01*
X200120506Y-51515914D01*
X200076665Y-51570317D01*
X200010371Y-51592382D01*
X199981763Y-51590080D01*
X199978848Y-51589500D01*
X199978842Y-51589500D01*
X199821158Y-51589500D01*
X199821153Y-51589500D01*
X199732163Y-51607201D01*
X199662571Y-51600974D01*
X199607394Y-51558110D01*
X199586355Y-51509776D01*
X199579737Y-51476503D01*
X199555592Y-51418211D01*
X199519397Y-51330827D01*
X199519390Y-51330814D01*
X199431789Y-51199711D01*
X199431786Y-51199707D01*
X199320292Y-51088213D01*
X199320288Y-51088210D01*
X199189185Y-51000609D01*
X199189172Y-51000602D01*
X199043501Y-50940264D01*
X199043489Y-50940261D01*
X198888845Y-50909500D01*
X198888842Y-50909500D01*
X198731158Y-50909500D01*
X198731157Y-50909500D01*
X198728688Y-50909991D01*
X198727369Y-50909872D01*
X198725095Y-50910097D01*
X198725052Y-50909665D01*
X198659097Y-50903762D01*
X198603921Y-50860897D01*
X198580678Y-50795007D01*
X198580500Y-50788373D01*
X198580500Y-49914500D01*
X198600185Y-49847461D01*
X198652989Y-49801706D01*
X198704500Y-49790500D01*
X200837050Y-49790500D01*
X200843507Y-49792396D01*
G37*
%TD.AperFunction*%
%TA.AperFunction,NonConductor*%
G36*
X195504312Y-53042302D02*
G01*
X195558190Y-53086787D01*
X195579465Y-53153339D01*
X195579500Y-53156290D01*
X195579500Y-53495500D01*
X195559815Y-53562539D01*
X195507011Y-53608294D01*
X195455500Y-53619500D01*
X195269098Y-53619500D01*
X195202059Y-53599815D01*
X195156304Y-53547011D01*
X195146360Y-53477853D01*
X195168532Y-53422957D01*
X195174364Y-53414871D01*
X195215520Y-53373716D01*
X195230520Y-53358716D01*
X195290112Y-53255499D01*
X195309577Y-53221785D01*
X195335726Y-53124195D01*
X195372090Y-53064536D01*
X195434937Y-53034007D01*
X195504312Y-53042302D01*
G37*
%TD.AperFunction*%
%TA.AperFunction,NonConductor*%
G36*
X150792615Y-49870185D02*
G01*
X150838370Y-49922989D01*
X150848314Y-49992147D01*
X150840137Y-50021952D01*
X150780264Y-50166498D01*
X150780261Y-50166510D01*
X150749500Y-50321153D01*
X150749500Y-50478846D01*
X150780261Y-50633489D01*
X150780264Y-50633501D01*
X150840602Y-50779172D01*
X150840609Y-50779185D01*
X150928210Y-50910288D01*
X150928213Y-50910292D01*
X151039707Y-51021786D01*
X151039711Y-51021789D01*
X151170814Y-51109390D01*
X151170827Y-51109397D01*
X151294992Y-51160827D01*
X151316503Y-51169737D01*
X151471153Y-51200499D01*
X151471156Y-51200500D01*
X151471158Y-51200500D01*
X151628844Y-51200500D01*
X151628845Y-51200499D01*
X151783497Y-51169737D01*
X151896166Y-51123067D01*
X151929172Y-51109397D01*
X151929172Y-51109396D01*
X151929179Y-51109394D01*
X152060289Y-51021789D01*
X152069098Y-51012979D01*
X152130418Y-50979494D01*
X152200110Y-50984476D01*
X152256045Y-51026345D01*
X152280465Y-51091808D01*
X152275858Y-51135253D01*
X152252291Y-51216372D01*
X152252290Y-51216379D01*
X152249500Y-51251829D01*
X152249500Y-51628150D01*
X152249501Y-51628175D01*
X152252290Y-51663624D01*
X152293481Y-51805406D01*
X152293481Y-51874594D01*
X152252291Y-52016373D01*
X152252290Y-52016379D01*
X152249500Y-52051829D01*
X152249500Y-52428150D01*
X152249501Y-52428175D01*
X152252290Y-52463624D01*
X152293481Y-52605406D01*
X152293481Y-52674594D01*
X152252291Y-52816373D01*
X152252290Y-52816379D01*
X152249500Y-52851829D01*
X152249500Y-53228150D01*
X152249501Y-53228175D01*
X152252290Y-53263623D01*
X152252290Y-53263626D01*
X152252291Y-53263627D01*
X152263121Y-53300907D01*
X152262922Y-53370775D01*
X152224980Y-53429445D01*
X152161341Y-53458288D01*
X152144045Y-53459500D01*
X151340942Y-53459500D01*
X151188214Y-53500423D01*
X151152674Y-53520943D01*
X151152673Y-53520943D01*
X151051287Y-53579477D01*
X151051282Y-53579481D01*
X150844481Y-53786282D01*
X150844477Y-53786287D01*
X150796295Y-53869743D01*
X150796294Y-53869745D01*
X150777381Y-53902502D01*
X150726813Y-53950717D01*
X150669995Y-53964500D01*
X150336849Y-53964500D01*
X150336819Y-53964502D01*
X150299556Y-53967433D01*
X150299108Y-53967338D01*
X150298679Y-53967499D01*
X150264967Y-53960165D01*
X150231179Y-53953066D01*
X150230701Y-53952711D01*
X150230406Y-53952647D01*
X150202152Y-53931496D01*
X150171542Y-53900886D01*
X149756071Y-53485414D01*
X149729191Y-53445185D01*
X149669397Y-53300827D01*
X149669390Y-53300814D01*
X149581789Y-53169711D01*
X149581786Y-53169707D01*
X149470292Y-53058213D01*
X149470288Y-53058210D01*
X149339185Y-52970609D01*
X149339172Y-52970602D01*
X149193501Y-52910264D01*
X149193489Y-52910261D01*
X149038845Y-52879500D01*
X149038842Y-52879500D01*
X148881158Y-52879500D01*
X148881155Y-52879500D01*
X148726510Y-52910261D01*
X148726498Y-52910264D01*
X148580827Y-52970602D01*
X148580814Y-52970609D01*
X148449711Y-53058210D01*
X148449707Y-53058213D01*
X148338213Y-53169707D01*
X148338210Y-53169711D01*
X148250609Y-53300814D01*
X148250602Y-53300827D01*
X148190264Y-53446498D01*
X148190261Y-53446508D01*
X148159361Y-53601850D01*
X148150595Y-53618606D01*
X148146576Y-53637085D01*
X148127832Y-53662124D01*
X148126976Y-53663761D01*
X148125425Y-53665340D01*
X148027967Y-53762797D01*
X147966643Y-53796281D01*
X147896952Y-53791297D01*
X147841019Y-53749425D01*
X147818669Y-53699306D01*
X147811913Y-53665340D01*
X147800095Y-53605929D01*
X147799917Y-53605500D01*
X147737421Y-53454619D01*
X147739026Y-53453954D01*
X147726468Y-53393634D01*
X147735505Y-53356139D01*
X147769737Y-53273497D01*
X147800500Y-53118842D01*
X147800500Y-52961158D01*
X147800500Y-52961155D01*
X147800499Y-52961153D01*
X147791020Y-52913501D01*
X147769737Y-52806503D01*
X147753488Y-52767273D01*
X147720425Y-52687452D01*
X147712956Y-52617983D01*
X147720425Y-52592548D01*
X147745855Y-52531153D01*
X147769737Y-52473497D01*
X147796292Y-52339998D01*
X147800500Y-52318844D01*
X147800500Y-52161155D01*
X147800499Y-52161153D01*
X147793025Y-52123579D01*
X147769737Y-52006503D01*
X147750955Y-51961158D01*
X147710425Y-51863309D01*
X147702956Y-51793840D01*
X147710423Y-51768408D01*
X147749737Y-51673497D01*
X147780500Y-51518842D01*
X147780500Y-51361158D01*
X147780500Y-51361155D01*
X147780499Y-51361153D01*
X147774467Y-51330827D01*
X147749737Y-51206503D01*
X147747532Y-51201180D01*
X147689397Y-51060827D01*
X147689389Y-51060812D01*
X147681424Y-51048892D01*
X147660545Y-50982215D01*
X147679029Y-50914834D01*
X147681424Y-50911108D01*
X147689389Y-50899187D01*
X147689390Y-50899184D01*
X147689394Y-50899179D01*
X147749737Y-50753497D01*
X147780500Y-50598842D01*
X147780500Y-50508979D01*
X147800185Y-50441940D01*
X147852989Y-50396185D01*
X147857020Y-50394430D01*
X147869179Y-50389394D01*
X148000289Y-50301789D01*
X148111789Y-50190289D01*
X148199394Y-50059179D01*
X148201051Y-50055180D01*
X148254124Y-49927048D01*
X148297964Y-49872644D01*
X148364258Y-49850579D01*
X148368685Y-49850500D01*
X150725576Y-49850500D01*
X150792615Y-49870185D01*
G37*
%TD.AperFunction*%
%TA.AperFunction,NonConductor*%
G36*
X188782455Y-51036435D02*
G01*
X188803496Y-51037563D01*
X188815310Y-51046082D01*
X188829282Y-51050185D01*
X188843077Y-51066105D01*
X188860168Y-51078430D01*
X188865500Y-51091983D01*
X188875037Y-51102989D01*
X188878035Y-51123840D01*
X188885750Y-51143448D01*
X188884420Y-51168246D01*
X188884981Y-51172147D01*
X188883860Y-51178692D01*
X188859500Y-51301155D01*
X188859500Y-51458846D01*
X188890261Y-51613489D01*
X188890264Y-51613501D01*
X188950602Y-51759172D01*
X188950609Y-51759185D01*
X189038210Y-51890288D01*
X189038213Y-51890292D01*
X189149707Y-52001786D01*
X189149711Y-52001789D01*
X189280814Y-52089390D01*
X189280827Y-52089397D01*
X189424342Y-52148842D01*
X189426503Y-52149737D01*
X189581158Y-52180500D01*
X189581847Y-52180637D01*
X189623639Y-52197267D01*
X189635461Y-52204697D01*
X189646284Y-52215520D01*
X189722883Y-52259744D01*
X189783215Y-52294577D01*
X189935943Y-52335501D01*
X189935946Y-52335501D01*
X190101653Y-52335501D01*
X190101669Y-52335500D01*
X190411248Y-52335500D01*
X190478287Y-52355185D01*
X190524042Y-52407989D01*
X190533986Y-52477147D01*
X190532865Y-52483691D01*
X190509500Y-52601153D01*
X190509500Y-52758846D01*
X190540261Y-52913489D01*
X190540264Y-52913501D01*
X190600602Y-53059172D01*
X190600609Y-53059185D01*
X190688602Y-53190874D01*
X190709480Y-53257551D01*
X190709500Y-53259765D01*
X190709500Y-54687448D01*
X190689815Y-54754487D01*
X190637011Y-54800242D01*
X190567853Y-54810186D01*
X190547183Y-54805379D01*
X190504542Y-54791524D01*
X190504535Y-54791523D01*
X190403443Y-54775511D01*
X190302352Y-54759500D01*
X190097648Y-54759500D01*
X190073329Y-54763351D01*
X189895465Y-54791522D01*
X189700776Y-54854781D01*
X189518386Y-54947715D01*
X189352786Y-55068028D01*
X189208028Y-55212786D01*
X189087715Y-55378386D01*
X189040485Y-55471080D01*
X188992510Y-55521876D01*
X188924689Y-55538671D01*
X188858554Y-55516134D01*
X188819515Y-55471080D01*
X188810342Y-55453078D01*
X188772287Y-55378390D01*
X188736620Y-55329298D01*
X188651971Y-55212786D01*
X188507213Y-55068028D01*
X188341610Y-54947712D01*
X188328200Y-54940879D01*
X188277406Y-54892903D01*
X188260500Y-54830397D01*
X188260500Y-52632783D01*
X188280185Y-52565744D01*
X188288647Y-52554118D01*
X188291789Y-52550289D01*
X188379390Y-52419185D01*
X188379390Y-52419184D01*
X188379394Y-52419179D01*
X188439737Y-52273497D01*
X188470500Y-52118842D01*
X188470500Y-51961158D01*
X188470500Y-51961155D01*
X188470499Y-51961153D01*
X188456597Y-51891263D01*
X188439737Y-51806503D01*
X188423956Y-51768404D01*
X188379397Y-51660827D01*
X188379390Y-51660814D01*
X188291789Y-51529711D01*
X188291786Y-51529707D01*
X188180292Y-51418213D01*
X188180288Y-51418210D01*
X188049185Y-51330609D01*
X188049175Y-51330604D01*
X187993286Y-51307454D01*
X187969028Y-51287905D01*
X187943580Y-51269939D01*
X187942052Y-51266166D01*
X187938883Y-51263613D01*
X187929045Y-51234055D01*
X187917349Y-51205180D01*
X187918103Y-51201180D01*
X187916818Y-51197319D01*
X187924522Y-51167133D01*
X187930294Y-51136520D01*
X187933090Y-51133563D01*
X187934097Y-51129619D01*
X187956902Y-51108386D01*
X187978305Y-51085758D01*
X187982891Y-51084190D01*
X187985235Y-51082009D01*
X188011017Y-51072508D01*
X188023197Y-51069501D01*
X188028000Y-51069501D01*
X188084304Y-51054414D01*
X188085516Y-51054115D01*
X188087215Y-51054189D01*
X188115238Y-51050500D01*
X188403331Y-51050500D01*
X188403347Y-51050501D01*
X188410943Y-51050501D01*
X188569055Y-51050501D01*
X188569057Y-51050501D01*
X188621552Y-51036435D01*
X188627934Y-51034725D01*
X188660027Y-51030500D01*
X188762243Y-51030500D01*
X188782455Y-51036435D01*
G37*
%TD.AperFunction*%
%TA.AperFunction,NonConductor*%
G36*
X183385703Y-51775384D02*
G01*
X183392174Y-51781410D01*
X183691284Y-52080520D01*
X183691286Y-52080521D01*
X183691290Y-52080524D01*
X183812859Y-52150711D01*
X183828216Y-52159577D01*
X183980943Y-52200501D01*
X183980945Y-52200501D01*
X184146654Y-52200501D01*
X184146670Y-52200500D01*
X186743334Y-52200500D01*
X186750939Y-52200500D01*
X186750943Y-52200501D01*
X186787176Y-52200501D01*
X186854215Y-52220187D01*
X186899969Y-52272992D01*
X186899969Y-52272995D01*
X186901734Y-52277049D01*
X186960602Y-52419172D01*
X186960609Y-52419185D01*
X187038602Y-52535908D01*
X187059480Y-52602585D01*
X187059500Y-52604799D01*
X187059500Y-54830397D01*
X187039815Y-54897436D01*
X186991800Y-54940879D01*
X186978389Y-54947712D01*
X186812786Y-55068028D01*
X186668028Y-55212786D01*
X186547715Y-55378386D01*
X186500485Y-55471080D01*
X186452510Y-55521876D01*
X186384689Y-55538671D01*
X186318554Y-55516134D01*
X186279515Y-55471080D01*
X186270342Y-55453078D01*
X186232287Y-55378390D01*
X186182963Y-55310501D01*
X186111972Y-55212788D01*
X186111968Y-55212784D01*
X186111966Y-55212781D01*
X185976818Y-55077633D01*
X185943334Y-55016310D01*
X185940500Y-54989952D01*
X185940500Y-54921155D01*
X185940499Y-54921153D01*
X185938467Y-54910938D01*
X185909737Y-54766503D01*
X185898881Y-54740294D01*
X185849397Y-54620827D01*
X185849390Y-54620814D01*
X185761789Y-54489711D01*
X185761786Y-54489707D01*
X185650292Y-54378213D01*
X185650288Y-54378210D01*
X185519185Y-54290609D01*
X185519172Y-54290602D01*
X185373501Y-54230264D01*
X185373489Y-54230261D01*
X185218845Y-54199500D01*
X185218842Y-54199500D01*
X185061158Y-54199500D01*
X185061155Y-54199500D01*
X184906510Y-54230261D01*
X184906498Y-54230264D01*
X184760827Y-54290602D01*
X184760814Y-54290609D01*
X184629711Y-54378210D01*
X184629707Y-54378213D01*
X184518213Y-54489707D01*
X184518210Y-54489711D01*
X184430609Y-54620814D01*
X184430602Y-54620827D01*
X184370264Y-54766498D01*
X184370261Y-54766510D01*
X184339500Y-54921153D01*
X184339500Y-54956378D01*
X184319815Y-55023417D01*
X184288385Y-55056696D01*
X184272787Y-55068028D01*
X184272782Y-55068032D01*
X184128028Y-55212786D01*
X184007715Y-55378386D01*
X183960485Y-55471080D01*
X183912510Y-55521876D01*
X183844689Y-55538671D01*
X183778554Y-55516134D01*
X183739515Y-55471080D01*
X183730342Y-55453078D01*
X183692287Y-55378390D01*
X183656620Y-55329298D01*
X183571971Y-55212786D01*
X183427217Y-55068032D01*
X183410786Y-55056095D01*
X183368119Y-55000766D01*
X183362052Y-54931584D01*
X183380500Y-54838842D01*
X183380500Y-54681158D01*
X183380500Y-54681155D01*
X183380499Y-54681153D01*
X183379166Y-54674452D01*
X183349737Y-54526503D01*
X183338672Y-54499789D01*
X183289397Y-54380827D01*
X183289390Y-54380814D01*
X183201789Y-54249711D01*
X183201786Y-54249707D01*
X183090291Y-54138212D01*
X183067678Y-54123103D01*
X183022872Y-54069490D01*
X183014165Y-54000166D01*
X183044319Y-53937138D01*
X183067678Y-53916897D01*
X183090289Y-53901789D01*
X183201789Y-53790289D01*
X183289394Y-53659179D01*
X183349737Y-53513497D01*
X183380500Y-53358842D01*
X183380500Y-53201158D01*
X183380500Y-53201155D01*
X183380499Y-53201153D01*
X183368173Y-53139185D01*
X183349737Y-53046503D01*
X183346703Y-53039179D01*
X183289397Y-52900827D01*
X183289390Y-52900814D01*
X183201398Y-52769125D01*
X183180520Y-52702447D01*
X183180500Y-52700234D01*
X183180500Y-51869097D01*
X183200185Y-51802058D01*
X183252989Y-51756303D01*
X183322147Y-51746359D01*
X183385703Y-51775384D01*
G37*
%TD.AperFunction*%
%TA.AperFunction,NonConductor*%
G36*
X163361445Y-46443865D02*
G01*
X163400485Y-46488919D01*
X163447715Y-46581614D01*
X163568028Y-46747213D01*
X163568034Y-46747219D01*
X163712781Y-46891966D01*
X163878390Y-47012287D01*
X163891793Y-47019116D01*
X163942589Y-47067088D01*
X163959500Y-47129601D01*
X163959500Y-50960234D01*
X163939815Y-51027273D01*
X163938602Y-51029125D01*
X163850609Y-51160814D01*
X163850602Y-51160827D01*
X163790264Y-51306498D01*
X163790261Y-51306510D01*
X163759500Y-51461153D01*
X163759500Y-51618846D01*
X163790261Y-51773489D01*
X163790264Y-51773501D01*
X163850602Y-51919172D01*
X163850609Y-51919185D01*
X163938210Y-52050288D01*
X163938213Y-52050292D01*
X164049707Y-52161786D01*
X164049711Y-52161789D01*
X164180814Y-52249390D01*
X164180827Y-52249397D01*
X164289898Y-52294575D01*
X164326503Y-52309737D01*
X164462366Y-52336762D01*
X164481153Y-52340499D01*
X164481156Y-52340500D01*
X164481158Y-52340500D01*
X164638844Y-52340500D01*
X164757758Y-52316846D01*
X164781266Y-52318949D01*
X164804747Y-52316577D01*
X164815420Y-52322005D01*
X164827350Y-52323073D01*
X164845989Y-52337552D01*
X164867025Y-52348251D01*
X164875405Y-52360403D01*
X164882527Y-52365936D01*
X164888994Y-52375873D01*
X164893273Y-52383192D01*
X164920606Y-52449179D01*
X165008211Y-52580289D01*
X165008949Y-52581027D01*
X165012544Y-52587175D01*
X165020105Y-52617613D01*
X165029480Y-52647551D01*
X165029500Y-52649765D01*
X165029500Y-54674452D01*
X165009815Y-54741491D01*
X164957011Y-54787246D01*
X164887853Y-54797190D01*
X164867183Y-54792383D01*
X164864536Y-54791523D01*
X164864537Y-54791523D01*
X164702810Y-54765908D01*
X164662352Y-54759500D01*
X164457648Y-54759500D01*
X164433329Y-54763351D01*
X164255465Y-54791522D01*
X164060776Y-54854781D01*
X163878386Y-54947715D01*
X163712786Y-55068028D01*
X163568028Y-55212786D01*
X163447715Y-55378386D01*
X163400485Y-55471080D01*
X163352510Y-55521876D01*
X163284689Y-55538671D01*
X163218554Y-55516134D01*
X163179515Y-55471080D01*
X163170342Y-55453078D01*
X163132287Y-55378390D01*
X163096620Y-55329298D01*
X163011971Y-55212786D01*
X162867213Y-55068028D01*
X162701613Y-54947715D01*
X162701612Y-54947714D01*
X162701610Y-54947713D01*
X162621565Y-54906928D01*
X162519223Y-54854781D01*
X162324534Y-54791522D01*
X162149995Y-54763878D01*
X162122352Y-54759500D01*
X161917648Y-54759500D01*
X161893329Y-54763351D01*
X161715465Y-54791522D01*
X161520776Y-54854781D01*
X161338386Y-54947715D01*
X161172786Y-55068028D01*
X161028028Y-55212786D01*
X160907715Y-55378386D01*
X160860485Y-55471080D01*
X160812510Y-55521876D01*
X160744689Y-55538671D01*
X160678554Y-55516134D01*
X160639515Y-55471080D01*
X160630342Y-55453078D01*
X160592287Y-55378390D01*
X160556620Y-55329298D01*
X160471971Y-55212786D01*
X160327222Y-55068037D01*
X160327221Y-55068036D01*
X160327219Y-55068034D01*
X160307305Y-55053566D01*
X160264642Y-54998239D01*
X160258576Y-54929059D01*
X160273351Y-54854781D01*
X160280500Y-54818844D01*
X160280500Y-54661155D01*
X160280499Y-54661153D01*
X160249737Y-54506503D01*
X160229875Y-54458551D01*
X160189397Y-54360827D01*
X160189390Y-54360814D01*
X160101789Y-54229711D01*
X160101786Y-54229707D01*
X159990292Y-54118213D01*
X159990287Y-54118209D01*
X159975910Y-54108603D01*
X159931104Y-54054992D01*
X159922395Y-53985667D01*
X159952549Y-53922639D01*
X159975910Y-53902397D01*
X159984720Y-53896510D01*
X159990289Y-53892789D01*
X160101789Y-53781289D01*
X160189394Y-53650179D01*
X160190503Y-53647503D01*
X160207900Y-53605501D01*
X160249737Y-53504497D01*
X160280500Y-53349842D01*
X160280500Y-53192158D01*
X160280500Y-53192155D01*
X160280499Y-53192153D01*
X160278012Y-53179651D01*
X160249737Y-53037503D01*
X160247323Y-53031676D01*
X160189397Y-52891827D01*
X160189390Y-52891814D01*
X160101398Y-52760125D01*
X160095747Y-52742078D01*
X160085523Y-52726169D01*
X160081071Y-52695207D01*
X160080520Y-52693447D01*
X160080500Y-52691234D01*
X160080500Y-52582153D01*
X161791972Y-52582153D01*
X161791972Y-52739846D01*
X161822733Y-52894489D01*
X161822736Y-52894501D01*
X161883074Y-53040172D01*
X161883081Y-53040185D01*
X161970682Y-53171288D01*
X161970685Y-53171292D01*
X162082179Y-53282786D01*
X162082183Y-53282789D01*
X162213286Y-53370390D01*
X162213299Y-53370397D01*
X162340192Y-53422957D01*
X162358975Y-53430737D01*
X162507331Y-53460247D01*
X162513625Y-53461499D01*
X162513628Y-53461500D01*
X162513630Y-53461500D01*
X162671316Y-53461500D01*
X162671317Y-53461499D01*
X162825969Y-53430737D01*
X162970886Y-53370711D01*
X162971644Y-53370397D01*
X162971644Y-53370396D01*
X162971651Y-53370394D01*
X163102761Y-53282789D01*
X163214261Y-53171289D01*
X163301866Y-53040179D01*
X163302975Y-53037503D01*
X163315539Y-53007166D01*
X163362209Y-52894497D01*
X163392972Y-52739842D01*
X163392972Y-52582158D01*
X163392972Y-52582155D01*
X163392971Y-52582153D01*
X163382826Y-52531153D01*
X163362209Y-52427503D01*
X163341082Y-52376498D01*
X163301869Y-52281827D01*
X163301862Y-52281814D01*
X163214261Y-52150711D01*
X163214258Y-52150707D01*
X163102764Y-52039213D01*
X163102760Y-52039210D01*
X162971657Y-51951609D01*
X162971644Y-51951602D01*
X162825973Y-51891264D01*
X162825961Y-51891261D01*
X162671317Y-51860500D01*
X162671314Y-51860500D01*
X162513630Y-51860500D01*
X162513627Y-51860500D01*
X162358982Y-51891261D01*
X162358970Y-51891264D01*
X162213299Y-51951602D01*
X162213286Y-51951609D01*
X162082183Y-52039210D01*
X162082179Y-52039213D01*
X161970685Y-52150707D01*
X161970682Y-52150711D01*
X161883081Y-52281814D01*
X161883074Y-52281827D01*
X161822736Y-52427498D01*
X161822733Y-52427510D01*
X161791972Y-52582153D01*
X160080500Y-52582153D01*
X160080500Y-47129601D01*
X160100185Y-47062562D01*
X160148206Y-47019116D01*
X160161610Y-47012287D01*
X160327219Y-46891966D01*
X160471966Y-46747219D01*
X160471968Y-46747215D01*
X160471971Y-46747213D01*
X160592284Y-46581614D01*
X160592285Y-46581613D01*
X160592287Y-46581610D01*
X160639516Y-46488917D01*
X160687489Y-46438123D01*
X160755310Y-46421328D01*
X160821445Y-46443865D01*
X160860485Y-46488919D01*
X160907715Y-46581614D01*
X161028028Y-46747213D01*
X161028034Y-46747219D01*
X161172781Y-46891966D01*
X161338390Y-47012287D01*
X161351793Y-47019116D01*
X161402589Y-47067088D01*
X161419500Y-47129601D01*
X161419500Y-50310234D01*
X161399815Y-50377273D01*
X161398602Y-50379125D01*
X161310609Y-50510814D01*
X161310602Y-50510827D01*
X161250264Y-50656498D01*
X161250261Y-50656510D01*
X161219500Y-50811153D01*
X161219500Y-50968846D01*
X161250261Y-51123489D01*
X161250264Y-51123501D01*
X161310602Y-51269172D01*
X161310609Y-51269185D01*
X161398210Y-51400288D01*
X161398213Y-51400292D01*
X161509707Y-51511786D01*
X161509711Y-51511789D01*
X161640814Y-51599390D01*
X161640827Y-51599397D01*
X161762998Y-51650001D01*
X161786503Y-51659737D01*
X161941153Y-51690499D01*
X161941156Y-51690500D01*
X161941158Y-51690500D01*
X162098844Y-51690500D01*
X162098845Y-51690499D01*
X162253497Y-51659737D01*
X162399179Y-51599394D01*
X162530289Y-51511789D01*
X162641789Y-51400289D01*
X162729394Y-51269179D01*
X162731700Y-51263613D01*
X162757560Y-51201180D01*
X162789737Y-51123497D01*
X162820500Y-50968842D01*
X162820500Y-50811158D01*
X162820500Y-50811155D01*
X162820499Y-50811153D01*
X162818025Y-50798716D01*
X162789737Y-50656503D01*
X162780208Y-50633497D01*
X162729397Y-50510827D01*
X162729390Y-50510814D01*
X162641398Y-50379125D01*
X162620520Y-50312447D01*
X162620500Y-50310234D01*
X162620500Y-47129601D01*
X162640185Y-47062562D01*
X162688206Y-47019116D01*
X162701610Y-47012287D01*
X162867219Y-46891966D01*
X163011966Y-46747219D01*
X163011968Y-46747215D01*
X163011971Y-46747213D01*
X163132284Y-46581614D01*
X163132285Y-46581613D01*
X163132287Y-46581610D01*
X163179516Y-46488917D01*
X163227489Y-46438123D01*
X163295310Y-46421328D01*
X163361445Y-46443865D01*
G37*
%TD.AperFunction*%
%TA.AperFunction,NonConductor*%
G36*
X158382946Y-52860910D02*
G01*
X158431158Y-52870500D01*
X158588842Y-52870500D01*
X158590276Y-52870214D01*
X158599418Y-52870625D01*
X158629941Y-52881095D01*
X158660898Y-52890185D01*
X158662782Y-52892360D01*
X158665508Y-52893295D01*
X158685532Y-52918614D01*
X158706653Y-52942989D01*
X158707062Y-52945838D01*
X158708849Y-52948097D01*
X158712004Y-52980204D01*
X158716597Y-53012147D01*
X158715400Y-53014767D01*
X158715682Y-53017632D01*
X158711533Y-53031524D01*
X158712031Y-53031676D01*
X158710261Y-53037510D01*
X158679500Y-53192153D01*
X158679500Y-53349846D01*
X158710261Y-53504489D01*
X158710264Y-53504501D01*
X158770602Y-53650172D01*
X158770609Y-53650185D01*
X158858210Y-53781288D01*
X158858213Y-53781292D01*
X158969707Y-53892786D01*
X158969710Y-53892788D01*
X158969711Y-53892789D01*
X158984092Y-53902398D01*
X159028896Y-53956011D01*
X159037603Y-54025336D01*
X159007448Y-54088363D01*
X158984092Y-54108601D01*
X158982430Y-54109711D01*
X158969707Y-54118213D01*
X158858213Y-54229707D01*
X158858210Y-54229711D01*
X158770609Y-54360814D01*
X158770602Y-54360827D01*
X158710264Y-54506498D01*
X158710261Y-54506510D01*
X158679500Y-54661153D01*
X158679500Y-54818846D01*
X158701423Y-54929059D01*
X158695196Y-54998650D01*
X158652693Y-55053567D01*
X158632781Y-55068033D01*
X158488028Y-55212786D01*
X158367715Y-55378386D01*
X158320485Y-55471080D01*
X158272510Y-55521876D01*
X158204689Y-55538671D01*
X158138554Y-55516134D01*
X158099515Y-55471080D01*
X158090342Y-55453078D01*
X158052287Y-55378390D01*
X158016620Y-55329298D01*
X157931971Y-55212786D01*
X157787213Y-55068028D01*
X157621610Y-54947712D01*
X157608200Y-54940879D01*
X157597138Y-54930431D01*
X157583297Y-54924110D01*
X157572255Y-54906928D01*
X157557406Y-54892903D01*
X157553165Y-54877223D01*
X157545523Y-54865332D01*
X157540500Y-54830397D01*
X157540500Y-54709765D01*
X157560185Y-54642726D01*
X157561398Y-54640874D01*
X157581905Y-54610184D01*
X157649394Y-54509179D01*
X157650503Y-54506503D01*
X157698225Y-54391289D01*
X157709737Y-54363497D01*
X157740500Y-54208842D01*
X157740500Y-54051158D01*
X157740500Y-54051155D01*
X157740499Y-54051153D01*
X157723827Y-53967338D01*
X157709737Y-53896503D01*
X157698653Y-53869743D01*
X157649397Y-53750827D01*
X157649389Y-53750812D01*
X157628451Y-53719477D01*
X157607572Y-53652800D01*
X157626056Y-53585419D01*
X157678034Y-53538729D01*
X157697856Y-53532136D01*
X157697665Y-53531506D01*
X157703489Y-53529738D01*
X157703497Y-53529737D01*
X157849179Y-53469394D01*
X157980289Y-53381789D01*
X158091789Y-53270289D01*
X158179394Y-53139179D01*
X158239737Y-52993497D01*
X158246365Y-52960171D01*
X158262335Y-52929641D01*
X158278005Y-52899040D01*
X158278489Y-52898758D01*
X158278750Y-52898261D01*
X158308617Y-52881253D01*
X158338417Y-52863939D01*
X158339149Y-52863866D01*
X158339466Y-52863687D01*
X158341318Y-52863653D01*
X158373542Y-52860488D01*
X158382946Y-52860910D01*
G37*
%TD.AperFunction*%
%TA.AperFunction,NonConductor*%
G36*
X199616498Y-54755643D02*
G01*
X199700374Y-54804069D01*
X199700375Y-54804070D01*
X199753209Y-54834574D01*
X199753210Y-54834574D01*
X199753215Y-54834577D01*
X199905943Y-54875500D01*
X200064057Y-54875500D01*
X200834093Y-54875500D01*
X200901132Y-54895185D01*
X200946887Y-54947989D01*
X200956831Y-55017147D01*
X200940825Y-55062620D01*
X200898257Y-55134599D01*
X200898254Y-55134606D01*
X200852402Y-55292426D01*
X200852401Y-55292432D01*
X200849500Y-55329298D01*
X200849500Y-55760686D01*
X200849501Y-55760716D01*
X200850804Y-55777282D01*
X200836437Y-55845658D01*
X200787383Y-55895412D01*
X200719217Y-55910748D01*
X200658295Y-55890106D01*
X200599184Y-55850609D01*
X200599172Y-55850602D01*
X200453501Y-55790264D01*
X200453489Y-55790261D01*
X200298845Y-55759500D01*
X200298842Y-55759500D01*
X200141158Y-55759500D01*
X200141155Y-55759500D01*
X199986510Y-55790261D01*
X199986498Y-55790264D01*
X199840827Y-55850602D01*
X199840814Y-55850609D01*
X199709711Y-55938210D01*
X199709707Y-55938213D01*
X199642181Y-56005740D01*
X199580858Y-56039225D01*
X199511166Y-56034241D01*
X199455233Y-55992369D01*
X199430816Y-55926905D01*
X199430500Y-55918059D01*
X199430500Y-54863032D01*
X199450185Y-54795993D01*
X199502989Y-54750238D01*
X199572147Y-54740294D01*
X199616498Y-54755643D01*
G37*
%TD.AperFunction*%
%TA.AperFunction,NonConductor*%
G36*
X153026688Y-55916333D02*
G01*
X153079623Y-55961936D01*
X153099499Y-56028919D01*
X153099500Y-56029274D01*
X153099501Y-56555500D01*
X153079817Y-56622539D01*
X153027013Y-56668294D01*
X152975501Y-56679500D01*
X152860097Y-56679500D01*
X152830656Y-56670855D01*
X152800670Y-56664332D01*
X152795654Y-56660577D01*
X152793058Y-56659815D01*
X152772416Y-56643181D01*
X152761819Y-56632584D01*
X152728334Y-56571261D01*
X152725500Y-56544903D01*
X152725500Y-56298100D01*
X152744520Y-56233324D01*
X152744199Y-56233135D01*
X152744947Y-56231868D01*
X152745185Y-56231061D01*
X152746654Y-56228982D01*
X152748167Y-56226422D01*
X152748170Y-56226420D01*
X152828618Y-56090390D01*
X152856425Y-55994676D01*
X152894029Y-55935794D01*
X152957501Y-55906587D01*
X153026688Y-55916333D01*
G37*
%TD.AperFunction*%
%TA.AperFunction,NonConductor*%
G36*
X158281445Y-56603865D02*
G01*
X158320483Y-56648917D01*
X158343527Y-56694142D01*
X158367715Y-56741614D01*
X158488028Y-56907213D01*
X158617634Y-57036819D01*
X158651119Y-57098142D01*
X158646135Y-57167834D01*
X158604263Y-57223767D01*
X158538799Y-57248184D01*
X158529953Y-57248500D01*
X157890047Y-57248500D01*
X157823008Y-57228815D01*
X157777253Y-57176011D01*
X157767309Y-57106853D01*
X157796334Y-57043297D01*
X157802366Y-57036819D01*
X157866971Y-56972214D01*
X157931966Y-56907219D01*
X157931968Y-56907215D01*
X157931971Y-56907213D01*
X158052284Y-56741614D01*
X158052285Y-56741613D01*
X158052287Y-56741610D01*
X158099516Y-56648917D01*
X158147489Y-56598123D01*
X158215310Y-56581328D01*
X158281445Y-56603865D01*
G37*
%TD.AperFunction*%
%TA.AperFunction,NonConductor*%
G36*
X197420461Y-55528386D02*
G01*
X197464808Y-55556887D01*
X197569707Y-55661786D01*
X197569711Y-55661789D01*
X197700814Y-55749390D01*
X197700827Y-55749397D01*
X197846498Y-55809735D01*
X197846503Y-55809737D01*
X198001153Y-55840499D01*
X198001156Y-55840500D01*
X198105500Y-55840500D01*
X198172539Y-55860185D01*
X198218294Y-55912989D01*
X198229500Y-55964500D01*
X198229500Y-56750234D01*
X198209815Y-56817273D01*
X198208602Y-56819125D01*
X198120609Y-56950814D01*
X198120602Y-56950827D01*
X198060264Y-57096498D01*
X198060261Y-57096510D01*
X198029500Y-57251153D01*
X198029500Y-57265500D01*
X198009815Y-57332539D01*
X197957011Y-57378294D01*
X197905500Y-57389500D01*
X195756198Y-57389500D01*
X195734972Y-57383267D01*
X195712905Y-57381697D01*
X195702101Y-57373615D01*
X195689159Y-57369815D01*
X195674673Y-57353097D01*
X195656957Y-57339845D01*
X195652237Y-57327205D01*
X195643404Y-57317011D01*
X195640255Y-57295114D01*
X195632517Y-57274389D01*
X195635379Y-57261205D01*
X195633460Y-57247853D01*
X195642650Y-57227729D01*
X195647345Y-57206111D01*
X195660630Y-57188357D01*
X195662485Y-57184297D01*
X195668486Y-57177849D01*
X195670323Y-57176011D01*
X195672806Y-57173527D01*
X195672809Y-57173526D01*
X195672824Y-57173511D01*
X195672827Y-57173506D01*
X197289450Y-55556884D01*
X197350769Y-55523402D01*
X197420461Y-55528386D01*
G37*
%TD.AperFunction*%
%TA.AperFunction,NonConductor*%
G36*
X151409185Y-56468049D02*
G01*
X151418147Y-56466761D01*
X151442187Y-56477739D01*
X151467539Y-56485184D01*
X151473466Y-56492024D01*
X151481703Y-56495786D01*
X151495992Y-56518020D01*
X151513294Y-56537988D01*
X151515581Y-56548502D01*
X151519477Y-56554564D01*
X151524500Y-56589499D01*
X151524500Y-56758330D01*
X151524499Y-56758348D01*
X151524499Y-56924054D01*
X151524498Y-56924054D01*
X151537403Y-56972214D01*
X151565423Y-57076785D01*
X151582783Y-57106853D01*
X151584898Y-57110515D01*
X151584899Y-57110519D01*
X151644475Y-57213709D01*
X151644481Y-57213717D01*
X151763349Y-57332585D01*
X151763355Y-57332590D01*
X152052372Y-57621607D01*
X152056709Y-57629550D01*
X152063956Y-57634975D01*
X152073192Y-57659737D01*
X152085857Y-57682930D01*
X152085211Y-57691957D01*
X152088375Y-57700438D01*
X152082758Y-57726262D01*
X152080873Y-57752622D01*
X152075055Y-57761673D01*
X152073525Y-57768712D01*
X152052375Y-57796967D01*
X152036161Y-57813180D01*
X151974842Y-57846665D01*
X151948480Y-57849500D01*
X151531519Y-57849500D01*
X151464480Y-57829815D01*
X151443838Y-57813181D01*
X151261819Y-57631162D01*
X151228334Y-57569839D01*
X151225500Y-57543481D01*
X151225500Y-56589499D01*
X151245185Y-56522460D01*
X151297989Y-56476705D01*
X151349500Y-56465499D01*
X151400500Y-56465499D01*
X151409185Y-56468049D01*
G37*
%TD.AperFunction*%
%TA.AperFunction,NonConductor*%
G36*
X148130703Y-57321806D02*
G01*
X148137181Y-57327838D01*
X148447161Y-57637819D01*
X148480646Y-57699142D01*
X148475662Y-57768834D01*
X148433790Y-57824767D01*
X148368326Y-57849184D01*
X148359480Y-57849500D01*
X148049500Y-57849500D01*
X147982461Y-57829815D01*
X147936706Y-57777011D01*
X147925500Y-57725500D01*
X147925500Y-57415519D01*
X147945185Y-57348480D01*
X147997989Y-57302725D01*
X148067147Y-57292781D01*
X148130703Y-57321806D01*
G37*
%TD.AperFunction*%
%TA.AperFunction,NonConductor*%
G36*
X144337668Y-54565144D02*
G01*
X144342147Y-54564501D01*
X144359094Y-54568162D01*
X144426373Y-54587709D01*
X144461837Y-54590500D01*
X145650500Y-54590499D01*
X145717539Y-54610184D01*
X145763294Y-54662987D01*
X145774500Y-54714499D01*
X145774500Y-55903150D01*
X145774501Y-55903175D01*
X145777291Y-55938627D01*
X145821380Y-56090385D01*
X145821382Y-56090390D01*
X145905801Y-56233135D01*
X145903371Y-56234571D01*
X145924012Y-56287109D01*
X145924500Y-56298100D01*
X145924500Y-57761054D01*
X145904815Y-57828093D01*
X145852011Y-57873848D01*
X145782853Y-57883792D01*
X145781064Y-57883454D01*
X145781055Y-57883516D01*
X145676111Y-57866894D01*
X145566287Y-57849500D01*
X145353713Y-57849500D01*
X145305042Y-57857208D01*
X145143760Y-57882753D01*
X144941585Y-57948444D01*
X144752179Y-58044951D01*
X144580213Y-58169890D01*
X144429894Y-58320209D01*
X144429888Y-58320216D01*
X144424815Y-58327199D01*
X144369484Y-58369863D01*
X144299870Y-58375839D01*
X144238076Y-58343231D01*
X144203721Y-58282391D01*
X144200500Y-58254310D01*
X144200500Y-54687239D01*
X144207896Y-54662049D01*
X144211559Y-54636050D01*
X144217584Y-54629055D01*
X144220185Y-54620200D01*
X144240023Y-54603010D01*
X144257163Y-54583115D01*
X144266014Y-54580488D01*
X144272989Y-54574445D01*
X144298975Y-54570708D01*
X144324146Y-54563240D01*
X144337668Y-54565144D01*
G37*
%TD.AperFunction*%
%TA.AperFunction,NonConductor*%
G36*
X168718834Y-59892154D02*
G01*
X168774767Y-59934026D01*
X168799184Y-59999490D01*
X168799500Y-60008336D01*
X168799500Y-60291664D01*
X168793313Y-60312733D01*
X168791813Y-60334645D01*
X168783661Y-60345602D01*
X168779815Y-60358703D01*
X168763219Y-60373082D01*
X168750111Y-60390705D01*
X168737330Y-60395516D01*
X168727011Y-60404458D01*
X168705275Y-60407583D01*
X168684721Y-60415321D01*
X168671368Y-60412458D01*
X168657853Y-60414402D01*
X168637876Y-60405278D01*
X168616404Y-60400676D01*
X168598285Y-60387198D01*
X168594297Y-60385377D01*
X168588182Y-60379683D01*
X168588085Y-60379611D01*
X168454646Y-60246172D01*
X168451627Y-60243979D01*
X168445559Y-60237947D01*
X168430887Y-60211270D01*
X168414249Y-60185782D01*
X168414214Y-60180955D01*
X168411888Y-60176725D01*
X168413967Y-60146349D01*
X168413751Y-60115914D01*
X168416331Y-60111835D01*
X168416661Y-60107019D01*
X168445931Y-60065046D01*
X168451105Y-60056868D01*
X168451888Y-60056503D01*
X168452442Y-60055710D01*
X168454635Y-60053835D01*
X168454646Y-60053828D01*
X168587819Y-59920655D01*
X168649142Y-59887170D01*
X168718834Y-59892154D01*
G37*
%TD.AperFunction*%
%TA.AperFunction,NonConductor*%
G36*
X192295694Y-59795601D02*
G01*
X192314817Y-59816435D01*
X192382358Y-59909397D01*
X192386173Y-59914647D01*
X192525355Y-60053829D01*
X192527565Y-60055717D01*
X192528170Y-60056644D01*
X192528799Y-60057273D01*
X192528666Y-60057405D01*
X192565753Y-60114228D01*
X192566245Y-60184095D01*
X192528886Y-60243138D01*
X192527565Y-60244283D01*
X192525355Y-60246170D01*
X192386173Y-60385352D01*
X192314817Y-60483565D01*
X192259486Y-60526230D01*
X192189873Y-60532209D01*
X192128078Y-60499603D01*
X192093721Y-60438764D01*
X192090499Y-60410679D01*
X192090499Y-60402129D01*
X192090498Y-60402123D01*
X192090497Y-60402116D01*
X192084091Y-60342517D01*
X192033796Y-60207669D01*
X192033794Y-60207666D01*
X192030696Y-60199360D01*
X192032426Y-60198714D01*
X192019902Y-60141163D01*
X192031691Y-60101011D01*
X192030696Y-60100640D01*
X192033794Y-60092333D01*
X192033796Y-60092331D01*
X192084091Y-59957483D01*
X192090500Y-59897873D01*
X192090499Y-59889327D01*
X192110178Y-59822290D01*
X192162978Y-59776531D01*
X192232136Y-59766582D01*
X192295694Y-59795601D01*
G37*
%TD.AperFunction*%
%TA.AperFunction,NonConductor*%
G36*
X166595694Y-59795601D02*
G01*
X166614817Y-59816435D01*
X166682358Y-59909397D01*
X166686173Y-59914647D01*
X166825355Y-60053829D01*
X166827565Y-60055717D01*
X166828170Y-60056644D01*
X166828799Y-60057273D01*
X166828666Y-60057405D01*
X166865753Y-60114228D01*
X166866245Y-60184095D01*
X166828886Y-60243138D01*
X166827565Y-60244283D01*
X166825355Y-60246170D01*
X166686173Y-60385352D01*
X166614817Y-60483565D01*
X166559486Y-60526230D01*
X166489873Y-60532209D01*
X166428078Y-60499603D01*
X166393721Y-60438764D01*
X166390499Y-60410679D01*
X166390499Y-60402129D01*
X166390498Y-60402123D01*
X166390497Y-60402116D01*
X166384091Y-60342517D01*
X166333796Y-60207669D01*
X166333794Y-60207666D01*
X166330696Y-60199360D01*
X166332426Y-60198714D01*
X166319902Y-60141163D01*
X166331691Y-60101011D01*
X166330696Y-60100640D01*
X166333794Y-60092333D01*
X166333796Y-60092331D01*
X166384091Y-59957483D01*
X166390500Y-59897873D01*
X166390499Y-59889327D01*
X166410178Y-59822290D01*
X166462978Y-59776531D01*
X166532136Y-59766582D01*
X166595694Y-59795601D01*
G37*
%TD.AperFunction*%
%TA.AperFunction,NonConductor*%
G36*
X153195694Y-59795601D02*
G01*
X153214817Y-59816435D01*
X153282358Y-59909397D01*
X153286173Y-59914647D01*
X153425355Y-60053829D01*
X153427565Y-60055717D01*
X153428170Y-60056644D01*
X153428799Y-60057273D01*
X153428666Y-60057405D01*
X153465753Y-60114228D01*
X153466245Y-60184095D01*
X153428886Y-60243138D01*
X153427565Y-60244283D01*
X153425355Y-60246170D01*
X153286173Y-60385352D01*
X153214817Y-60483565D01*
X153159486Y-60526230D01*
X153089873Y-60532209D01*
X153028078Y-60499603D01*
X152993721Y-60438764D01*
X152990499Y-60410679D01*
X152990499Y-60402129D01*
X152990498Y-60402123D01*
X152990497Y-60402116D01*
X152984091Y-60342517D01*
X152933796Y-60207669D01*
X152933794Y-60207666D01*
X152930696Y-60199360D01*
X152932426Y-60198714D01*
X152919902Y-60141163D01*
X152931691Y-60101011D01*
X152930696Y-60100640D01*
X152933794Y-60092333D01*
X152933796Y-60092331D01*
X152984091Y-59957483D01*
X152990500Y-59897873D01*
X152990499Y-59889327D01*
X153010178Y-59822290D01*
X153062978Y-59776531D01*
X153132136Y-59766582D01*
X153195694Y-59795601D01*
G37*
%TD.AperFunction*%
%TA.AperFunction,NonConductor*%
G36*
X170205703Y-60007510D02*
G01*
X170224816Y-60028335D01*
X170277618Y-60101011D01*
X170294896Y-60124792D01*
X170445213Y-60275109D01*
X170617182Y-60400050D01*
X170625946Y-60404516D01*
X170676742Y-60452491D01*
X170693536Y-60520312D01*
X170670998Y-60586447D01*
X170625946Y-60625484D01*
X170617182Y-60629949D01*
X170445213Y-60754890D01*
X170294894Y-60905209D01*
X170294890Y-60905214D01*
X170224818Y-61001661D01*
X170169488Y-61044327D01*
X170099875Y-61050306D01*
X170038080Y-61017700D01*
X170003723Y-60956862D01*
X170000500Y-60928776D01*
X170000500Y-60101223D01*
X170020185Y-60034184D01*
X170072989Y-59988429D01*
X170142147Y-59978485D01*
X170205703Y-60007510D01*
G37*
%TD.AperFunction*%
%TA.AperFunction,NonConductor*%
G36*
X172666444Y-59898999D02*
G01*
X172705486Y-59944056D01*
X172709951Y-59952820D01*
X172834890Y-60124786D01*
X172985213Y-60275109D01*
X173157182Y-60400050D01*
X173165946Y-60404516D01*
X173216742Y-60452491D01*
X173233536Y-60520312D01*
X173210998Y-60586447D01*
X173165946Y-60625484D01*
X173157182Y-60629949D01*
X172985213Y-60754890D01*
X172834890Y-60905213D01*
X172709949Y-61077182D01*
X172705484Y-61085946D01*
X172657509Y-61136742D01*
X172589688Y-61153536D01*
X172523553Y-61130998D01*
X172484516Y-61085946D01*
X172480050Y-61077182D01*
X172355109Y-60905213D01*
X172204786Y-60754890D01*
X172032820Y-60629951D01*
X172032115Y-60629591D01*
X172024054Y-60625485D01*
X171973259Y-60577512D01*
X171956463Y-60509692D01*
X171978999Y-60443556D01*
X172024054Y-60404515D01*
X172032816Y-60400051D01*
X172112004Y-60342518D01*
X172204786Y-60275109D01*
X172204788Y-60275106D01*
X172204792Y-60275104D01*
X172355104Y-60124792D01*
X172355106Y-60124788D01*
X172355109Y-60124786D01*
X172480048Y-59952820D01*
X172480047Y-59952820D01*
X172480051Y-59952816D01*
X172484514Y-59944054D01*
X172532488Y-59893259D01*
X172600308Y-59876463D01*
X172666444Y-59898999D01*
G37*
%TD.AperFunction*%
%TA.AperFunction,NonConductor*%
G36*
X156990603Y-58669185D02*
G01*
X157036358Y-58721989D01*
X157046302Y-58791147D01*
X157038125Y-58820952D01*
X156990264Y-58936498D01*
X156990261Y-58936510D01*
X156959500Y-59091153D01*
X156959500Y-59248846D01*
X156990261Y-59403489D01*
X156990264Y-59403501D01*
X157050602Y-59549172D01*
X157050609Y-59549185D01*
X157138210Y-59680288D01*
X157138213Y-59680292D01*
X157249707Y-59791786D01*
X157249711Y-59791789D01*
X157380814Y-59879390D01*
X157380827Y-59879397D01*
X157512715Y-59934026D01*
X157526503Y-59939737D01*
X157615718Y-59957483D01*
X157681153Y-59970499D01*
X157681156Y-59970500D01*
X157681158Y-59970500D01*
X157838844Y-59970500D01*
X157838845Y-59970499D01*
X157993497Y-59939737D01*
X158139179Y-59879394D01*
X158270289Y-59791789D01*
X158381789Y-59680289D01*
X158469394Y-59549179D01*
X158529737Y-59403497D01*
X158560500Y-59248842D01*
X158560500Y-59091158D01*
X158560500Y-59091155D01*
X158560499Y-59091153D01*
X158537306Y-58974556D01*
X158529737Y-58936503D01*
X158526529Y-58928757D01*
X158481875Y-58820952D01*
X158474406Y-58751483D01*
X158505681Y-58689004D01*
X158565770Y-58653352D01*
X158596436Y-58649500D01*
X159425500Y-58649500D01*
X159492539Y-58669185D01*
X159538294Y-58721989D01*
X159549500Y-58773500D01*
X159549500Y-59900001D01*
X159549501Y-59900018D01*
X159560000Y-60002796D01*
X159560001Y-60002799D01*
X159615185Y-60169331D01*
X159615187Y-60169336D01*
X159625331Y-60185782D01*
X159707288Y-60318656D01*
X159831344Y-60442712D01*
X159897578Y-60483565D01*
X159915243Y-60494461D01*
X159961967Y-60546409D01*
X159973190Y-60615372D01*
X159945346Y-60679454D01*
X159915243Y-60705539D01*
X159831342Y-60757289D01*
X159707289Y-60881342D01*
X159615187Y-61030663D01*
X159615186Y-61030666D01*
X159560001Y-61197203D01*
X159560001Y-61197204D01*
X159560000Y-61197204D01*
X159549500Y-61299983D01*
X159549500Y-61575500D01*
X159529815Y-61642539D01*
X159477011Y-61688294D01*
X159425500Y-61699500D01*
X157683460Y-61699500D01*
X157616421Y-61679815D01*
X157570666Y-61627011D01*
X157560056Y-61563354D01*
X157560500Y-61558843D01*
X157560500Y-61401155D01*
X157560499Y-61401153D01*
X157540378Y-61299998D01*
X157529737Y-61246503D01*
X157509317Y-61197204D01*
X157469397Y-61100827D01*
X157469390Y-61100814D01*
X157381789Y-60969711D01*
X157381786Y-60969707D01*
X157270292Y-60858213D01*
X157270288Y-60858210D01*
X157139185Y-60770609D01*
X157139172Y-60770602D01*
X156993501Y-60710264D01*
X156993489Y-60710261D01*
X156838845Y-60679500D01*
X156838842Y-60679500D01*
X156681158Y-60679500D01*
X156681155Y-60679500D01*
X156526510Y-60710261D01*
X156526498Y-60710264D01*
X156380827Y-60770602D01*
X156380814Y-60770609D01*
X156249711Y-60858210D01*
X156249707Y-60858213D01*
X156138213Y-60969707D01*
X156138210Y-60969711D01*
X156050609Y-61100814D01*
X156050602Y-61100827D01*
X155990264Y-61246498D01*
X155990261Y-61246510D01*
X155959500Y-61401153D01*
X155959500Y-61558843D01*
X155959944Y-61563354D01*
X155946921Y-61631999D01*
X155898853Y-61682706D01*
X155836540Y-61699500D01*
X155563228Y-61699500D01*
X155496189Y-61679815D01*
X155450434Y-61627011D01*
X155440490Y-61557853D01*
X155445297Y-61537181D01*
X155459709Y-61492826D01*
X155490500Y-61298422D01*
X155490500Y-61101577D01*
X155459709Y-60907173D01*
X155411007Y-60757287D01*
X155398884Y-60719975D01*
X155398882Y-60719972D01*
X155398882Y-60719970D01*
X155337754Y-60600000D01*
X155309524Y-60544595D01*
X155193828Y-60385354D01*
X155054646Y-60246172D01*
X155054643Y-60246170D01*
X155052442Y-60244290D01*
X155051836Y-60243362D01*
X155051201Y-60242727D01*
X155051334Y-60242593D01*
X155014249Y-60185782D01*
X155013751Y-60115914D01*
X155051105Y-60056868D01*
X155052442Y-60055710D01*
X155054635Y-60053835D01*
X155054646Y-60053828D01*
X155193828Y-59914646D01*
X155309524Y-59755405D01*
X155398884Y-59580025D01*
X155459709Y-59392826D01*
X155466288Y-59351286D01*
X155490500Y-59198422D01*
X155490500Y-59001577D01*
X155461869Y-58820814D01*
X155459709Y-58807174D01*
X155459708Y-58807171D01*
X155458574Y-58802446D01*
X155462065Y-58732664D01*
X155502730Y-58675846D01*
X155567656Y-58650034D01*
X155579148Y-58649500D01*
X156923564Y-58649500D01*
X156990603Y-58669185D01*
G37*
%TD.AperFunction*%
%TA.AperFunction,NonConductor*%
G36*
X181327227Y-46425389D02*
G01*
X181339808Y-46424850D01*
X181359673Y-46436445D01*
X181381445Y-46443865D01*
X181390719Y-46454568D01*
X181400150Y-46460073D01*
X181420485Y-46488919D01*
X181467715Y-46581614D01*
X181588028Y-46747213D01*
X181588034Y-46747219D01*
X181732781Y-46891966D01*
X181898390Y-47012287D01*
X181911793Y-47019116D01*
X181962589Y-47067088D01*
X181979500Y-47129601D01*
X181979500Y-52700234D01*
X181959815Y-52767273D01*
X181958602Y-52769125D01*
X181870609Y-52900814D01*
X181870602Y-52900827D01*
X181810264Y-53046498D01*
X181810261Y-53046510D01*
X181779500Y-53201153D01*
X181779500Y-53358846D01*
X181810261Y-53513489D01*
X181810264Y-53513501D01*
X181870602Y-53659172D01*
X181870609Y-53659185D01*
X181958210Y-53790288D01*
X181958213Y-53790292D01*
X182069707Y-53901786D01*
X182069713Y-53901791D01*
X182092323Y-53916899D01*
X182137127Y-53970511D01*
X182145834Y-54039836D01*
X182115679Y-54102864D01*
X182092323Y-54123101D01*
X182069713Y-54138208D01*
X182069707Y-54138213D01*
X181958213Y-54249707D01*
X181958210Y-54249711D01*
X181870609Y-54380814D01*
X181870602Y-54380827D01*
X181810264Y-54526498D01*
X181810261Y-54526510D01*
X181779500Y-54681153D01*
X181779500Y-54838846D01*
X181797947Y-54931584D01*
X181791720Y-55001175D01*
X181749218Y-55056091D01*
X181732784Y-55068031D01*
X181732778Y-55068036D01*
X181588028Y-55212786D01*
X181467715Y-55378386D01*
X181420485Y-55471080D01*
X181372510Y-55521876D01*
X181304689Y-55538671D01*
X181238554Y-55516134D01*
X181199515Y-55471080D01*
X181190342Y-55453078D01*
X181152287Y-55378390D01*
X181116620Y-55329298D01*
X181031971Y-55212786D01*
X180887213Y-55068028D01*
X180721610Y-54947712D01*
X180708200Y-54940879D01*
X180657406Y-54892903D01*
X180640500Y-54830397D01*
X180640500Y-54460765D01*
X180660185Y-54393726D01*
X180661398Y-54391874D01*
X180668784Y-54380821D01*
X180749394Y-54260179D01*
X180809737Y-54114497D01*
X180840500Y-53959842D01*
X180840500Y-53802158D01*
X180840500Y-53802155D01*
X180840499Y-53802153D01*
X180836349Y-53781288D01*
X180809737Y-53647503D01*
X180802694Y-53630500D01*
X180749397Y-53501827D01*
X180749390Y-53501814D01*
X180661789Y-53370711D01*
X180661786Y-53370707D01*
X180550292Y-53259213D01*
X180550288Y-53259210D01*
X180419185Y-53171609D01*
X180419172Y-53171602D01*
X180273501Y-53111264D01*
X180273489Y-53111261D01*
X180118845Y-53080500D01*
X180118842Y-53080500D01*
X179961158Y-53080500D01*
X179961155Y-53080500D01*
X179806510Y-53111261D01*
X179806498Y-53111264D01*
X179660827Y-53171602D01*
X179660814Y-53171609D01*
X179529711Y-53259210D01*
X179529707Y-53259213D01*
X179418213Y-53370707D01*
X179418210Y-53370711D01*
X179330609Y-53501814D01*
X179330602Y-53501827D01*
X179270264Y-53647498D01*
X179270261Y-53647510D01*
X179239500Y-53802153D01*
X179239500Y-53959846D01*
X179270261Y-54114489D01*
X179270264Y-54114501D01*
X179330602Y-54260172D01*
X179330609Y-54260185D01*
X179399641Y-54363497D01*
X179411216Y-54380821D01*
X179418602Y-54391874D01*
X179439480Y-54458551D01*
X179439500Y-54460765D01*
X179439500Y-54830397D01*
X179419815Y-54897436D01*
X179371800Y-54940879D01*
X179358389Y-54947712D01*
X179192786Y-55068028D01*
X179048032Y-55212782D01*
X179021668Y-55249070D01*
X178966338Y-55291735D01*
X178896724Y-55297714D01*
X178834929Y-55265108D01*
X178800572Y-55204269D01*
X178798060Y-55189438D01*
X178797640Y-55185533D01*
X178794091Y-55152517D01*
X178745940Y-55023417D01*
X178743797Y-55017671D01*
X178743793Y-55017664D01*
X178657547Y-54902455D01*
X178657544Y-54902452D01*
X178542335Y-54816206D01*
X178542328Y-54816202D01*
X178407482Y-54765908D01*
X178407483Y-54765908D01*
X178347883Y-54759501D01*
X178347881Y-54759500D01*
X178347873Y-54759500D01*
X178347864Y-54759500D01*
X176652129Y-54759500D01*
X176652123Y-54759501D01*
X176592516Y-54765908D01*
X176457671Y-54816202D01*
X176457664Y-54816206D01*
X176342455Y-54902452D01*
X176342452Y-54902455D01*
X176256206Y-55017664D01*
X176256202Y-55017671D01*
X176205908Y-55152517D01*
X176199501Y-55212116D01*
X176199500Y-55212135D01*
X176199501Y-56907870D01*
X176205908Y-56967483D01*
X176256202Y-57102328D01*
X176256206Y-57102335D01*
X176342452Y-57217544D01*
X176342455Y-57217547D01*
X176457664Y-57303793D01*
X176457671Y-57303797D01*
X176592517Y-57354091D01*
X176592516Y-57354091D01*
X176599444Y-57354835D01*
X176652127Y-57360500D01*
X178347872Y-57360499D01*
X178407483Y-57354091D01*
X178542331Y-57303796D01*
X178657546Y-57217546D01*
X178743796Y-57102331D01*
X178794091Y-56967483D01*
X178798061Y-56930556D01*
X178824796Y-56866011D01*
X178882188Y-56826161D01*
X178952013Y-56823666D01*
X179012102Y-56859317D01*
X179021667Y-56870929D01*
X179048032Y-56907217D01*
X179192786Y-57051971D01*
X179347749Y-57164556D01*
X179358390Y-57172287D01*
X179439699Y-57213716D01*
X179540776Y-57265218D01*
X179540778Y-57265218D01*
X179540781Y-57265220D01*
X179612039Y-57288373D01*
X179735465Y-57328477D01*
X179813812Y-57340886D01*
X179937648Y-57360500D01*
X179937649Y-57360500D01*
X180142351Y-57360500D01*
X180142352Y-57360500D01*
X180344534Y-57328477D01*
X180539219Y-57265220D01*
X180721610Y-57172287D01*
X180825919Y-57096503D01*
X180887213Y-57051971D01*
X180887215Y-57051968D01*
X180887219Y-57051966D01*
X181031966Y-56907219D01*
X181031968Y-56907215D01*
X181031971Y-56907213D01*
X181152284Y-56741614D01*
X181152285Y-56741613D01*
X181152287Y-56741610D01*
X181199516Y-56648917D01*
X181247489Y-56598123D01*
X181315310Y-56581328D01*
X181381445Y-56603865D01*
X181420483Y-56648917D01*
X181443527Y-56694142D01*
X181467715Y-56741614D01*
X181588028Y-56907213D01*
X181732786Y-57051971D01*
X181887749Y-57164556D01*
X181898390Y-57172287D01*
X181979699Y-57213716D01*
X182080776Y-57265218D01*
X182080778Y-57265218D01*
X182080781Y-57265220D01*
X182152039Y-57288373D01*
X182275465Y-57328477D01*
X182353812Y-57340886D01*
X182477648Y-57360500D01*
X182477649Y-57360500D01*
X182682351Y-57360500D01*
X182682352Y-57360500D01*
X182884534Y-57328477D01*
X183079219Y-57265220D01*
X183261610Y-57172287D01*
X183365919Y-57096503D01*
X183427213Y-57051971D01*
X183427215Y-57051968D01*
X183427219Y-57051966D01*
X183571966Y-56907219D01*
X183571968Y-56907215D01*
X183571971Y-56907213D01*
X183692284Y-56741614D01*
X183692285Y-56741613D01*
X183692287Y-56741610D01*
X183739516Y-56648917D01*
X183787489Y-56598123D01*
X183855310Y-56581328D01*
X183921445Y-56603865D01*
X183960483Y-56648917D01*
X183983527Y-56694142D01*
X184007715Y-56741614D01*
X184128028Y-56907213D01*
X184272786Y-57051971D01*
X184427749Y-57164556D01*
X184438390Y-57172287D01*
X184519699Y-57213716D01*
X184620776Y-57265218D01*
X184620778Y-57265218D01*
X184620781Y-57265220D01*
X184692039Y-57288373D01*
X184815465Y-57328477D01*
X184893812Y-57340886D01*
X185017648Y-57360500D01*
X185017649Y-57360500D01*
X185222351Y-57360500D01*
X185222352Y-57360500D01*
X185424534Y-57328477D01*
X185619219Y-57265220D01*
X185801610Y-57172287D01*
X185905919Y-57096503D01*
X185967213Y-57051971D01*
X185967215Y-57051968D01*
X185967219Y-57051966D01*
X186111966Y-56907219D01*
X186111968Y-56907215D01*
X186111971Y-56907213D01*
X186232284Y-56741614D01*
X186232285Y-56741613D01*
X186232287Y-56741610D01*
X186279516Y-56648917D01*
X186327489Y-56598123D01*
X186395310Y-56581328D01*
X186461445Y-56603865D01*
X186500483Y-56648917D01*
X186523527Y-56694142D01*
X186547715Y-56741614D01*
X186668028Y-56907213D01*
X186812786Y-57051971D01*
X186967749Y-57164556D01*
X186978390Y-57172287D01*
X187059699Y-57213716D01*
X187160776Y-57265218D01*
X187160778Y-57265218D01*
X187160781Y-57265220D01*
X187232039Y-57288373D01*
X187355465Y-57328477D01*
X187433812Y-57340886D01*
X187557648Y-57360500D01*
X187557649Y-57360500D01*
X187762351Y-57360500D01*
X187762352Y-57360500D01*
X187964534Y-57328477D01*
X188159219Y-57265220D01*
X188341610Y-57172287D01*
X188445919Y-57096503D01*
X188507213Y-57051971D01*
X188507215Y-57051968D01*
X188507219Y-57051966D01*
X188651966Y-56907219D01*
X188651968Y-56907215D01*
X188651971Y-56907213D01*
X188772284Y-56741614D01*
X188772285Y-56741613D01*
X188772287Y-56741610D01*
X188819516Y-56648917D01*
X188867489Y-56598123D01*
X188935310Y-56581328D01*
X189001445Y-56603865D01*
X189040483Y-56648917D01*
X189063527Y-56694142D01*
X189087715Y-56741614D01*
X189208028Y-56907213D01*
X189352786Y-57051971D01*
X189507749Y-57164556D01*
X189518390Y-57172287D01*
X189599699Y-57213716D01*
X189700776Y-57265218D01*
X189700778Y-57265218D01*
X189700781Y-57265220D01*
X189772039Y-57288373D01*
X189895465Y-57328477D01*
X189973812Y-57340886D01*
X190097648Y-57360500D01*
X190097649Y-57360500D01*
X190302351Y-57360500D01*
X190302352Y-57360500D01*
X190504534Y-57328477D01*
X190699219Y-57265220D01*
X190881610Y-57172287D01*
X190985919Y-57096503D01*
X191047213Y-57051971D01*
X191047215Y-57051968D01*
X191047219Y-57051966D01*
X191164435Y-56934750D01*
X191225758Y-56901265D01*
X191295450Y-56906249D01*
X191299568Y-56907870D01*
X191354352Y-56930562D01*
X191376503Y-56939737D01*
X191515991Y-56967483D01*
X191531153Y-56970499D01*
X191531156Y-56970500D01*
X191531158Y-56970500D01*
X191531269Y-56970500D01*
X191531326Y-56970516D01*
X191537218Y-56971097D01*
X191537107Y-56972214D01*
X191598308Y-56990185D01*
X191644063Y-57042989D01*
X191649942Y-57061685D01*
X191650634Y-57061485D01*
X191698254Y-57225393D01*
X191698255Y-57225396D01*
X191698256Y-57225398D01*
X191721807Y-57265220D01*
X191729939Y-57278971D01*
X191732324Y-57288373D01*
X191738322Y-57295999D01*
X191740776Y-57321684D01*
X191747122Y-57346695D01*
X191744045Y-57355895D01*
X191744968Y-57365552D01*
X191733145Y-57388486D01*
X191724962Y-57412958D01*
X191716545Y-57420690D01*
X191712955Y-57427656D01*
X191685214Y-57449475D01*
X191668642Y-57459043D01*
X191668095Y-57459360D01*
X191650125Y-57469735D01*
X191581285Y-57509479D01*
X191581282Y-57509481D01*
X191469478Y-57621286D01*
X191277582Y-57813181D01*
X191216259Y-57846666D01*
X191189901Y-57849500D01*
X190042129Y-57849500D01*
X190042123Y-57849501D01*
X189982516Y-57855908D01*
X189847671Y-57906202D01*
X189847664Y-57906206D01*
X189732455Y-57992452D01*
X189732452Y-57992455D01*
X189646206Y-58107664D01*
X189646202Y-58107671D01*
X189595908Y-58242517D01*
X189589501Y-58302116D01*
X189589501Y-58302123D01*
X189589500Y-58302135D01*
X189589500Y-59897870D01*
X189589501Y-59897876D01*
X189595908Y-59957483D01*
X189649303Y-60100641D01*
X189647575Y-60101285D01*
X189660095Y-60158853D01*
X189648310Y-60198988D01*
X189649303Y-60199359D01*
X189595908Y-60342517D01*
X189589723Y-60400050D01*
X189589501Y-60402123D01*
X189589500Y-60402135D01*
X189589500Y-61997870D01*
X189589501Y-61997876D01*
X189595908Y-62057483D01*
X189646202Y-62192328D01*
X189646206Y-62192335D01*
X189732452Y-62307544D01*
X189732455Y-62307547D01*
X189847664Y-62393793D01*
X189847671Y-62393797D01*
X189982517Y-62444091D01*
X189982516Y-62444091D01*
X189989444Y-62444835D01*
X190042127Y-62450500D01*
X191637872Y-62450499D01*
X191697483Y-62444091D01*
X191832331Y-62393796D01*
X191947546Y-62307546D01*
X192033796Y-62192331D01*
X192084091Y-62057483D01*
X192090500Y-61997873D01*
X192090499Y-61989327D01*
X192110178Y-61922290D01*
X192162978Y-61876531D01*
X192232136Y-61866582D01*
X192295694Y-61895601D01*
X192314817Y-61916435D01*
X192386172Y-62014646D01*
X192525354Y-62153828D01*
X192684595Y-62269524D01*
X192751108Y-62303414D01*
X192859970Y-62358882D01*
X192859972Y-62358882D01*
X192859975Y-62358884D01*
X192960317Y-62391487D01*
X193047173Y-62419709D01*
X193241578Y-62450500D01*
X193241583Y-62450500D01*
X193438422Y-62450500D01*
X193632826Y-62419709D01*
X193712574Y-62393797D01*
X193820025Y-62358884D01*
X193995405Y-62269524D01*
X194154646Y-62153828D01*
X194293828Y-62014646D01*
X194409524Y-61855405D01*
X194498884Y-61680025D01*
X194559709Y-61492826D01*
X194574228Y-61401155D01*
X194590500Y-61298422D01*
X194590500Y-61101577D01*
X194559709Y-60907173D01*
X194511007Y-60757287D01*
X194498884Y-60719975D01*
X194498882Y-60719972D01*
X194498882Y-60719970D01*
X194437754Y-60600000D01*
X194409524Y-60544595D01*
X194293828Y-60385354D01*
X194154646Y-60246172D01*
X194154643Y-60246170D01*
X194152442Y-60244290D01*
X194151836Y-60243362D01*
X194151201Y-60242727D01*
X194151334Y-60242593D01*
X194114249Y-60185782D01*
X194113751Y-60115914D01*
X194151105Y-60056868D01*
X194152442Y-60055710D01*
X194154635Y-60053835D01*
X194154646Y-60053828D01*
X194293828Y-59914646D01*
X194409524Y-59755405D01*
X194498884Y-59580025D01*
X194559709Y-59392826D01*
X194566288Y-59351286D01*
X194590500Y-59198422D01*
X194590500Y-59001577D01*
X194559709Y-58807173D01*
X194542048Y-58752819D01*
X194540053Y-58682978D01*
X194576133Y-58623145D01*
X194638834Y-58592316D01*
X194659979Y-58590500D01*
X203043331Y-58590500D01*
X203043347Y-58590501D01*
X203050943Y-58590501D01*
X203209054Y-58590501D01*
X203209057Y-58590501D01*
X203361785Y-58549577D01*
X203420941Y-58515423D01*
X203498716Y-58470520D01*
X203610520Y-58358716D01*
X203610520Y-58358714D01*
X203620724Y-58348511D01*
X203620727Y-58348506D01*
X204287820Y-57681414D01*
X204349142Y-57647930D01*
X204418834Y-57652914D01*
X204474767Y-57694786D01*
X204499184Y-57760250D01*
X204499500Y-57769096D01*
X204499500Y-65375500D01*
X204479815Y-65442539D01*
X204427011Y-65488294D01*
X204375500Y-65499500D01*
X200374000Y-65499500D01*
X200306961Y-65479815D01*
X200261206Y-65427011D01*
X200250000Y-65375500D01*
X200250000Y-61200000D01*
X195550000Y-61200000D01*
X195550000Y-65375500D01*
X195530315Y-65442539D01*
X195477511Y-65488294D01*
X195426000Y-65499500D01*
X174899758Y-65499500D01*
X174832719Y-65479815D01*
X174786964Y-65427011D01*
X174777020Y-65357853D01*
X174806045Y-65294297D01*
X174812077Y-65287819D01*
X174817415Y-65282481D01*
X174895104Y-65204792D01*
X174895106Y-65204788D01*
X174895109Y-65204786D01*
X175020048Y-65032820D01*
X175020047Y-65032820D01*
X175020051Y-65032816D01*
X175116557Y-64843412D01*
X175182246Y-64641243D01*
X175215500Y-64431287D01*
X175215500Y-64218713D01*
X175182246Y-64008757D01*
X175116557Y-63806588D01*
X175020051Y-63617184D01*
X175020049Y-63617181D01*
X175020048Y-63617179D01*
X174895109Y-63445213D01*
X174744786Y-63294890D01*
X174572820Y-63169951D01*
X174572115Y-63169591D01*
X174564054Y-63165485D01*
X174513259Y-63117512D01*
X174496463Y-63049692D01*
X174518999Y-62983556D01*
X174564054Y-62944515D01*
X174572816Y-62940051D01*
X174653883Y-62881153D01*
X174744786Y-62815109D01*
X174744788Y-62815106D01*
X174744792Y-62815104D01*
X174895104Y-62664792D01*
X174895106Y-62664788D01*
X174895109Y-62664786D01*
X175020048Y-62492820D01*
X175020047Y-62492820D01*
X175020051Y-62492816D01*
X175116557Y-62303412D01*
X175182246Y-62101243D01*
X175215500Y-61891287D01*
X175215500Y-61678713D01*
X175182246Y-61468757D01*
X175116557Y-61266588D01*
X175020051Y-61077184D01*
X175020049Y-61077181D01*
X175020048Y-61077179D01*
X174895109Y-60905213D01*
X174744786Y-60754890D01*
X174572820Y-60629951D01*
X174572115Y-60629591D01*
X174564054Y-60625485D01*
X174513259Y-60577512D01*
X174496463Y-60509692D01*
X174518999Y-60443556D01*
X174564054Y-60404515D01*
X174572816Y-60400051D01*
X174652004Y-60342518D01*
X174744786Y-60275109D01*
X174744788Y-60275106D01*
X174744792Y-60275104D01*
X174895104Y-60124792D01*
X174895106Y-60124788D01*
X174895109Y-60124786D01*
X175020048Y-59952820D01*
X175020047Y-59952820D01*
X175020051Y-59952816D01*
X175116557Y-59763412D01*
X175182246Y-59561243D01*
X175215500Y-59351287D01*
X175215500Y-59138713D01*
X175182246Y-58928757D01*
X175116557Y-58726588D01*
X175020051Y-58537184D01*
X174986213Y-58490609D01*
X174899815Y-58371691D01*
X174899814Y-58371690D01*
X174895107Y-58365211D01*
X174832031Y-58302135D01*
X176789500Y-58302135D01*
X176789500Y-59897870D01*
X176789501Y-59897876D01*
X176795908Y-59957483D01*
X176849303Y-60100641D01*
X176847575Y-60101285D01*
X176860095Y-60158853D01*
X176848310Y-60198988D01*
X176849303Y-60199359D01*
X176795908Y-60342517D01*
X176789723Y-60400050D01*
X176789501Y-60402123D01*
X176789500Y-60402135D01*
X176789500Y-61997870D01*
X176789501Y-61997876D01*
X176795908Y-62057483D01*
X176846202Y-62192328D01*
X176846206Y-62192335D01*
X176932452Y-62307544D01*
X176932455Y-62307547D01*
X177047664Y-62393793D01*
X177047671Y-62393797D01*
X177182517Y-62444091D01*
X177182516Y-62444091D01*
X177189444Y-62444835D01*
X177242127Y-62450500D01*
X178837872Y-62450499D01*
X178897483Y-62444091D01*
X179032331Y-62393796D01*
X179147546Y-62307546D01*
X179233796Y-62192331D01*
X179284091Y-62057483D01*
X179290500Y-61997873D01*
X179290499Y-61989327D01*
X179310178Y-61922290D01*
X179362978Y-61876531D01*
X179432136Y-61866582D01*
X179495694Y-61895601D01*
X179514817Y-61916435D01*
X179586172Y-62014646D01*
X179725354Y-62153828D01*
X179884595Y-62269524D01*
X179951108Y-62303414D01*
X180059970Y-62358882D01*
X180059972Y-62358882D01*
X180059975Y-62358884D01*
X180160317Y-62391487D01*
X180247173Y-62419709D01*
X180441578Y-62450500D01*
X180441583Y-62450500D01*
X180638422Y-62450500D01*
X180832826Y-62419709D01*
X180912574Y-62393797D01*
X181020025Y-62358884D01*
X181195405Y-62269524D01*
X181354646Y-62153828D01*
X181493828Y-62014646D01*
X181609524Y-61855405D01*
X181698884Y-61680025D01*
X181759709Y-61492826D01*
X181774228Y-61401155D01*
X181790500Y-61298422D01*
X181790500Y-61101577D01*
X181759709Y-60907173D01*
X181711007Y-60757287D01*
X181698884Y-60719975D01*
X181698882Y-60719972D01*
X181698882Y-60719970D01*
X181637754Y-60600000D01*
X181609524Y-60544595D01*
X181493828Y-60385354D01*
X181354646Y-60246172D01*
X181354643Y-60246170D01*
X181352442Y-60244290D01*
X181351836Y-60243362D01*
X181351201Y-60242727D01*
X181351334Y-60242593D01*
X181314249Y-60185782D01*
X181313751Y-60115914D01*
X181351105Y-60056868D01*
X181352442Y-60055710D01*
X181354635Y-60053835D01*
X181354646Y-60053828D01*
X181493828Y-59914646D01*
X181609524Y-59755405D01*
X181698884Y-59580025D01*
X181759709Y-59392826D01*
X181766288Y-59351286D01*
X181790500Y-59198422D01*
X181790500Y-59121153D01*
X182089500Y-59121153D01*
X182089500Y-59278846D01*
X182120261Y-59433489D01*
X182120264Y-59433501D01*
X182180602Y-59579172D01*
X182180609Y-59579185D01*
X182268210Y-59710288D01*
X182268213Y-59710292D01*
X182379707Y-59821786D01*
X182379711Y-59821789D01*
X182510814Y-59909390D01*
X182510827Y-59909397D01*
X182656498Y-59969735D01*
X182656503Y-59969737D01*
X182811153Y-60000499D01*
X182811156Y-60000500D01*
X182811158Y-60000500D01*
X182968844Y-60000500D01*
X182968845Y-60000499D01*
X183123497Y-59969737D01*
X183256497Y-59914647D01*
X183269172Y-59909397D01*
X183269172Y-59909396D01*
X183269179Y-59909394D01*
X183400289Y-59821789D01*
X183511789Y-59710289D01*
X183599394Y-59579179D01*
X183659737Y-59433497D01*
X183690500Y-59278842D01*
X183690500Y-59121158D01*
X183690500Y-59121155D01*
X183690499Y-59121153D01*
X183666715Y-59001583D01*
X183659737Y-58966503D01*
X183647309Y-58936498D01*
X183599397Y-58820827D01*
X183599390Y-58820814D01*
X183511789Y-58689711D01*
X183511786Y-58689707D01*
X183400292Y-58578213D01*
X183400288Y-58578210D01*
X183269185Y-58490609D01*
X183269172Y-58490602D01*
X183123501Y-58430264D01*
X183123489Y-58430261D01*
X182968845Y-58399500D01*
X182968842Y-58399500D01*
X182811158Y-58399500D01*
X182811155Y-58399500D01*
X182656510Y-58430261D01*
X182656498Y-58430264D01*
X182510827Y-58490602D01*
X182510814Y-58490609D01*
X182379711Y-58578210D01*
X182379707Y-58578213D01*
X182268213Y-58689707D01*
X182268210Y-58689711D01*
X182180609Y-58820814D01*
X182180602Y-58820827D01*
X182120264Y-58966498D01*
X182120261Y-58966510D01*
X182089500Y-59121153D01*
X181790500Y-59121153D01*
X181790500Y-59001577D01*
X181759709Y-58807173D01*
X181699914Y-58623145D01*
X181698884Y-58619975D01*
X181698882Y-58619972D01*
X181698882Y-58619970D01*
X181639959Y-58504327D01*
X181609524Y-58444595D01*
X181493828Y-58285354D01*
X181354646Y-58146172D01*
X181195405Y-58030476D01*
X181178360Y-58021791D01*
X181020029Y-57941117D01*
X180832826Y-57880290D01*
X180638422Y-57849500D01*
X180638417Y-57849500D01*
X180441583Y-57849500D01*
X180441578Y-57849500D01*
X180247173Y-57880290D01*
X180059970Y-57941117D01*
X179884594Y-58030476D01*
X179802741Y-58089947D01*
X179725354Y-58146172D01*
X179725352Y-58146174D01*
X179725351Y-58146174D01*
X179586173Y-58285352D01*
X179514817Y-58383565D01*
X179459486Y-58426230D01*
X179389873Y-58432209D01*
X179328078Y-58399603D01*
X179293721Y-58338764D01*
X179290499Y-58310679D01*
X179290499Y-58302129D01*
X179290498Y-58302123D01*
X179290497Y-58302116D01*
X179284091Y-58242517D01*
X179248157Y-58146174D01*
X179233797Y-58107671D01*
X179233793Y-58107664D01*
X179147547Y-57992455D01*
X179147544Y-57992452D01*
X179032335Y-57906206D01*
X179032328Y-57906202D01*
X178897482Y-57855908D01*
X178897483Y-57855908D01*
X178837883Y-57849501D01*
X178837881Y-57849500D01*
X178837873Y-57849500D01*
X178837864Y-57849500D01*
X177242129Y-57849500D01*
X177242123Y-57849501D01*
X177182516Y-57855908D01*
X177047671Y-57906202D01*
X177047664Y-57906206D01*
X176932455Y-57992452D01*
X176932452Y-57992455D01*
X176846206Y-58107664D01*
X176846202Y-58107671D01*
X176795908Y-58242517D01*
X176789501Y-58302116D01*
X176789501Y-58302123D01*
X176789500Y-58302135D01*
X174832031Y-58302135D01*
X174744786Y-58214890D01*
X174572820Y-58089951D01*
X174383414Y-57993444D01*
X174383413Y-57993443D01*
X174383412Y-57993443D01*
X174181243Y-57927754D01*
X174181241Y-57927753D01*
X174181240Y-57927753D01*
X174019957Y-57902208D01*
X173971287Y-57894500D01*
X173758713Y-57894500D01*
X173710042Y-57902208D01*
X173548760Y-57927753D01*
X173346585Y-57993444D01*
X173157179Y-58089951D01*
X172985213Y-58214890D01*
X172834890Y-58365213D01*
X172709949Y-58537182D01*
X172705484Y-58545946D01*
X172657509Y-58596742D01*
X172589688Y-58613536D01*
X172523553Y-58590998D01*
X172484516Y-58545946D01*
X172480050Y-58537182D01*
X172355109Y-58365213D01*
X172204786Y-58214890D01*
X172032815Y-58089948D01*
X172032814Y-58089947D01*
X171993205Y-58069765D01*
X171942409Y-58021791D01*
X171925500Y-57959281D01*
X171925500Y-53246690D01*
X171945185Y-53179651D01*
X171949435Y-53173811D01*
X171951787Y-53170290D01*
X171951789Y-53170289D01*
X172038726Y-53040179D01*
X172039390Y-53039185D01*
X172039390Y-53039184D01*
X172039394Y-53039179D01*
X172099737Y-52893497D01*
X172130500Y-52738842D01*
X172130500Y-52581158D01*
X172130500Y-52581155D01*
X172102063Y-52438196D01*
X172108290Y-52368604D01*
X172151153Y-52313427D01*
X172184673Y-52296299D01*
X172219334Y-52284814D01*
X172368656Y-52192712D01*
X172462319Y-52099049D01*
X172523642Y-52065564D01*
X172593334Y-52070548D01*
X172637681Y-52099049D01*
X172731344Y-52192712D01*
X172880666Y-52284814D01*
X173047203Y-52339999D01*
X173149991Y-52350500D01*
X173775008Y-52350499D01*
X173775016Y-52350498D01*
X173775019Y-52350498D01*
X173872892Y-52340500D01*
X173877797Y-52339999D01*
X174044334Y-52284814D01*
X174193656Y-52192712D01*
X174317712Y-52068656D01*
X174409814Y-51919334D01*
X174437595Y-51835495D01*
X174477368Y-51778051D01*
X174541884Y-51751228D01*
X174555301Y-51750500D01*
X175663331Y-51750500D01*
X175663347Y-51750501D01*
X175670943Y-51750501D01*
X175829054Y-51750501D01*
X175829057Y-51750501D01*
X175981785Y-51709577D01*
X176048328Y-51671158D01*
X176061378Y-51663624D01*
X176118709Y-51630524D01*
X176118708Y-51630524D01*
X176118716Y-51630520D01*
X176230520Y-51518716D01*
X176230520Y-51518714D01*
X176240724Y-51508511D01*
X176240727Y-51508506D01*
X176687820Y-51061414D01*
X176749142Y-51027930D01*
X176818834Y-51032914D01*
X176874767Y-51074786D01*
X176899184Y-51140250D01*
X176899500Y-51149096D01*
X176899500Y-52030234D01*
X176879815Y-52097273D01*
X176878602Y-52099125D01*
X176790609Y-52230814D01*
X176790602Y-52230827D01*
X176730264Y-52376498D01*
X176730261Y-52376510D01*
X176699500Y-52531153D01*
X176699500Y-52688846D01*
X176730261Y-52843489D01*
X176730264Y-52843501D01*
X176790602Y-52989172D01*
X176790609Y-52989185D01*
X176878210Y-53120288D01*
X176878213Y-53120292D01*
X176989707Y-53231786D01*
X176989711Y-53231789D01*
X177120814Y-53319390D01*
X177120827Y-53319397D01*
X177251967Y-53373716D01*
X177266503Y-53379737D01*
X177421153Y-53410499D01*
X177421156Y-53410500D01*
X177421158Y-53410500D01*
X177578844Y-53410500D01*
X177578845Y-53410499D01*
X177733497Y-53379737D01*
X177854781Y-53329500D01*
X177879172Y-53319397D01*
X177879172Y-53319396D01*
X177879179Y-53319394D01*
X178010289Y-53231789D01*
X178121789Y-53120289D01*
X178209394Y-52989179D01*
X178269737Y-52843497D01*
X178300500Y-52688842D01*
X178300500Y-52531158D01*
X178300500Y-52531155D01*
X178300499Y-52531153D01*
X178287067Y-52463627D01*
X178269737Y-52376503D01*
X178258966Y-52350499D01*
X178209397Y-52230827D01*
X178209390Y-52230814D01*
X178121398Y-52099125D01*
X178100520Y-52032447D01*
X178100500Y-52030234D01*
X178100500Y-47129601D01*
X178120185Y-47062562D01*
X178168206Y-47019116D01*
X178181610Y-47012287D01*
X178347219Y-46891966D01*
X178491966Y-46747219D01*
X178491968Y-46747215D01*
X178491971Y-46747213D01*
X178612284Y-46581614D01*
X178612285Y-46581613D01*
X178612287Y-46581610D01*
X178659516Y-46488917D01*
X178707489Y-46438123D01*
X178775310Y-46421328D01*
X178841445Y-46443865D01*
X178880485Y-46488919D01*
X178927715Y-46581614D01*
X179048028Y-46747213D01*
X179048034Y-46747219D01*
X179192781Y-46891966D01*
X179358390Y-47012287D01*
X179371793Y-47019116D01*
X179422589Y-47067088D01*
X179439500Y-47129601D01*
X179439500Y-47780234D01*
X179419815Y-47847273D01*
X179418602Y-47849125D01*
X179330609Y-47980814D01*
X179330602Y-47980827D01*
X179270264Y-48126498D01*
X179270261Y-48126510D01*
X179239500Y-48281153D01*
X179239500Y-48438846D01*
X179270261Y-48593489D01*
X179270264Y-48593501D01*
X179330602Y-48739172D01*
X179330609Y-48739185D01*
X179418210Y-48870288D01*
X179418213Y-48870292D01*
X179529707Y-48981786D01*
X179529711Y-48981789D01*
X179660814Y-49069390D01*
X179660827Y-49069397D01*
X179772134Y-49115501D01*
X179806503Y-49129737D01*
X179961153Y-49160499D01*
X179961156Y-49160500D01*
X179961158Y-49160500D01*
X180118844Y-49160500D01*
X180118845Y-49160499D01*
X180273497Y-49129737D01*
X180419179Y-49069394D01*
X180550289Y-48981789D01*
X180661789Y-48870289D01*
X180749394Y-48739179D01*
X180759290Y-48715289D01*
X180790584Y-48639736D01*
X180809737Y-48593497D01*
X180840500Y-48438842D01*
X180840500Y-48281158D01*
X180840500Y-48281155D01*
X180840499Y-48281153D01*
X180824257Y-48199500D01*
X180809737Y-48126503D01*
X180786118Y-48069481D01*
X180749397Y-47980827D01*
X180749390Y-47980814D01*
X180661398Y-47849125D01*
X180640520Y-47782447D01*
X180640500Y-47780234D01*
X180640500Y-47129601D01*
X180660185Y-47062562D01*
X180708206Y-47019116D01*
X180721610Y-47012287D01*
X180887219Y-46891966D01*
X181031966Y-46747219D01*
X181031968Y-46747215D01*
X181031971Y-46747213D01*
X181152284Y-46581614D01*
X181152285Y-46581613D01*
X181152287Y-46581610D01*
X181199516Y-46488917D01*
X181208161Y-46479764D01*
X181212896Y-46468099D01*
X181231693Y-46454847D01*
X181247489Y-46438123D01*
X181259711Y-46435096D01*
X181270002Y-46427842D01*
X181292982Y-46426856D01*
X181315310Y-46421328D01*
X181327227Y-46425389D01*
G37*
%TD.AperFunction*%
%TA.AperFunction,NonConductor*%
G36*
X179495694Y-59795601D02*
G01*
X179514817Y-59816435D01*
X179582358Y-59909397D01*
X179586173Y-59914647D01*
X179725355Y-60053829D01*
X179727565Y-60055717D01*
X179728170Y-60056644D01*
X179728799Y-60057273D01*
X179728666Y-60057405D01*
X179765753Y-60114228D01*
X179766245Y-60184095D01*
X179728886Y-60243138D01*
X179727565Y-60244283D01*
X179725355Y-60246170D01*
X179586173Y-60385352D01*
X179514817Y-60483565D01*
X179459486Y-60526230D01*
X179389873Y-60532209D01*
X179328078Y-60499603D01*
X179293721Y-60438764D01*
X179290499Y-60410679D01*
X179290499Y-60402129D01*
X179290498Y-60402123D01*
X179290497Y-60402116D01*
X179284091Y-60342517D01*
X179233796Y-60207669D01*
X179233794Y-60207666D01*
X179230696Y-60199360D01*
X179232426Y-60198714D01*
X179219902Y-60141163D01*
X179231691Y-60101011D01*
X179230696Y-60100640D01*
X179233794Y-60092333D01*
X179233796Y-60092331D01*
X179284091Y-59957483D01*
X179290500Y-59897873D01*
X179290499Y-59889327D01*
X179310178Y-59822290D01*
X179362978Y-59776531D01*
X179432136Y-59766582D01*
X179495694Y-59795601D01*
G37*
%TD.AperFunction*%
%TA.AperFunction,NonConductor*%
G36*
X172827226Y-43135524D02*
G01*
X172839810Y-43134985D01*
X172859674Y-43146581D01*
X172881444Y-43153999D01*
X172890719Y-43164703D01*
X172900151Y-43170209D01*
X172920486Y-43199056D01*
X172924950Y-43207817D01*
X172933393Y-43219438D01*
X172956874Y-43285244D01*
X172941049Y-43353298D01*
X172920757Y-43380006D01*
X171268786Y-45031978D01*
X171156981Y-45143782D01*
X171156979Y-45143785D01*
X171124216Y-45200534D01*
X171124215Y-45200536D01*
X171077923Y-45280714D01*
X171068163Y-45317139D01*
X171036999Y-45433443D01*
X171036999Y-45433445D01*
X171036999Y-45601546D01*
X171037000Y-45601559D01*
X171037000Y-47357491D01*
X171017315Y-47424530D01*
X170978098Y-47463029D01*
X170906344Y-47507287D01*
X170782289Y-47631342D01*
X170690187Y-47780663D01*
X170690185Y-47780668D01*
X170670908Y-47838842D01*
X170635001Y-47947203D01*
X170635001Y-47947204D01*
X170635000Y-47947204D01*
X170624500Y-48049983D01*
X170624500Y-49050001D01*
X170624501Y-49050019D01*
X170635000Y-49152796D01*
X170635001Y-49152799D01*
X170665824Y-49245814D01*
X170690186Y-49319334D01*
X170782288Y-49468656D01*
X170906344Y-49592712D01*
X170978096Y-49636968D01*
X170984919Y-49644554D01*
X170994203Y-49648794D01*
X171007890Y-49670092D01*
X171024821Y-49688915D01*
X171027465Y-49700551D01*
X171031977Y-49707572D01*
X171037000Y-49742507D01*
X171037000Y-49957491D01*
X171017315Y-50024530D01*
X170978098Y-50063029D01*
X170906344Y-50107287D01*
X170782289Y-50231342D01*
X170690187Y-50380663D01*
X170690185Y-50380668D01*
X170680046Y-50411265D01*
X170635001Y-50547203D01*
X170635001Y-50547204D01*
X170635000Y-50547204D01*
X170624500Y-50649983D01*
X170624500Y-51650001D01*
X170624501Y-51650019D01*
X170635000Y-51752796D01*
X170635001Y-51752799D01*
X170690185Y-51919331D01*
X170690189Y-51919340D01*
X170733478Y-51989523D01*
X170751918Y-52056916D01*
X170730995Y-52123579D01*
X170715624Y-52142296D01*
X170708215Y-52149705D01*
X170708210Y-52149711D01*
X170620609Y-52280814D01*
X170620602Y-52280827D01*
X170560264Y-52426498D01*
X170560261Y-52426510D01*
X170529500Y-52581153D01*
X170529500Y-52738846D01*
X170560261Y-52893489D01*
X170560264Y-52893501D01*
X170620602Y-53039172D01*
X170620609Y-53039185D01*
X170703602Y-53163391D01*
X170724480Y-53230068D01*
X170724500Y-53232282D01*
X170724500Y-57959281D01*
X170704815Y-58026320D01*
X170656795Y-58069765D01*
X170617185Y-58089947D01*
X170617184Y-58089948D01*
X170445213Y-58214890D01*
X170294894Y-58365209D01*
X170294890Y-58365214D01*
X170224818Y-58461661D01*
X170169488Y-58504327D01*
X170099875Y-58510306D01*
X170038080Y-58477700D01*
X170003723Y-58416862D01*
X170000500Y-58388776D01*
X170000500Y-49450943D01*
X170000028Y-49449179D01*
X169959577Y-49298215D01*
X169926440Y-49240821D01*
X169926440Y-49240820D01*
X169880522Y-49161287D01*
X169880521Y-49161286D01*
X169880520Y-49161284D01*
X169774572Y-49055336D01*
X169741088Y-48994013D01*
X169740637Y-48991846D01*
X169725231Y-48914397D01*
X169709737Y-48836503D01*
X169702694Y-48819500D01*
X169649397Y-48690827D01*
X169649390Y-48690814D01*
X169561789Y-48559711D01*
X169561786Y-48559707D01*
X169450292Y-48448213D01*
X169450288Y-48448210D01*
X169319185Y-48360609D01*
X169319172Y-48360602D01*
X169173501Y-48300264D01*
X169173489Y-48300261D01*
X169018845Y-48269500D01*
X169018842Y-48269500D01*
X168861158Y-48269500D01*
X168861155Y-48269500D01*
X168706510Y-48300261D01*
X168706498Y-48300264D01*
X168560827Y-48360602D01*
X168560814Y-48360609D01*
X168429711Y-48448210D01*
X168429707Y-48448213D01*
X168318213Y-48559707D01*
X168318210Y-48559711D01*
X168230609Y-48690814D01*
X168230602Y-48690827D01*
X168170264Y-48836498D01*
X168170261Y-48836510D01*
X168139500Y-48991153D01*
X168139500Y-49148846D01*
X168170261Y-49303489D01*
X168170264Y-49303501D01*
X168230602Y-49449172D01*
X168230609Y-49449185D01*
X168318210Y-49580288D01*
X168318213Y-49580292D01*
X168429707Y-49691786D01*
X168429711Y-49691789D01*
X168560814Y-49779390D01*
X168560827Y-49779397D01*
X168706503Y-49839737D01*
X168711500Y-49841253D01*
X168769937Y-49879553D01*
X168798391Y-49943366D01*
X168799500Y-49959912D01*
X168799500Y-58191664D01*
X168779815Y-58258703D01*
X168727011Y-58304458D01*
X168657853Y-58314402D01*
X168594297Y-58285377D01*
X168587819Y-58279345D01*
X168454648Y-58146174D01*
X168454646Y-58146172D01*
X168295405Y-58030476D01*
X168278360Y-58021791D01*
X168120029Y-57941117D01*
X167932826Y-57880290D01*
X167738422Y-57849500D01*
X167738417Y-57849500D01*
X167541583Y-57849500D01*
X167541578Y-57849500D01*
X167347173Y-57880290D01*
X167159970Y-57941117D01*
X166984594Y-58030476D01*
X166902741Y-58089947D01*
X166825354Y-58146172D01*
X166825352Y-58146174D01*
X166825351Y-58146174D01*
X166686173Y-58285352D01*
X166614817Y-58383565D01*
X166559486Y-58426230D01*
X166489873Y-58432209D01*
X166428078Y-58399603D01*
X166393721Y-58338764D01*
X166390499Y-58310679D01*
X166390499Y-58302129D01*
X166390498Y-58302123D01*
X166390497Y-58302116D01*
X166384091Y-58242517D01*
X166348157Y-58146174D01*
X166333797Y-58107671D01*
X166333793Y-58107664D01*
X166247547Y-57992455D01*
X166247544Y-57992452D01*
X166132335Y-57906206D01*
X166132328Y-57906202D01*
X165997482Y-57855908D01*
X165997483Y-57855908D01*
X165937883Y-57849501D01*
X165937881Y-57849500D01*
X165937873Y-57849500D01*
X165937864Y-57849500D01*
X164342129Y-57849500D01*
X164342123Y-57849501D01*
X164282516Y-57855908D01*
X164147671Y-57906202D01*
X164147664Y-57906206D01*
X164032455Y-57992452D01*
X164032452Y-57992455D01*
X163946206Y-58107664D01*
X163946202Y-58107671D01*
X163895908Y-58242517D01*
X163889501Y-58302116D01*
X163889501Y-58302123D01*
X163889500Y-58302135D01*
X163889500Y-59897870D01*
X163889501Y-59897876D01*
X163895908Y-59957483D01*
X163949303Y-60100641D01*
X163947575Y-60101285D01*
X163960095Y-60158853D01*
X163948310Y-60198988D01*
X163949303Y-60199359D01*
X163895908Y-60342517D01*
X163889723Y-60400050D01*
X163889501Y-60402123D01*
X163889500Y-60402135D01*
X163889500Y-61997870D01*
X163889501Y-61997876D01*
X163895908Y-62057483D01*
X163946202Y-62192328D01*
X163946206Y-62192335D01*
X164032452Y-62307544D01*
X164032455Y-62307547D01*
X164147664Y-62393793D01*
X164147671Y-62393797D01*
X164282517Y-62444091D01*
X164282516Y-62444091D01*
X164289444Y-62444835D01*
X164342127Y-62450500D01*
X165937872Y-62450499D01*
X165997483Y-62444091D01*
X166132331Y-62393796D01*
X166247546Y-62307546D01*
X166333796Y-62192331D01*
X166384091Y-62057483D01*
X166390500Y-61997873D01*
X166390499Y-61989327D01*
X166410178Y-61922290D01*
X166462978Y-61876531D01*
X166532136Y-61866582D01*
X166595694Y-61895601D01*
X166614817Y-61916435D01*
X166686172Y-62014646D01*
X166825354Y-62153828D01*
X166984595Y-62269524D01*
X167051108Y-62303414D01*
X167159970Y-62358882D01*
X167159972Y-62358882D01*
X167159975Y-62358884D01*
X167260317Y-62391487D01*
X167347173Y-62419709D01*
X167541578Y-62450500D01*
X167541583Y-62450500D01*
X167738422Y-62450500D01*
X167866710Y-62430180D01*
X167922306Y-62421375D01*
X167991598Y-62430329D01*
X168045050Y-62475325D01*
X168065690Y-62542077D01*
X168056265Y-62591300D01*
X168000263Y-62726503D01*
X168000262Y-62726506D01*
X168000262Y-62726507D01*
X168000261Y-62726510D01*
X167969500Y-62881153D01*
X167969500Y-63038846D01*
X168000261Y-63193489D01*
X168000264Y-63193501D01*
X168060602Y-63339172D01*
X168060609Y-63339185D01*
X168111985Y-63416074D01*
X168132863Y-63482752D01*
X168114378Y-63550132D01*
X168111987Y-63553853D01*
X168080610Y-63600814D01*
X168080602Y-63600828D01*
X168020264Y-63746498D01*
X168020261Y-63746510D01*
X167989500Y-63901153D01*
X167989500Y-64058846D01*
X168020261Y-64213489D01*
X168020264Y-64213501D01*
X168080602Y-64359172D01*
X168080609Y-64359185D01*
X168168210Y-64490288D01*
X168168213Y-64490292D01*
X168279707Y-64601786D01*
X168279711Y-64601789D01*
X168410814Y-64689390D01*
X168410827Y-64689397D01*
X168556498Y-64749735D01*
X168556503Y-64749737D01*
X168711153Y-64780499D01*
X168711156Y-64780500D01*
X168711158Y-64780500D01*
X168868844Y-64780500D01*
X168868845Y-64780499D01*
X169023497Y-64749737D01*
X169169179Y-64689394D01*
X169300289Y-64601789D01*
X169411789Y-64490289D01*
X169499394Y-64359179D01*
X169559737Y-64213497D01*
X169579113Y-64116085D01*
X169590638Y-64058150D01*
X169599402Y-64041393D01*
X169603423Y-64022914D01*
X169622167Y-63997875D01*
X169623023Y-63996239D01*
X169624518Y-63994716D01*
X169762821Y-63856413D01*
X169824142Y-63822930D01*
X169893834Y-63827914D01*
X169949767Y-63869786D01*
X169974184Y-63935250D01*
X169974500Y-63944096D01*
X169974500Y-65222870D01*
X169974501Y-65222876D01*
X169980908Y-65282481D01*
X169999440Y-65332166D01*
X170004424Y-65401858D01*
X169970939Y-65463181D01*
X169909616Y-65496666D01*
X169883258Y-65499500D01*
X149874000Y-65499500D01*
X149806961Y-65479815D01*
X149761206Y-65427011D01*
X149750000Y-65375500D01*
X149750000Y-62790020D01*
X149769685Y-62722981D01*
X149822489Y-62677226D01*
X149891647Y-62667282D01*
X149955203Y-62696307D01*
X149961681Y-62702339D01*
X150203454Y-62944112D01*
X150318192Y-63020777D01*
X150445341Y-63073443D01*
X150445672Y-63073580D01*
X150445676Y-63073580D01*
X150445677Y-63073581D01*
X150581003Y-63100500D01*
X150581006Y-63100500D01*
X150581007Y-63100500D01*
X159425501Y-63100500D01*
X159492540Y-63120185D01*
X159538295Y-63172989D01*
X159549501Y-63224500D01*
X159549501Y-63500018D01*
X159560000Y-63602796D01*
X159560001Y-63602799D01*
X159607623Y-63746510D01*
X159615186Y-63769334D01*
X159707288Y-63918656D01*
X159831344Y-64042712D01*
X159980666Y-64134814D01*
X160147203Y-64189999D01*
X160249991Y-64200500D01*
X161450008Y-64200499D01*
X161552797Y-64189999D01*
X161719334Y-64134814D01*
X161868656Y-64042712D01*
X161992712Y-63918656D01*
X162084814Y-63769334D01*
X162139999Y-63602797D01*
X162150500Y-63500009D01*
X162150499Y-61299992D01*
X162147086Y-61266585D01*
X162139999Y-61197203D01*
X162139998Y-61197200D01*
X162084814Y-61030666D01*
X161992712Y-60881344D01*
X161868656Y-60757288D01*
X161868655Y-60757287D01*
X161784757Y-60705539D01*
X161738032Y-60653591D01*
X161726809Y-60584629D01*
X161754653Y-60520546D01*
X161784757Y-60494461D01*
X161802422Y-60483565D01*
X161868656Y-60442712D01*
X161992712Y-60318656D01*
X162084814Y-60169334D01*
X162139999Y-60002797D01*
X162150500Y-59900009D01*
X162150499Y-57699992D01*
X162139999Y-57597203D01*
X162110531Y-57508277D01*
X162108130Y-57438450D01*
X162143862Y-57378408D01*
X162206382Y-57347215D01*
X162208797Y-57346808D01*
X162324534Y-57328477D01*
X162519219Y-57265220D01*
X162701610Y-57172287D01*
X162805919Y-57096503D01*
X162867213Y-57051971D01*
X162867215Y-57051968D01*
X162867219Y-57051966D01*
X163011966Y-56907219D01*
X163011968Y-56907215D01*
X163011971Y-56907213D01*
X163132284Y-56741614D01*
X163132285Y-56741613D01*
X163132287Y-56741610D01*
X163179516Y-56648917D01*
X163227489Y-56598123D01*
X163295310Y-56581328D01*
X163361445Y-56603865D01*
X163400483Y-56648917D01*
X163423527Y-56694142D01*
X163447715Y-56741614D01*
X163568028Y-56907213D01*
X163712786Y-57051971D01*
X163867749Y-57164556D01*
X163878390Y-57172287D01*
X163959699Y-57213716D01*
X164060776Y-57265218D01*
X164060778Y-57265218D01*
X164060781Y-57265220D01*
X164132039Y-57288373D01*
X164255465Y-57328477D01*
X164333812Y-57340886D01*
X164457648Y-57360500D01*
X164457649Y-57360500D01*
X164662351Y-57360500D01*
X164662352Y-57360500D01*
X164864534Y-57328477D01*
X165059219Y-57265220D01*
X165241610Y-57172287D01*
X165345919Y-57096503D01*
X165407213Y-57051971D01*
X165407215Y-57051968D01*
X165407219Y-57051966D01*
X165551966Y-56907219D01*
X165551968Y-56907215D01*
X165551971Y-56907213D01*
X165672284Y-56741614D01*
X165672285Y-56741613D01*
X165672287Y-56741610D01*
X165719516Y-56648917D01*
X165767489Y-56598123D01*
X165835310Y-56581328D01*
X165901445Y-56603865D01*
X165940483Y-56648917D01*
X165963527Y-56694142D01*
X165987715Y-56741614D01*
X166108028Y-56907213D01*
X166252786Y-57051971D01*
X166407749Y-57164556D01*
X166418390Y-57172287D01*
X166499699Y-57213716D01*
X166600776Y-57265218D01*
X166600778Y-57265218D01*
X166600781Y-57265220D01*
X166672039Y-57288373D01*
X166795465Y-57328477D01*
X166873812Y-57340886D01*
X166997648Y-57360500D01*
X166997649Y-57360500D01*
X167202351Y-57360500D01*
X167202352Y-57360500D01*
X167404534Y-57328477D01*
X167599219Y-57265220D01*
X167781610Y-57172287D01*
X167885919Y-57096503D01*
X167947213Y-57051971D01*
X167947215Y-57051968D01*
X167947219Y-57051966D01*
X168091966Y-56907219D01*
X168091968Y-56907215D01*
X168091971Y-56907213D01*
X168155544Y-56819711D01*
X168212287Y-56741610D01*
X168305220Y-56559219D01*
X168368477Y-56364534D01*
X168400500Y-56162352D01*
X168400500Y-55957648D01*
X168373989Y-55790264D01*
X168368477Y-55755465D01*
X168338039Y-55661786D01*
X168305220Y-55560781D01*
X168305218Y-55560778D01*
X168305218Y-55560776D01*
X168250342Y-55453078D01*
X168212287Y-55378390D01*
X168176620Y-55329298D01*
X168091971Y-55212786D01*
X167947213Y-55068028D01*
X167781613Y-54947715D01*
X167781612Y-54947714D01*
X167781610Y-54947713D01*
X167701565Y-54906928D01*
X167599223Y-54854781D01*
X167404534Y-54791522D01*
X167229995Y-54763878D01*
X167202352Y-54759500D01*
X166997648Y-54759500D01*
X166973329Y-54763351D01*
X166795465Y-54791522D01*
X166600776Y-54854781D01*
X166414049Y-54949925D01*
X166413449Y-54948747D01*
X166351815Y-54965404D01*
X166285217Y-54944272D01*
X166240617Y-54890490D01*
X166230500Y-54841433D01*
X166230500Y-52649765D01*
X166250185Y-52582726D01*
X166251398Y-52580874D01*
X166339390Y-52449185D01*
X166339390Y-52449184D01*
X166339394Y-52449179D01*
X166340503Y-52446503D01*
X166380268Y-52350499D01*
X166399737Y-52303497D01*
X166430500Y-52148842D01*
X166430500Y-51991158D01*
X166430500Y-51991155D01*
X166430499Y-51991153D01*
X166422633Y-51951609D01*
X166399737Y-51836503D01*
X166382066Y-51793840D01*
X166339397Y-51690827D01*
X166339390Y-51690814D01*
X166251789Y-51559711D01*
X166251786Y-51559707D01*
X166140292Y-51448213D01*
X166140288Y-51448210D01*
X166009185Y-51360609D01*
X166009172Y-51360602D01*
X165863501Y-51300264D01*
X165863489Y-51300261D01*
X165708845Y-51269500D01*
X165708842Y-51269500D01*
X165551158Y-51269500D01*
X165551153Y-51269500D01*
X165432240Y-51293153D01*
X165408733Y-51291049D01*
X165385252Y-51293422D01*
X165374578Y-51287993D01*
X165362648Y-51286926D01*
X165344008Y-51272445D01*
X165322974Y-51261748D01*
X165314593Y-51249595D01*
X165307471Y-51244062D01*
X165301004Y-51234125D01*
X165296728Y-51226812D01*
X165269394Y-51160821D01*
X165181789Y-51029711D01*
X165181050Y-51028972D01*
X165177455Y-51022823D01*
X165169891Y-50992376D01*
X165160520Y-50962447D01*
X165160500Y-50960234D01*
X165160500Y-47129601D01*
X165180185Y-47062562D01*
X165228206Y-47019116D01*
X165241610Y-47012287D01*
X165407219Y-46891966D01*
X165551966Y-46747219D01*
X165551968Y-46747215D01*
X165551971Y-46747213D01*
X165672284Y-46581614D01*
X165672285Y-46581613D01*
X165672287Y-46581610D01*
X165719516Y-46488917D01*
X165767489Y-46438123D01*
X165835310Y-46421328D01*
X165901445Y-46443865D01*
X165940485Y-46488919D01*
X165987715Y-46581614D01*
X166108028Y-46747213D01*
X166108034Y-46747219D01*
X166252781Y-46891966D01*
X166418390Y-47012287D01*
X166431793Y-47019116D01*
X166442856Y-47029564D01*
X166456703Y-47035888D01*
X166467744Y-47053068D01*
X166482589Y-47067088D01*
X166486830Y-47082768D01*
X166494477Y-47094666D01*
X166499500Y-47129601D01*
X166499500Y-47180234D01*
X166479815Y-47247273D01*
X166478602Y-47249125D01*
X166390609Y-47380814D01*
X166390602Y-47380827D01*
X166330264Y-47526498D01*
X166330261Y-47526510D01*
X166299500Y-47681153D01*
X166299500Y-47838846D01*
X166330261Y-47993489D01*
X166330264Y-47993501D01*
X166390602Y-48139172D01*
X166390609Y-48139185D01*
X166478210Y-48270288D01*
X166478213Y-48270292D01*
X166589707Y-48381786D01*
X166589711Y-48381789D01*
X166720814Y-48469390D01*
X166720827Y-48469397D01*
X166816038Y-48508834D01*
X166866503Y-48529737D01*
X167018644Y-48560000D01*
X167021153Y-48560499D01*
X167021156Y-48560500D01*
X167021158Y-48560500D01*
X167178844Y-48560500D01*
X167178845Y-48560499D01*
X167333497Y-48529737D01*
X167479179Y-48469394D01*
X167610289Y-48381789D01*
X167721789Y-48270289D01*
X167809394Y-48139179D01*
X167810503Y-48136503D01*
X167823067Y-48106166D01*
X167869737Y-47993497D01*
X167900500Y-47838842D01*
X167900500Y-47681158D01*
X167900500Y-47681155D01*
X167900499Y-47681153D01*
X167891392Y-47635368D01*
X167869737Y-47526503D01*
X167864808Y-47514603D01*
X167809397Y-47380827D01*
X167809390Y-47380814D01*
X167721398Y-47249125D01*
X167715747Y-47231078D01*
X167705523Y-47215169D01*
X167701071Y-47184207D01*
X167700520Y-47182447D01*
X167700500Y-47180234D01*
X167700500Y-47129601D01*
X167720185Y-47062562D01*
X167768206Y-47019116D01*
X167781610Y-47012287D01*
X167947219Y-46891966D01*
X168091966Y-46747219D01*
X168091968Y-46747215D01*
X168091971Y-46747213D01*
X168154742Y-46660814D01*
X168212287Y-46581610D01*
X168305220Y-46399219D01*
X168368477Y-46204534D01*
X168400500Y-46002352D01*
X168400500Y-45797648D01*
X168369305Y-45600694D01*
X168368477Y-45595465D01*
X168315833Y-45433445D01*
X168305220Y-45400781D01*
X168305218Y-45400777D01*
X168305218Y-45400776D01*
X168244043Y-45280715D01*
X168212287Y-45218390D01*
X168199314Y-45200534D01*
X168091971Y-45052786D01*
X167947213Y-44908028D01*
X167781613Y-44787715D01*
X167781612Y-44787714D01*
X167781610Y-44787713D01*
X167724653Y-44758691D01*
X167599223Y-44694781D01*
X167404534Y-44631522D01*
X167229995Y-44603878D01*
X167202352Y-44599500D01*
X166997648Y-44599500D01*
X166973329Y-44603351D01*
X166795465Y-44631522D01*
X166600776Y-44694781D01*
X166418386Y-44787715D01*
X166252786Y-44908028D01*
X166108028Y-45052786D01*
X165987715Y-45218386D01*
X165940485Y-45311080D01*
X165892510Y-45361876D01*
X165824689Y-45378671D01*
X165758554Y-45356134D01*
X165719515Y-45311080D01*
X165704043Y-45280715D01*
X165672287Y-45218390D01*
X165659314Y-45200534D01*
X165551971Y-45052786D01*
X165407213Y-44908028D01*
X165241613Y-44787715D01*
X165241612Y-44787714D01*
X165241610Y-44787713D01*
X165184653Y-44758691D01*
X165059223Y-44694781D01*
X164864534Y-44631522D01*
X164689995Y-44603878D01*
X164662352Y-44599500D01*
X164457648Y-44599500D01*
X164433329Y-44603351D01*
X164255465Y-44631522D01*
X164060776Y-44694781D01*
X163878386Y-44787715D01*
X163712786Y-44908028D01*
X163568028Y-45052786D01*
X163447715Y-45218386D01*
X163400485Y-45311080D01*
X163352510Y-45361876D01*
X163284689Y-45378671D01*
X163218554Y-45356134D01*
X163179515Y-45311080D01*
X163164043Y-45280715D01*
X163132287Y-45218390D01*
X163119314Y-45200534D01*
X163011971Y-45052786D01*
X162867213Y-44908028D01*
X162701613Y-44787715D01*
X162701612Y-44787714D01*
X162701610Y-44787713D01*
X162644653Y-44758691D01*
X162519223Y-44694781D01*
X162324534Y-44631522D01*
X162149995Y-44603878D01*
X162122352Y-44599500D01*
X161917648Y-44599500D01*
X161893329Y-44603351D01*
X161715465Y-44631522D01*
X161520776Y-44694781D01*
X161338386Y-44787715D01*
X161172786Y-44908028D01*
X161028028Y-45052786D01*
X160907715Y-45218386D01*
X160860485Y-45311080D01*
X160812510Y-45361876D01*
X160744689Y-45378671D01*
X160678554Y-45356134D01*
X160639515Y-45311080D01*
X160624043Y-45280715D01*
X160592287Y-45218390D01*
X160579314Y-45200534D01*
X160471971Y-45052786D01*
X160327213Y-44908028D01*
X160161613Y-44787715D01*
X160161612Y-44787714D01*
X160161610Y-44787713D01*
X160104653Y-44758691D01*
X159979223Y-44694781D01*
X159784534Y-44631522D01*
X159609995Y-44603878D01*
X159582352Y-44599500D01*
X159377648Y-44599500D01*
X159353329Y-44603351D01*
X159175465Y-44631522D01*
X158980776Y-44694781D01*
X158798386Y-44787715D01*
X158632786Y-44908028D01*
X158488028Y-45052786D01*
X158367715Y-45218386D01*
X158320485Y-45311080D01*
X158272510Y-45361876D01*
X158204689Y-45378671D01*
X158138554Y-45356134D01*
X158099515Y-45311080D01*
X158084043Y-45280715D01*
X158052287Y-45218390D01*
X158039314Y-45200534D01*
X157931971Y-45052786D01*
X157787213Y-44908028D01*
X157621613Y-44787715D01*
X157621612Y-44787714D01*
X157621610Y-44787713D01*
X157564653Y-44758691D01*
X157439223Y-44694781D01*
X157244534Y-44631522D01*
X157069995Y-44603878D01*
X157042352Y-44599500D01*
X156837648Y-44599500D01*
X156813329Y-44603351D01*
X156635465Y-44631522D01*
X156440776Y-44694781D01*
X156258386Y-44787715D01*
X156092786Y-44908028D01*
X155948028Y-45052786D01*
X155827715Y-45218386D01*
X155780485Y-45311080D01*
X155732510Y-45361876D01*
X155664689Y-45378671D01*
X155598554Y-45356134D01*
X155559515Y-45311080D01*
X155544043Y-45280715D01*
X155512287Y-45218390D01*
X155499314Y-45200534D01*
X155391971Y-45052786D01*
X155247213Y-44908028D01*
X155081613Y-44787715D01*
X155081612Y-44787714D01*
X155081610Y-44787713D01*
X155024653Y-44758691D01*
X154899223Y-44694781D01*
X154704534Y-44631522D01*
X154529995Y-44603878D01*
X154502352Y-44599500D01*
X154297648Y-44599500D01*
X154273329Y-44603351D01*
X154095465Y-44631522D01*
X153900776Y-44694781D01*
X153718386Y-44787715D01*
X153552781Y-44908033D01*
X153527557Y-44933257D01*
X153466233Y-44966741D01*
X153396541Y-44961755D01*
X153370986Y-44948676D01*
X153239185Y-44860609D01*
X153239172Y-44860602D01*
X153093501Y-44800264D01*
X153093489Y-44800261D01*
X152938845Y-44769500D01*
X152938842Y-44769500D01*
X152781158Y-44769500D01*
X152781155Y-44769500D01*
X152626510Y-44800261D01*
X152626498Y-44800264D01*
X152480827Y-44860602D01*
X152480814Y-44860609D01*
X152349711Y-44948210D01*
X152349707Y-44948213D01*
X152238213Y-45059707D01*
X152238210Y-45059711D01*
X152150609Y-45190814D01*
X152150602Y-45190827D01*
X152090264Y-45336498D01*
X152090261Y-45336510D01*
X152059500Y-45491153D01*
X152058903Y-45497218D01*
X152057566Y-45497086D01*
X152039815Y-45557539D01*
X151987011Y-45603294D01*
X151963561Y-45611283D01*
X151949710Y-45614500D01*
X151936838Y-45614501D01*
X151901373Y-45617291D01*
X151756366Y-45659419D01*
X151753061Y-45660187D01*
X151723333Y-45658481D01*
X151690406Y-45658481D01*
X151608728Y-45634751D01*
X151548627Y-45617291D01*
X151548625Y-45617290D01*
X151548620Y-45617290D01*
X151513163Y-45614500D01*
X151136849Y-45614500D01*
X151136824Y-45614501D01*
X151101375Y-45617290D01*
X150959594Y-45658481D01*
X150941942Y-45658481D01*
X150925355Y-45663403D01*
X150890406Y-45658481D01*
X150819079Y-45637759D01*
X150760193Y-45600153D01*
X150730986Y-45536680D01*
X150740732Y-45467493D01*
X150765989Y-45431004D01*
X152685868Y-43511126D01*
X152747191Y-43477641D01*
X152816883Y-43482625D01*
X152861230Y-43511126D01*
X152880213Y-43530109D01*
X153052179Y-43655048D01*
X153052181Y-43655049D01*
X153052184Y-43655051D01*
X153241588Y-43751557D01*
X153443757Y-43817246D01*
X153653713Y-43850500D01*
X153653714Y-43850500D01*
X153866286Y-43850500D01*
X153866287Y-43850500D01*
X154076243Y-43817246D01*
X154278412Y-43751557D01*
X154467816Y-43655051D01*
X154554138Y-43592335D01*
X154639786Y-43530109D01*
X154639788Y-43530106D01*
X154639792Y-43530104D01*
X154790104Y-43379792D01*
X154790106Y-43379788D01*
X154790109Y-43379786D01*
X154915048Y-43207820D01*
X154915050Y-43207817D01*
X154915051Y-43207816D01*
X154919514Y-43199054D01*
X154967488Y-43148259D01*
X155035308Y-43131463D01*
X155101444Y-43153999D01*
X155140486Y-43199056D01*
X155144951Y-43207820D01*
X155269890Y-43379786D01*
X155420213Y-43530109D01*
X155592179Y-43655048D01*
X155592181Y-43655049D01*
X155592184Y-43655051D01*
X155781588Y-43751557D01*
X155983757Y-43817246D01*
X156193713Y-43850500D01*
X156193714Y-43850500D01*
X156406286Y-43850500D01*
X156406287Y-43850500D01*
X156616243Y-43817246D01*
X156818412Y-43751557D01*
X157007816Y-43655051D01*
X157094138Y-43592335D01*
X157179786Y-43530109D01*
X157179788Y-43530106D01*
X157179792Y-43530104D01*
X157330104Y-43379792D01*
X157330106Y-43379788D01*
X157330109Y-43379786D01*
X157455048Y-43207820D01*
X157455050Y-43207817D01*
X157455051Y-43207816D01*
X157459514Y-43199054D01*
X157507488Y-43148259D01*
X157575308Y-43131463D01*
X157641444Y-43153999D01*
X157680486Y-43199056D01*
X157684951Y-43207820D01*
X157809890Y-43379786D01*
X157960213Y-43530109D01*
X158132179Y-43655048D01*
X158132181Y-43655049D01*
X158132184Y-43655051D01*
X158321588Y-43751557D01*
X158523757Y-43817246D01*
X158733713Y-43850500D01*
X158733714Y-43850500D01*
X158946286Y-43850500D01*
X158946287Y-43850500D01*
X159156243Y-43817246D01*
X159358412Y-43751557D01*
X159547816Y-43655051D01*
X159634138Y-43592335D01*
X159719786Y-43530109D01*
X159719788Y-43530106D01*
X159719792Y-43530104D01*
X159870104Y-43379792D01*
X159870106Y-43379788D01*
X159870109Y-43379786D01*
X159995048Y-43207820D01*
X159995050Y-43207817D01*
X159995051Y-43207816D01*
X159999514Y-43199054D01*
X160047488Y-43148259D01*
X160115308Y-43131463D01*
X160181444Y-43153999D01*
X160220486Y-43199056D01*
X160224951Y-43207820D01*
X160349890Y-43379786D01*
X160500213Y-43530109D01*
X160672179Y-43655048D01*
X160672181Y-43655049D01*
X160672184Y-43655051D01*
X160861588Y-43751557D01*
X161063757Y-43817246D01*
X161273713Y-43850500D01*
X161273714Y-43850500D01*
X161486286Y-43850500D01*
X161486287Y-43850500D01*
X161696243Y-43817246D01*
X161898412Y-43751557D01*
X162087816Y-43655051D01*
X162174138Y-43592335D01*
X162259786Y-43530109D01*
X162259788Y-43530106D01*
X162259792Y-43530104D01*
X162410104Y-43379792D01*
X162410106Y-43379788D01*
X162410109Y-43379786D01*
X162535048Y-43207820D01*
X162535050Y-43207817D01*
X162535051Y-43207816D01*
X162539514Y-43199054D01*
X162587488Y-43148259D01*
X162655308Y-43131463D01*
X162721444Y-43153999D01*
X162760486Y-43199056D01*
X162764951Y-43207820D01*
X162889890Y-43379786D01*
X163040213Y-43530109D01*
X163212179Y-43655048D01*
X163212181Y-43655049D01*
X163212184Y-43655051D01*
X163401588Y-43751557D01*
X163603757Y-43817246D01*
X163813713Y-43850500D01*
X163813714Y-43850500D01*
X164026286Y-43850500D01*
X164026287Y-43850500D01*
X164236243Y-43817246D01*
X164438412Y-43751557D01*
X164627816Y-43655051D01*
X164714138Y-43592335D01*
X164799786Y-43530109D01*
X164799788Y-43530106D01*
X164799792Y-43530104D01*
X164950104Y-43379792D01*
X164950106Y-43379788D01*
X164950109Y-43379786D01*
X165075048Y-43207820D01*
X165075050Y-43207817D01*
X165075051Y-43207816D01*
X165079514Y-43199054D01*
X165127488Y-43148259D01*
X165195308Y-43131463D01*
X165261444Y-43153999D01*
X165300486Y-43199056D01*
X165304951Y-43207820D01*
X165429890Y-43379786D01*
X165580213Y-43530109D01*
X165752179Y-43655048D01*
X165752181Y-43655049D01*
X165752184Y-43655051D01*
X165941588Y-43751557D01*
X166143757Y-43817246D01*
X166353713Y-43850500D01*
X166353714Y-43850500D01*
X166566286Y-43850500D01*
X166566287Y-43850500D01*
X166776243Y-43817246D01*
X166978412Y-43751557D01*
X167167816Y-43655051D01*
X167254138Y-43592335D01*
X167339786Y-43530109D01*
X167339788Y-43530106D01*
X167339792Y-43530104D01*
X167490104Y-43379792D01*
X167490106Y-43379788D01*
X167490109Y-43379786D01*
X167615048Y-43207820D01*
X167615050Y-43207817D01*
X167615051Y-43207816D01*
X167619514Y-43199054D01*
X167667488Y-43148259D01*
X167735308Y-43131463D01*
X167801444Y-43153999D01*
X167840486Y-43199056D01*
X167844951Y-43207820D01*
X167969890Y-43379786D01*
X168120213Y-43530109D01*
X168292179Y-43655048D01*
X168292181Y-43655049D01*
X168292184Y-43655051D01*
X168481588Y-43751557D01*
X168683757Y-43817246D01*
X168893713Y-43850500D01*
X168893714Y-43850500D01*
X169106286Y-43850500D01*
X169106287Y-43850500D01*
X169316243Y-43817246D01*
X169518412Y-43751557D01*
X169707816Y-43655051D01*
X169794138Y-43592335D01*
X169879786Y-43530109D01*
X169879788Y-43530106D01*
X169879792Y-43530104D01*
X170030104Y-43379792D01*
X170030106Y-43379788D01*
X170030109Y-43379786D01*
X170155048Y-43207820D01*
X170155050Y-43207817D01*
X170155051Y-43207816D01*
X170159514Y-43199054D01*
X170207488Y-43148259D01*
X170275308Y-43131463D01*
X170341444Y-43153999D01*
X170380486Y-43199056D01*
X170384951Y-43207820D01*
X170509890Y-43379786D01*
X170660213Y-43530109D01*
X170832179Y-43655048D01*
X170832181Y-43655049D01*
X170832184Y-43655051D01*
X171021588Y-43751557D01*
X171223757Y-43817246D01*
X171433713Y-43850500D01*
X171433714Y-43850500D01*
X171646286Y-43850500D01*
X171646287Y-43850500D01*
X171856243Y-43817246D01*
X172058412Y-43751557D01*
X172247816Y-43655051D01*
X172334138Y-43592335D01*
X172419786Y-43530109D01*
X172419788Y-43530106D01*
X172419792Y-43530104D01*
X172570104Y-43379792D01*
X172570106Y-43379788D01*
X172570109Y-43379786D01*
X172695048Y-43207820D01*
X172695050Y-43207817D01*
X172695051Y-43207816D01*
X172699514Y-43199054D01*
X172708160Y-43189900D01*
X172712897Y-43178232D01*
X172731696Y-43164979D01*
X172747488Y-43148259D01*
X172759710Y-43145231D01*
X172770004Y-43137976D01*
X172792985Y-43136991D01*
X172815308Y-43131463D01*
X172827226Y-43135524D01*
G37*
%TD.AperFunction*%
%TA.AperFunction,NonConductor*%
G36*
X144405703Y-60051976D02*
G01*
X144424819Y-60072804D01*
X144429896Y-60079792D01*
X144580213Y-60230109D01*
X144752179Y-60355048D01*
X144752181Y-60355049D01*
X144752184Y-60355051D01*
X144941588Y-60451557D01*
X145143757Y-60517246D01*
X145353713Y-60550500D01*
X145353714Y-60550500D01*
X145566286Y-60550500D01*
X145566287Y-60550500D01*
X145776243Y-60517246D01*
X145978412Y-60451557D01*
X146167816Y-60355051D01*
X146255061Y-60291664D01*
X146339784Y-60230110D01*
X146339784Y-60230109D01*
X146339792Y-60230104D01*
X146453329Y-60116566D01*
X146514648Y-60083084D01*
X146584340Y-60088068D01*
X146640274Y-60129939D01*
X146657189Y-60160917D01*
X146706202Y-60292328D01*
X146706206Y-60292335D01*
X146792452Y-60407544D01*
X146792455Y-60407547D01*
X146907664Y-60493793D01*
X146907671Y-60493797D01*
X147042517Y-60544091D01*
X147042516Y-60544091D01*
X147048525Y-60544737D01*
X147102127Y-60550500D01*
X148897872Y-60550499D01*
X148957483Y-60544091D01*
X148986032Y-60533443D01*
X149032167Y-60516236D01*
X149101859Y-60511252D01*
X149163182Y-60544737D01*
X149196666Y-60606061D01*
X149199500Y-60632418D01*
X149199500Y-61076000D01*
X149179815Y-61143039D01*
X149127011Y-61188794D01*
X149075500Y-61200000D01*
X145050000Y-61200000D01*
X145050000Y-65375500D01*
X145030315Y-65442539D01*
X144977511Y-65488294D01*
X144926000Y-65499500D01*
X144324500Y-65499500D01*
X144257461Y-65479815D01*
X144211706Y-65427011D01*
X144200500Y-65375500D01*
X144200500Y-60145689D01*
X144220185Y-60078650D01*
X144272989Y-60032895D01*
X144342147Y-60022951D01*
X144405703Y-60051976D01*
G37*
%TD.AperFunction*%
M02*
